<?xml version="1.0" encoding="UTF-8"?>
<!DOCTYPE svg PUBLIC "-//W3C//DTD SVG 1.1//EN" "http://www.w3.org/Graphics/SVG/1.1/DTD/svg11.dtd">
<!-- Creator: CorelDRAW -->
<svg xmlns="http://www.w3.org/2000/svg" xml:space="preserve" width="79.9048mm" height="42.6859mm" version="1.1" style="shape-rendering:geometricPrecision; text-rendering:geometricPrecision; image-rendering:optimizeQuality; fill-rule:evenodd; clip-rule:evenodd"
viewBox="0 0 985305.1 526359.31"
 xmlns:xlink="http://www.w3.org/1999/xlink"
 xmlns:xodm="http://www.corel.com/coreldraw/odm/2003">
 <defs>
  <style type="text/css">
   <![CDATA[
    .fil0 {fill:white}
    .fil1 {fill:white;fill-rule:nonzero}
   ]]>
  </style>
 </defs>
 <g id="Capa_x0020_1">
  <metadata id="CorelCorpID_0Corel-Layer"/>
  <g id="_2642245167584">
   <path class="fil0" d="M773509.29 444369.34c-8869.68,28573.36 -79976.32,74999.53 -69645.42,49195.71 8281.49,-20685.23 64917.72,-61659.87 64318.43,-82390.73 -15895.88,-12750.24 -9149.59,-13417.35 -30373.69,-2640.06 -56166.42,28517.88 -28363.74,-4466.28 -33535.35,-13215.12 -4726.47,-3793.01 -10121.27,-4626.59 -15348.38,-372.4 -5556.34,4519.31 -9694.62,24094.75 -11142.28,31894.1 -1940.9,10455.44 -420.49,11339.58 2646.23,18550.74 -4010.04,8124.89 -34286.31,41427.19 -44687.5,46173.38 -9166.86,4185.14 -17143.77,1337.91 -17320.11,-9386.35 8234.63,-5428.1 27778.02,-6417.05 50257.41,-41803.28 7124.84,-11215.03 8660.05,-22335.12 257.72,-34084.08 -9047.25,-12649.13 -16307.73,-14512.34 -30701.69,-5363.98 -16500.09,10487.5 -30477.27,32864.55 -39428.33,53174.92 -1659.75,3768.35 -37825.3,43888.45 -51579.29,40951.21 -1228.17,-15856.42 54732.32,-65503.44 52760.6,-85427.85 -4832.51,-4346.67 -9958.51,-9534.32 -19130.29,-8552.77 -12834.09,13469.14 -41075.75,57607.91 -46466.86,78901.06 -4175.27,16495.16 11920.37,37951.08 27696.63,26558.48 12184.25,-8796.93 27852,-30249.15 31736.26,-31294.81 626.41,17548.23 8275.33,35410.9 27318.07,33752.38 19614.9,-1709.07 51934.42,-43807.07 62699.37,-58769.49 6826.43,-9488.7 6926.32,-7227.19 18103.12,-12872.32 6906.59,-3487.2 12483.89,-8402.33 20811.01,-10418.45 -2318.23,16411.31 -50695.16,63835.06 -23226.65,84942.01 12127.53,9318.53 18152.45,2743.64 27199.69,-4995.28 16194.29,-13851.4 27008.56,-26768.11 41284.15,-42867.45l17622.21 -24522.64c3193.73,-2799.13 25234.13,-13971.01 28297.15,-14207.76 -4359,16323.76 -42909.37,56855.72 -29683.15,78399.19 2738.71,4462.58 10243.35,12081.9 17616.05,11497.41 12060.94,-954.42 41852.61,-38789.59 47531.03,-40396.32 113.45,8594.7 1215.84,13184.29 6132.2,18712.27 21468.25,24140.37 36555.21,-1559.87 46570.44,-7457.78l887.83 1356.41c2556.21,4573.56 2916.28,7187.73 7602.05,11909.27 13165.8,13270.61 30839.8,-7216.09 40149.7,-19057.54 6519.39,-8291.36 13347.06,-17246.12 18934.23,-26373.52 2519.22,-4116.08 6022.45,-8791.99 9000.39,-13413.65l6376.35 -10062.09c1038.27,-3789.31 -972.91,-10265.55 -8089.13,1191.17 -2197.38,3536.53 -3921.25,6281.41 -6424.44,9977 -7290.08,10763.72 -19300.46,26951.84 -27609.08,36055.81 -4596.99,5037.21 -10952.38,14273.12 -18390.43,15142.45 371.16,-15116.56 32880.58,-66873.41 1901.44,-71302.7l-16719.59 43841.59c-3694.36,8824.05 -19566.81,29112.23 -32756.04,26411.74 -10030.03,-11531.94 7449.15,-43480.3 12766.27,-51428.85 4980.49,-7445.45 9567.61,-13528.33 15724.48,-19153.72 8508.38,-7770.99 11650.32,-10201.43 26038.11,-7039.76 -859.47,-19268.4 -13755.22,-30945.85 -36365.32,-14435.89 -18907.1,13807.01 -35260.46,35500.91 -42630.69,57974.14 -2868.19,8746.37 -8587.3,12919.18 -15139.99,18756.67 -26930.88,23992.4 -76302.92,44598.72 -12062.17,-21134.08 6521.86,-6674.76 33727.72,-32510.65 33440.41,-44599.95 -2271.37,-3172.76 -8726.64,-9965.9 -12478.96,-10631.78 -7891.83,-1400.8 -37762.42,20343.66 -50287,17660.44 -9848.76,-2109.83 3918.79,-16752.88 -2128.33,-24613.88 -2410.71,-3134.54 -8715.54,-2432.9 -11809.39,-1166.51 -10285.28,4206.1 -17852.8,42318.72 -12699.68,48915.79 14.8,22.2 1439.03,1350.24 1599.33,1488.35 180.03,155.37 434.05,331.7 616.55,482.14l1964.33 1587zm-154566.46 30706.63c12594.87,-1898.97 53493.06,-44776.28 31120.95,-60527.89 -10382.69,2728.85 -31583.36,49396.7 -31120.95,60527.89z"/>
   <path class="fil0" d="M308873.98 230427.93c29826.19,27326.7 139153.96,70614.63 179070.6,94060.77l-1566.04 195356.14 39959.8 -131.94 -6229.61 -197871.66c71972.28,-30220.78 123568.83,-58309.54 189973.66,-94826.53 -25549.81,1584.53 -177720.36,58716.46 -190481.7,59573.47 -1866.91,-12388.94 -19362.12,-183990.67 -21256.16,-187784.91 -1249.13,2192.45 -10730.43,166705.09 -12982.06,189004.45 -27630.04,-9894.38 -77598.91,-30086.38 -176488.49,-57379.78z"/>
   <g>
    <path class="fil0" d="M273090.68 289990.3l-26375.98 556.13c1557.4,11345.74 11572.63,13405.02 20083.48,17519.87 -713.96,6392.38 -13449.41,34297.41 -16440.91,41190.43 -3950.85,9097.8 -15683.78,32355.28 -24299.44,35248.13 922.36,-14529.6 8251.9,-27517.83 3786.85,-44987.14 -2490.86,-9743.95 -16238.68,-23417.78 -28117.12,-21795.02l-15770.1 33851.03c-5047.07,10535.6 -9210.01,27054.19 -23045.38,27454.94 -553.66,-9907.95 1663.45,-11102.82 -4440.39,-17945.29 -8948.6,-1511.78 -12889.58,3072.88 -15213.97,9111.37 -3542.69,9201.38 1580.83,12438.27 6382.52,16188.12 -870.57,5132.16 -14532.07,20727.16 -19002.05,24054.06 -3883.03,2889.15 -12809.43,5006.38 -15391.54,-866.87 -2154.22,-4896.64 514.2,-14599.89 1599.33,-18951.49 2753.51,-11060.9 7624.25,-21590.33 13424.75,-30067.88 2907.65,-4248.03 6183.99,-8245.73 10238.42,-11577.56 6079.18,-4994.05 9124.93,-4134.58 17675.24,-4091.42 -123.31,-14451.92 -10848.8,-24379.6 -24066.39,-14577.69 -8586.07,6367.72 -15488.95,15844.09 -22237.7,25526.38 -10714.4,15373.04 -26738.51,56654.72 800.28,65664.98 17349.7,5678.42 33005.12,-15162.18 41159.6,-27302.04 8135.99,-12112.73 2850.92,-4201.17 14381.63,-9487.46 14885.97,-6822.74 15455.66,-18141.35 20690.16,-26103.47 3026.02,-4604.39 6144.53,-9043.55 9682.29,-14086.92 5213.54,-7435.59 6175.36,-11871.04 11027.6,-13573.95 6151.93,4425.59 3165.36,25351.28 2389.75,31649.95 -1133.22,9216.18 -2251.64,22225.37 -7608.22,28091.22 -12829.16,340.34 -22918.37,-4717.84 -31894.1,4372.57 -17548.23,17770.19 28012.3,45935.4 46037.74,7375.16 2584.58,-5529.21 4839.91,-7537.93 11234.76,-9102.74 -530.23,7879.5 -1869.38,13589.98 1792.93,19925.64 2520.45,4361.47 6789.44,9124.93 13364.32,6064.38 12337.15,-5742.54 30921.18,-39001.68 37836.4,-51550.93 3011.23,-5463.86 22481.86,-16958.81 26802.63,-17295.44 -5074.2,14659.08 -33068.01,51550.93 -20164.86,69576.36 10523.26,14701 19380.61,2668.43 27419.18,-6082.88 5773.37,-6282.64 20279.54,-25528.84 23224.18,-26532.59 616.55,12629.4 4837.45,35222.23 22507.75,30411.91 16008.09,-4359 50094.64,-58912.53 61444.08,-75511.27 6530.49,-9550.35 7947.32,-14560.43 13731.79,-15337.28 5132.16,16042.61 101.11,46402.74 -5581.01,59591.96 -5952.17,353.9 -39588.64,-7520.67 -36066.91,16289.23 1881.71,12710.78 33254.21,27967.91 49156.25,-4357.77 7357.9,-14956.25 6299.9,3055.62 25625.03,-29490.79 2562.38,-4313.38 9776.01,-15046.27 5980.53,-19656.83 -5236.97,2323.16 -13651.64,27454.94 -24008.43,31476.08 -1892.81,-4519.31 15414.97,-43392.75 -5994.09,-59741.17 -22305.52,-17034.03 -20087.18,-2213.41 -31768.32,21801.19 -10433.25,21452.22 -17768.95,33259.14 -33943.51,51004.66 -3383.62,3709.16 -6282.64,7761.12 -10958.55,9911.65 -7301.18,3358.96 -11467.82,-930.99 -11661.42,-8147.08 3627.78,-2668.43 11171.87,-3785.61 22370.88,-16450.77 15453.19,-17475.48 26043.05,-33487.26 11805.69,-53130.53 -13652.87,-18835.58 -35746.3,16713.42 -41300.18,27133.11 -10197.73,19137.69 -10169.37,29625.2 -31489.64,47212.89 -2876.82,2373.72 -19552.01,16627.1 -24183.53,12329.75 -4837.45,-4647.55 6827.67,-17042.66 10285.28,-21889.97 9285.23,-13017.82 22035.47,-25358.68 31488.41,-40105.3 7465.18,-11647.85 6262.91,-14316.28 -3653.67,-22819.73 -8878.31,-302.11 -23726.05,17348.47 -39308.72,15656.66 -1824.99,-6637.77 3662.3,-16085.77 -505.57,-21099.55 -3338,-4140.75 -8671.15,-1896.51 -11300.12,1858.28 -2825.03,4033.47 -7213.63,24341.37 -7479.98,29984.03 -446.38,9489.93 4118.55,9408.54 1027.17,15231.24 -2415.64,4550.13 -23919.65,38804.39 -29498.19,40207.65 -13592.45,3421.85 14085.69,-47323.86 15337.28,-49845.55 3966.88,-7984.31 8311.09,-15585.14 11534.41,-23721.12 2753.51,-6949.74 7112.51,-18616.09 11132.42,-24401.79 11819.25,-1393.4 22994.83,3287.44 37478.8,171.4 10550.39,-2268.9 19447.2,-9168.09 18365.77,-21145.18 -11070.76,368.7 -37598.41,3753.55 -47563.09,-278.68 -154.14,-237.99 -305.81,-917.43 -340.34,-779.32l-392.13 -6634.07c408.16,-6042.18 -236.75,-10354.33 -2625.27,-16184.42 -1757.17,-4291.18 -2262.74,-3964.41 -5527.98,-5071.74 -2506.89,7217.33 -6895.49,22132.89 -11086.79,28086.29zm-70877.28 106718.53c-8089.13,-5786.93 -34366.46,-5195.05 -24788.98,9171.79 7143.34,10715.63 22180.98,-388.43 24788.98,-9171.79zm200596.81 -3164.13c-2009.95,20214.19 23489.3,13101.67 25965.36,-966.75 -2993.96,-2389.75 -8316.02,-3247.98 -13525.86,-3381.16 -6868.36,-176.33 -8667.45,1426.7 -12439.5,4347.91zm-44226.32 -4746.2c12707.08,-2139.43 39219.94,-43752.81 22234,-51236.49 -8905.44,5323.29 -22116.86,41150.97 -22234,51236.49z"/>
    <path class="fil0" d="M11926.53 361294.24c6377.59,-14625.78 6677.23,-80256.23 38468.98,-106613.72 38138.51,-31617.89 92838.77,-5191.35 71572.75,35716.71 -9026.28,17363.26 -43439.6,40518.39 -56088.73,40862.43 72.75,-4375.03 9806.83,-21100.79 11884.61,-35091.52 1224.47,-8248.2 -479.68,-13963.61 -4090.19,-18974.92 -3622.84,-5024.88 -7902.93,-10419.68 -14012.93,-11329.71 -4497.11,20013.19 -1933.5,23954.18 -12835.33,49306.69 -6192.62,14400.13 -13580.12,27832.27 -20660.57,41559.13 -19298,37413.45 -17794.85,48122.91 419.25,88747.35 2066.67,4608.09 471.04,3462.54 5034.74,4204.87 2387.28,-5052.01 -3426.78,-14955.02 579.56,-36420.81 1621.52,-8689.65 5939.84,-22232.77 8747.6,-30749.78 8926.4,-27068.98 10276.65,-30732.52 39425.87,-40370.42 35614.36,-11773.63 85191.09,-39677.42 68880.9,-84991.33 -14816.91,-41167 -75844.21,-29857.02 -108343.76,-1519.18 -14618.39,12747.78 -46459.46,57670.8 -40072.01,77283.23 1811.42,5561.28 3784.38,7693.3 5228.34,14266.95 1094.99,4989.12 1664.68,12515.95 5860.92,14114.05z"/>
   </g>
   <path class="fil0" d="M608971.99 364346.16c-21966.42,11143.51 -20220.35,37115.04 866.87,27214.49 26535.05,-12460.46 14890.9,-35207.44 -866.87,-27214.49z"/>
   <path class="fil0" d="M546066.69 59234.37c-1955.69,11139.81 -11456.72,30878.03 2779.4,33990.37 17461.91,3599.42 24075.02,-24052.82 13596.15,-44468.01l-2843.53 -14586.33c-9427.04,2424.27 -28880.41,14401.36 -34320.84,26638.63 -11328.48,14011.7 7330.77,42476.55 13054.82,11636.75 710.26,-3823.84 4650.02,-7914.03 7734,-13211.42z"/>
   <path class="fil0" d="M445188.11 94271.63l-3514.33 -28001.21c1055.53,837.27 12212.61,33018.69 20846.77,22411.57 9196.45,-11300.12 2152.99,-26675.63 -8595.93,-35632.86 -2985.33,-2487.16 -8791.99,-5962.03 -13504.9,-14678.81 -12693.52,13919.22 -24684.17,60514.32 4768.39,55901.3z"/>
   <path class="fil0" d="M615906.94 143172.63c1847.18,8997.92 -2647.46,32123.46 9471.43,25752.03 12224.94,-6428.14 12412.37,-23620.01 8644.02,-34893 -1584.53,-4741.26 -1596.86,-12232.34 -3201.12,-16729.45 -13538.19,1003.74 -36816.63,18410.16 -31035.86,39690.98 871.8,3208.52 5415.77,6060.68 6582.28,4868.27 3340.46,-3418.15 7208.7,-18818.32 9539.25,-18688.84z"/>
   <path class="fil0" d="M572014.79 222253.72c14982.15,2355.22 20007.03,-15662.82 16797.27,-30304.64 -1091.29,-6816.57 -4462.58,-13634.37 -3272.64,-20450.94 -5259.17,326.77 -13243.48,4335.58 -17491.51,7029.9 -10271.71,6515.69 -21777.76,19481.73 -15516.08,33531.65 9155.76,10355.56 16327.46,-20638.37 17813.34,-18623.49 966.75,1310.78 -10671.24,26876.62 1669.62,28817.52z"/>
   <path class="fil0" d="M369223.06 168643.52c4543.97,1261.46 17456.98,22337.58 23739.62,13649.17 7166.77,-9909.18 611.62,-26046.75 -16211.55,-30313.27 -3395.95,-861.94 -7468.88,-1360.11 -10399.95,-2339.19 -4920.06,-1642.49 -4087.72,-3172.76 -9867.26,-4084.02 -6134.67,16850.29 -1873.08,48153.74 17920.62,46450.83 15596.23,-1090.06 712.73,-13677.53 -5181.48,-23363.52z"/>
   <path class="fil0" d="M661880.56 172467.36c-22.2,7793.18 -4345.44,22210.57 2608,24993.68 12520.88,5010.08 21992.32,-9054.64 17332.44,-29807.7 -834.81,-3719.03 -3299.77,-6976.87 -4246.79,-10354.33 -828.64,-2954.5 585.72,-8026.24 -350.2,-10256.92 -9253.17,382.26 -26066.47,12056.01 -31416.89,22801.23 -9063.28,17360.8 6664.9,26914.85 10556.56,19761.64 -757.12,-5876.95 -797.81,-14412.46 5516.88,-17137.61z"/>
   <path class="fil0" d="M660484.69 110088.59c-34796.81,25623.79 4350.37,36004.02 15218.9,5028.58 1881.71,-5366.45 5196.28,-8022.54 4933.63,-14310.11 -7371.46,-5397.27 -23565.75,-4588.36 -31939.72,-191.13 -17888.56,9394.98 -12973.43,32960.73 11787.19,9472.66z"/>
   <path class="fil0" d="M430656.04 154893.24c5023.64,-10492.44 -9967.14,-9661.33 -9900.55,-23361.06 8255.6,6166.73 13725.62,16927.98 20608.78,15772.57 8033.64,-1347.78 10117.58,-18760.36 -7293.78,-29020.98 -9007.79,-5304.79 -15068.47,-2120.93 -24731.03,-9621.87 -2929.84,8695.81 -4167.87,22257.43 -741.09,32474.89 3007.53,8970.79 10910.46,17807.18 22057.67,13756.45z"/>
   <path class="fil0" d="M494250.65 0c-17908.29,13502.43 -25491.85,49158.72 -4192.54,46131.46 4505.74,-1701.68 -725.06,-17579.06 1309.55,-17202.96 3707.93,13714.52 12094.23,21005.84 16994.57,13731.79 13310.07,-15985.89 -11106.52,-29104.83 -14111.58,-42660.28z"/>
   <path class="fil0" d="M644497.57 215046.26c-28469.78,26382.15 3916.32,29998.83 11404.93,12176.85 1102.39,-2624.03 6064.38,-20962.68 6034.79,-23587.95 -8209.97,-1478.49 -22451.03,-257.72 -28606.66,4013.74 -8451.66,2151.76 -19680.26,36336.95 11166.94,7397.36z"/>
   <path class="fil0" d="M323676.09 125957.34c4203.63,2225.74 13599.85,13258.28 20508.9,11686.08 7512.04,-1710.31 8452.89,-20081.01 -12795.87,-25408 -6784.51,-13.56 -18897.24,-4356.54 -19667.93,-4437.92 -2637.6,41892.06 22024.38,43777.47 25276.06,36636.6 2928.61,-6430.61 -10549.16,-12561.58 -13321.17,-18476.75z"/>
   <path class="fil0" d="M523941.2 174901.5c1993.92,-2389.75 1076.5,-15720.78 6145.76,-18042.7 59.19,8787.06 -3473.64,21316.58 4207.33,22608.87 4239.39,712.73 6863.43,-628.88 9275.37,-3566.12 6714.22,-8175.44 3006.29,-18503.88 -107.28,-27433.98 -1710.31,-4907.73 -1034.57,-11936.4 -3079.05,-11175.57 -4987.88,1062.93 -16627.1,10309.94 -19819.6,14643.05 -5065.57,6874.53 -8117.49,22563.24 3377.46,22966.46z"/>
   <path class="fil0" d="M371643.64 115334.19c11132.42,17355.87 21447.29,14265.72 22552.14,7695.77 1032.1,-6140.83 -3054.39,-10699.6 -5821.46,-13724.39 -5672.25,-6201.25 -12708.32,-6822.74 -22040.41,-9877.12 -7404.76,-2424.27 -7036.06,976.61 -6981.81,8849.95 85.08,12355.65 4066.76,28426.63 19349.79,26763.18 7269.12,-791.65 -204.69,-11296.42 -7058.26,-19707.38z"/>
   <path class="fil0" d="M607180.3 88501.96c-3643.81,-4820.18 -11138.58,-12210.14 -18887.37,-13231.15 274.98,6291.27 -7127.31,23962.81 -5085.3,31827.51 1151.71,4436.69 5064.34,8777.2 10501.07,8692.11 7343.1,-114.68 6431.84,-7494.77 5768.44,-18417.56 -399.52,20232.68 22649.56,14566.6 7703.17,-8870.91z"/>
   <path class="fil0" d="M466152.03 173199.82c5143.25,792.88 7272.82,15069.7 14950.09,9556.52 9179.19,-16205.38 -11356.84,-25891.37 -18757.9,-33594.54 -7441.75,10306.24 -8283.96,21719.8 -6132.2,29520.38 1536.44,5573.61 4600.69,9483.76 7884.43,9472.66 8470.16,-27.13 1617.83,-15021.61 2055.58,-14955.02z"/>
   <path class="fil0" d="M462503.29 252600.28c19518.72,25046.7 20891.16,-951.95 15348.38,-6375.12 -3165.36,-3097.54 -18930.53,-11088.02 -22816.03,-11386.43 -5084.07,10238.42 -4063.06,34514.43 11973.39,33527.96 4335.58,-266.35 -3007.53,-11502.35 -4505.74,-15766.4z"/>
   <path class="fil0" d="M536428.79 250406.6c-2155.46,12501.16 462.41,20174.73 8429.46,17026.63 14291.61,-4032.23 -484.61,-28076.43 3096.31,-34620.48 -8127.35,421.72 -17412.59,9313.59 -20809.77,15577.74 -5334.39,9835.2 1367.51,28765.73 9284,2016.12z"/>
   <path class="fil0" d="M328683.71 175878.11c15042.57,3107.41 17255.98,2812.7 16692.46,-2696.79 -1848.42,-18087.09 -20978.71,-9785.87 -32161.68,-12496.22 -820.01,5133.39 3051.92,10349.4 4685.78,13539.42 3368.83,6576.12 5754.87,12710.78 15123.96,12809.43 6766.01,71.52 10124.97,-8171.75 -4340.51,-11155.84z"/>
   <path class="fil0" d="M354956.11 217574.11c7567.53,7662.48 15394,8103.93 16077.14,1467.39 1139.38,-11065.83 -6117.4,-14596.19 -14242.29,-17826.91 -3696.83,-1469.85 -8520.71,-1966.79 -11376.57,-5081.6 -2844.76,6886.86 -5091.46,19785.07 2399.61,30685.66 9715.59,6793.14 17050.06,-1283.66 7142.11,-9244.54z"/>
   <path class="fil0" d="M524330.86 118605.6c-6167.96,7251.85 -5966.96,15699.81 -874.27,15016.68 15273.16,-2051.88 10787.15,-28113.42 11184.21,-32695.61 -2172.72,424.19 -4415.73,3108.64 -6398.55,3378.69 -25391.97,3455.14 -25253.86,38075.62 -3911.39,14300.25z"/>
   <path class="fil0" d="M495449.22 78367.13c3305.94,2665.96 6747.52,13284.17 11380.27,8412.2 6145.76,-4467.52 3098.78,-16768.91 -6192.62,-23811.14 -3346.63,-2536.48 -4119.78,-7026.2 -5738.84,-7399.83 -23823.47,20321.47 2694.32,50192.05 551.2,22798.76z"/>
   <path class="fil0" d="M727734.2 183609.64c-6373.89,-668.34 -16893.45,-5307.26 -25047.94,-1214.6 -4576.03,2296.03 -7389.96,9435.67 -5363.98,11555.37 3686.97,3857.13 14480.28,-6243.18 14165.84,-3795.48 -372.4,2895.32 -13244.71,7486.14 -8725.41,14387.8 6198.79,9468.97 21993.55,-8045.97 24971.48,-20933.08z"/>
   <path class="fil0" d="M577384.93 260071.63c14786.09,198.53 7979.38,-19050.14 8339.45,-28877.94 -7954.72,1640.02 -15977.26,7050.86 -18909.57,12100.4 -1611.66,2773.24 -3553.79,9279.07 -341.57,12337.15 3067.95,2921.21 7059.49,-8742.67 7795.65,-8974.49 -712.73,3431.71 -2123.4,13344.59 3116.04,13414.88z"/>
   <path class="fil0" d="M711879.02 136814.77c-32069.2,-10937.59 -28417.99,17960.08 -10285.28,5971.9 -27098.58,17868.83 14858.84,14956.25 10285.28,-5971.9z"/>
   <path class="fil0" d="M470695.99 228918.62c4119.78,-1864.45 944.55,-8719.24 -180.03,-10948.68 877.97,1551.24 7315.97,6987.97 9898.08,5941.07 4086.49,-13280.47 -8521.95,-15045.04 -15075.87,-20448.48 -4990.35,53.02 -4472.45,9773.54 -4032.23,14472.88 551.2,5895.45 3457.61,10423.38 9390.05,10983.21z"/>
   <path class="fil0" d="M293530.53 180949.85c15655.42,9411.01 10513.4,-7060.72 -2792.97,-12429.64 -2006.25,-810.15 -4199.93,-1367.51 -6535.42,-1545.07 -1420.53,32235.67 15828.06,24691.57 9328.39,13974.71z"/>
   <g>
    <path class="fil1" d="M210259.37 432357.72c-1694.28,0 -5045.84,140.57 -4950.89,2520.45 88.78,2210.95 4192.54,1763.33 6065.61,2579.64 3488.44,1522.88 2076.54,69548 2116,77660.56 30.83,863.17 -7034.83,-837.27 -7034.83,2235.61 0,3319.5 2096.27,2551.28 3804.11,2551.28 17976.11,0 19844.26,2244.24 36228.44,-5059.4 16343.49,-7285.15 19880.02,-28097.39 19480.49,-38921.53 -885.36,-23878.96 -17460.68,-43566.61 -33276.4,-43566.61l-22432.53 0zm14270.65 3838.64c70.29,-3462.54 28221.93,683.14 28221.93,41324.84 0,19056.31 -582.02,37399.89 -22907.28,38542.97l-4010.04 205.93c0,0 -1464.92,-72248.49 -1304.62,-80073.73z"/>
    <path class="fil1" d="M285622.67 475323.81l13257.04 0c5969.43,0 3670.94,4080.32 6655.03,4080.32 3511.87,0 2434.14,-4104.99 2434.14,-7424.49 0,-3072.88 -44.39,-6250.58 -3117.27,-6250.58 -2984.1,0 251.55,5339.32 -5971.9,5339.32l-13257.04 0 0 -25756.97c0,-1413.13 -272.51,-6540.36 127.01,-9371.55 203.46,-1452.59 25652.15,-294.71 29728.78,65.35 -657.24,6169.19 1905.14,8312.32 3646.27,8058.3 2177.65,-318.14 1282.42,-3887.96 1392.17,-5749.94 118.38,-2001.32 287.31,-4070.46 -419.25,-5296.16 -705.33,-1224.47 -2196.15,-1474.79 -4827.58,-1474.79l-35073.03 0c-2636.37,506.8 -3961.95,1351.48 -4844.85,3081.51 -1829.92,3578.45 -1038.27,9256.87 -913.73,11672.51l183.73 8192.71 0 51431.32 93.72 11539.34 47221.52 -495.71c0,0 844.67,-13047.42 -1547.54,-13264.44 -3061.78,-276.21 -3813.97,4342.97 -4738.8,7191.43 -30.83,96.18 -748.49,1313.25 -3548.86,2207.25 -2757.21,879.2 -7606.99,1395.87 -8692.11,1388.47l-15011.74 -97.41c-4905.27,-32.06 -2775.71,-34648.84 -2775.71,-39065.8z"/>
    <path class="fil1" d="M444392.76 511247.68c727.53,1037.04 2633.9,678.2 3822.61,1450.12 1154.18,748.49 811.38,1903.9 -468.58,1942.13l-12095.47 371.16c-1205.97,35.76 -1411.9,-836.04 -1097.46,-1770.73 727.53,-2159.16 3828.77,-242.92 4060.59,-2027.21 250.32,-1921.17 55.49,-5839.96 55.49,-9169.32 0,-14810.75 -614.08,-20748.12 -1368.74,-38519.54 -9923.98,15625.83 -21169.84,37319.73 -25321.68,31276.32l-27445.08 -39943.77c-565.99,16706.02 282.38,28130.68 282.38,46259.7 0,12202.75 4568.63,10707 4954.59,12229.87 786.72,3103.71 -840.97,2816.4 -2917.51,2816.4l-17956.38 0c-2076.54,0 -4244.33,689.3 -4244.33,-2509.36 0,-4978.02 4272.69,1421.76 4622.89,-12536.92l1416.83 -56634.99 274.98 -13781.11c3325.67,-293.48 32384.87,48036.6 38122.48,53327.82 9832.73,-18198.07 19665.46,-36396.14 29498.19,-54594.21 6287.57,3093.84 1289.82,75383.03 5804.2,81813.64z"/>
    <path class="fil1" d="M458233.07 500157.19c122.08,4091.42 -168.93,9182.89 -1916.24,10528.2 -2345.35,1807.72 -2585.81,4360.24 -16.03,4360.24l13005.49 0c3938.52,0 4611.79,-1736.2 1164.05,-4828.81 -1436.56,-1287.36 -1437.79,-6424.44 -1437.79,-10059.62l0 -56033.24c0,-4102.52 115.91,-7413.39 2260.27,-9248.24 1850.88,-1583.3 7264.18,-5638.96 -1986.52,-5638.96l-13005.49 0c-5802.96,0 -8944.9,2730.08 -1299.69,6341.83 1558.64,736.16 1439.03,3980.44 1573.43,8545.37l1658.52 56033.24z"/>
    <ellipse class="fil0" cx="209858.21" cy="524442.23" rx="1951.77" ry="1917.17"/>
    <ellipse class="fil0" cx="217462.08" cy="523026.15" rx="1951.77" ry="1917.17"/>
    <ellipse class="fil0" cx="226418.84" cy="523026.15" rx="1951.77" ry="1917.17"/>
    <ellipse class="fil0" cx="235835.13" cy="520695.08" rx="1951.77" ry="1917.17"/>
    <ellipse class="fil0" cx="244638.43" cy="519792.31" rx="1951.77" ry="1917.17"/>
    <ellipse class="fil0" cx="253672.33" cy="515957.16" rx="1951.77" ry="1917.17"/>
    <ellipse class="fil0" cx="260026.16" cy="508663.28" rx="1951.77" ry="1917.17"/>
    <ellipse class="fil0" cx="263241.24" cy="501519.33" rx="1951.77" ry="1917.17"/>
    <ellipse class="fil0" cx="267299.07" cy="492118.44" rx="1951.77" ry="1917.17"/>
    <ellipse class="fil0" cx="268600.53" cy="482717.56" rx="1951.77" ry="1917.17"/>
    <ellipse class="fil0" cx="269128.08" cy="472600.49" rx="1951.77" ry="1917.17"/>
    <ellipse class="fil0" cx="266913.36" cy="463417.15" rx="1951.77" ry="1917.17"/>
    <ellipse class="fil0" cx="265095.96" cy="455509.75" rx="1951.77" ry="1917.17"/>
    <ellipse class="fil0" cx="261979.6" cy="446411.15" rx="1951.77" ry="1917.17"/>
    <ellipse class="fil0" cx="256525.75" cy="440883.71" rx="1951.77" ry="1917.17"/>
    <ellipse class="fil0" cx="248821.51" cy="435867.13" rx="1951.77" ry="1917.17"/>
    <ellipse class="fil0" cx="226894.96" cy="440183.81" rx="1951.77" ry="1917.17"/>
    <ellipse class="fil0" cx="226500.13" cy="448590.67" rx="1951.77" ry="1917.17"/>
    <ellipse class="fil0" cx="227421.68" cy="457925.56" rx="1951.77" ry="1917.17"/>
    <ellipse class="fil0" cx="227289.8" cy="468012.48" rx="1951.77" ry="1917.17"/>
    <ellipse class="fil0" cx="227684.63" cy="477711.58" rx="1951.77" ry="1917.17"/>
    <ellipse class="fil0" cx="228211.35" cy="486117.62" rx="1951.77" ry="1917.17"/>
    <ellipse class="fil0" cx="227948.4" cy="496593.19" rx="1951.77" ry="1917.17"/>
    <ellipse class="fil0" cx="228606.18" cy="505774.9" rx="1951.77" ry="1917.17"/>
    <ellipse class="fil0" cx="228343.24" cy="511336.56" rx="1951.77" ry="1917.17"/>
    <ellipse class="fil0" cx="276662.27" cy="521553.04" rx="1951.77" ry="1917.17"/>
    <ellipse class="fil0" cx="284142.55" cy="521553.04" rx="1951.77" ry="1917.17"/>
    <ellipse class="fil0" cx="291910.65" cy="521293.94" rx="1951.77" ry="1917.17"/>
    <ellipse class="fil0" cx="300600.32" cy="521035.65" rx="1951.77" ry="1917.17"/>
    <ellipse class="fil0" cx="308631.37" cy="521035.65" rx="1951.77" ry="1917.17"/>
    <ellipse class="fil0" cx="318505.53" cy="521165.2" rx="1951.77" ry="1917.17"/>
    <ellipse class="fil0" cx="324980.47" cy="518578.29" rx="1951.77" ry="1917.17"/>
    <ellipse class="fil0" cx="326165.81" cy="511594.85" rx="1951.77" ry="1917.17"/>
    <ellipse class="fil0" cx="325244.25" cy="504223.57" rx="1951.77" ry="1917.17"/>
    <ellipse class="fil0" cx="289695.93" cy="510819.18" rx="1951.77" ry="1917.17"/>
    <ellipse class="fil0" cx="290091.6" cy="503835.74" rx="1951.77" ry="1917.17"/>
    <ellipse class="fil0" cx="289432.99" cy="495817.53" rx="1951.77" ry="1917.17"/>
    <ellipse class="fil0" cx="288511.43" cy="486764.55" rx="1951.77" ry="1917.17"/>
    <ellipse class="fil0" cx="288379.55" cy="478228.96" rx="1951.77" ry="1917.17"/>
    <ellipse class="fil0" cx="295752.82" cy="478488.06" rx="1951.77" ry="1917.17"/>
    <ellipse class="fil0" cx="302870.61" cy="438022.21" rx="1951.77" ry="1917.17"/>
    <ellipse class="fil0" cx="294779.01" cy="438106.14" rx="1951.77" ry="1917.17"/>
    <ellipse class="fil0" cx="288395.31" cy="441032" rx="1951.77" ry="1917.17"/>
    <ellipse class="fil0" cx="287969.78" cy="448389.42" rx="1951.77" ry="1917.17"/>
    <ellipse class="fil0" cx="288395.31" cy="457229.74" rx="1951.77" ry="1917.17"/>
    <ellipse class="fil0" cx="288479.91" cy="466196.35" rx="1951.77" ry="1917.17"/>
    <ellipse class="fil0" cx="365403.66" cy="518548.96" rx="1951.77" ry="1917.17"/>
    <ellipse class="fil0" cx="375854.31" cy="518372.97" rx="1951.77" ry="1917.17"/>
    <ellipse class="fil0" cx="385111.34" cy="518314.3" rx="1951.77" ry="1917.17"/>
    <ellipse class="fil0" cx="389769.72" cy="507226.83" rx="1951.77" ry="1917.17"/>
    <ellipse class="fil0" cx="388396.09" cy="497429.97" rx="1951.77" ry="1917.17"/>
    <ellipse class="fil0" cx="388813.32" cy="487316.97" rx="1951.77" ry="1917.17"/>
    <ellipse class="fil0" cx="387995.45" cy="476831.62" rx="1951.77" ry="1917.17"/>
    <ellipse class="fil0" cx="387813.8" cy="467373.7" rx="1951.77" ry="1917.17"/>
    <ellipse class="fil0" cx="420881.13" cy="494842.24" rx="1951.77" ry="1917.17"/>
    <ellipse class="fil0" cx="426283.55" cy="487351.19" rx="1951.77" ry="1917.17"/>
    <ellipse class="fil0" cx="430572.81" cy="479080.4" rx="1951.77" ry="1917.17"/>
    <ellipse class="fil0" cx="378302.95" cy="431014.33" rx="1951.77" ry="1917.17"/>
    <ellipse class="fil0" cx="383386.85" cy="438816.62" rx="1951.77" ry="1917.17"/>
    <ellipse class="fil0" cx="390853.85" cy="448648.52" rx="1951.77" ry="1917.17"/>
    <ellipse class="fil0" cx="397367.78" cy="458011.93" rx="1951.77" ry="1917.17"/>
    <ellipse class="fil0" cx="402610.94" cy="465971.47" rx="1951.77" ry="1917.17"/>
    <ellipse class="fil0" cx="406786.56" cy="472830.25" rx="1951.77" ry="1917.17"/>
    <ellipse class="fil0" cx="442965.28" cy="430389.39" rx="1951.77" ry="1917.17"/>
    <ellipse class="fil0" cx="444236.05" cy="440221.29" rx="1951.77" ry="1917.17"/>
    <ellipse class="fil0" cx="444395.31" cy="454578.46" rx="1951.77" ry="1917.17"/>
    <ellipse class="fil0" cx="445507.65" cy="467843.83" rx="1951.77" ry="1917.17"/>
    <ellipse class="fil0" cx="445030.69" cy="477831.35" rx="1951.77" ry="1917.17"/>
    <ellipse class="fil0" cx="445825.34" cy="487351.19" rx="1951.77" ry="1917.17"/>
    <ellipse class="fil0" cx="445189.12" cy="497807.21" rx="1951.77" ry="1917.17"/>
    <ellipse class="fil0" cx="446936.84" cy="505141.82" rx="1951.77" ry="1917.17"/>
    <ellipse class="fil0" cx="434545.2" cy="517314.57" rx="1951.77" ry="1917.17"/>
    <ellipse class="fil0" cx="440582.18" cy="517314.57" rx="1951.77" ry="1917.17"/>
    <ellipse class="fil0" cx="446778.41" cy="516690.45" rx="1951.77" ry="1917.17"/>
    <ellipse class="fil0" cx="458853.19" cy="516846.08" rx="1951.77" ry="1917.17"/>
    <ellipse class="fil0" cx="465684.81" cy="517314.57" rx="1951.77" ry="1917.17"/>
    <ellipse class="fil0" cx="471721.79" cy="517002.51" rx="1951.77" ry="1917.17"/>
    <ellipse class="fil0" cx="474422.59" cy="508418.85" rx="1951.77" ry="1917.17"/>
    <ellipse class="fil0" cx="473107.03" cy="500928.61" rx="1951.77" ry="1917.17"/>
    <ellipse class="fil0" cx="472471.64" cy="491720.83" rx="1951.77" ry="1917.17"/>
    <ellipse class="fil0" cx="472674.87" cy="483605.67" rx="1951.77" ry="1917.17"/>
    <ellipse class="fil0" cx="471721.79" cy="475490.5" rx="1951.77" ry="1917.17"/>
    <ellipse class="fil0" cx="472039.48" cy="466595.59" rx="1951.77" ry="1917.17"/>
    <ellipse class="fil0" cx="471404.1" cy="460040.72" rx="1951.77" ry="1917.17"/>
    <ellipse class="fil0" cx="471086.41" cy="449896.76" rx="1951.77" ry="1917.17"/>
    <ellipse class="fil0" cx="470927.15" cy="441469.53" rx="1951.77" ry="1917.17"/>
   </g>
   <path class="fil0" d="M565738.31 134857.85c2436.6,10417.22 9017.65,9016.42 10147.17,2727.61 1092.53,-6084.11 1081.43,-15585.14 -1928.57,-22363.48 -21230.26,9434.44 -21222.86,29087.57 -8218.6,19635.86z"/>
   <path class="fil0" d="M476384.28 127104.12c4272.69,10149.64 -1616.59,12682.42 -6134.67,10238.42 -13550.52,-7335.7 -849.61,-29432.83 404.46,-33858.43 1880.48,1167.74 3117.27,4324.48 4784.42,5429.33 21131.61,14011.7 15147.39,38829.05 945.79,18190.67z"/>
   <path class="fil0" d="M424239 201356.4c4458.89,1535.21 16064.81,23358.59 22865.35,15068.47 7756.19,-9454.17 2194.92,-25961.66 -14337.24,-31243.02 -3336.77,-1067.86 -7371.46,-1812.66 -10238.42,-2968.07 -4810.32,-1939.66 -3886.73,-3415.68 -9599.67,-4677.14 -7149.51,16445.84 -4800.45,47950.28 15059.84,47455.81 15633.23,-139.34 1543.84,-13609.71 -3749.85,-23636.04z"/>
   <path class="fil0" d="M426526.4 229620.25c-2293.56,5984.23 -9926.45,14730.6 -8082.96,23665.63 1034.57,5015.01 4402.16,8716.78 6974.41,7307.34 4678.38,-2561.15 860.7,-16527.22 1828.69,-15417.43 485.84,557.36 1222,16982.24 9055.88,14407.53 10747.69,-3537.76 -966.75,-22632.29 -9776.01,-29963.07z"/>
   <path class="fil0" d="M314514.17 209620.62c22766.7,16226.35 21256.16,-9931.38 23.43,-10369.13 -3678.33,-75.22 -6394.85,1917.47 -9792.04,-147.97 -1832.38,5619.23 1929.8,15411.27 6320.86,19672.86 9382.65,9103.97 22878.91,1331.75 3447.74,-9155.76z"/>
   <path class="fil0" d="M402101.18 236611.92c4119.78,-1864.45 535.16,-8912.84 1241.73,-10726.73 1099.92,1943.36 9926.45,10219.92 10561.49,3029.72 731.23,-8276.56 -16971.14,-18586.5 -17142.54,-17214.06 -399.52,3224.55 -3022.33,9946.17 -2628.97,14149.81 551.2,5895.45 2035.85,10201.43 7968.28,10761.25z"/>
   <path class="fil0" d="M598702.74 217883.62c4740.03,1869.38 7123.61,-3198.66 10226.09,-6137.13 -4177.74,6378.82 -1312.02,14201.6 5393.57,9938.78 7717.97,-4906.5 3208.52,-25014.64 1890.34,-24239.02 -3095.08,1826.22 -10903.06,4285.02 -14243.52,7351.73 -4684.54,4301.05 -7285.15,8256.83 -3266.48,13085.64z"/>
   <path class="fil0" d="M518674.63 218336.17c3873.16,436.52 3055.62,-4677.14 4762.23,-7466.41 -1816.35,5544.01 3426.78,11645.38 7530.53,7163.07 4722.77,-5160.52 -2611.7,-19114.26 -3430.48,-18278.22 -1921.17,1965.56 -7200.06,5335.62 -9055.88,8265.46 -2603.07,4109.92 -3736.29,7550.26 193.6,10316.1z"/>
   <path class="fil0" d="M680394.3 217567.95c2513.06,2979.17 5435.5,-1297.22 8592.23,-2149.29 -5129.69,2778.17 -5516.88,10813.04 545.03,10378.99 6976.87,-501.87 11242.16,-15677.62 10073.18,-15633.23 -2747.34,106.05 -8896.81,-1074.03 -12259.47,-221.96 -4715.37,1196.11 -7902.93,2915.05 -6950.98,7625.48z"/>
   <path class="fil0" d="M406973.15 92827.68c5265.33,15095.6 12000.52,-209.63 3055.62,-9154.53 -1336.68,-1336.68 -2169.02,-3603.11 -3638.87,-5029.81 -8230.93,9089.17 -7498.47,15120.26 -6172.89,18015.57 1725.11,3764.65 5843.66,2305.89 6756.15,-3831.24z"/>
  </g>
 </g>
</svg>
