<?xml version="1.0" encoding="UTF-8"?>
<!DOCTYPE svg PUBLIC "-//W3C//DTD SVG 1.1//EN" "http://www.w3.org/Graphics/SVG/1.1/DTD/svg11.dtd">
<!-- Creator: CorelDRAW -->
<svg xmlns="http://www.w3.org/2000/svg" xml:space="preserve" width="89.7288mm" height="47.934mm" version="1.1" style="shape-rendering:geometricPrecision; text-rendering:geometricPrecision; image-rendering:optimizeQuality; fill-rule:evenodd; clip-rule:evenodd"
viewBox="0 0 4001.97 2137.89"
 xmlns:xlink="http://www.w3.org/1999/xlink"
 xmlns:xodm="http://www.corel.com/coreldraw/odm/2003">
 <defs>
  <style type="text/css">
   <![CDATA[
    .fil108 {fill:url(#id0)}
    .fil74 {fill:url(#id1)}
    .fil56 {fill:url(#id2)}
    .fil62 {fill:url(#id3)}
    .fil91 {fill:url(#id4)}
    .fil18 {fill:url(#id5)}
    .fil90 {fill:url(#id6)}
    .fil63 {fill:url(#id7)}
    .fil82 {fill:url(#id8)}
    .fil61 {fill:url(#id9)}
    .fil10 {fill:url(#id10)}
    .fil19 {fill:url(#id11)}
    .fil80 {fill:url(#id12)}
    .fil64 {fill:url(#id13)}
    .fil96 {fill:url(#id14)}
    .fil58 {fill:url(#id15)}
    .fil98 {fill:url(#id16)}
    .fil70 {fill:url(#id17)}
    .fil85 {fill:url(#id18)}
    .fil110 {fill:url(#id19)}
    .fil114 {fill:url(#id20)}
    .fil37 {fill:url(#id21)}
    .fil104 {fill:url(#id22)}
    .fil59 {fill:url(#id23)}
    .fil50 {fill:url(#id24)}
    .fil49 {fill:url(#id25)}
    .fil76 {fill:url(#id26)}
    .fil8 {fill:url(#id27)}
    .fil24 {fill:url(#id28)}
    .fil105 {fill:url(#id29)}
    .fil77 {fill:url(#id30)}
    .fil79 {fill:url(#id31)}
    .fil112 {fill:url(#id32)}
    .fil111 {fill:url(#id33)}
    .fil116 {fill:url(#id34)}
    .fil60 {fill:url(#id35)}
    .fil36 {fill:url(#id36)}
    .fil106 {fill:url(#id37)}
    .fil38 {fill:url(#id38)}
    .fil17 {fill:url(#id39)}
    .fil115 {fill:url(#id40)}
    .fil48 {fill:url(#id41)}
    .fil83 {fill:url(#id42)}
    .fil54 {fill:url(#id43)}
    .fil20 {fill:url(#id44)}
    .fil57 {fill:url(#id45)}
    .fil14 {fill:url(#id46)}
    .fil69 {fill:url(#id47)}
    .fil35 {fill:url(#id48)}
    .fil100 {fill:url(#id49)}
    .fil39 {fill:url(#id50)}
    .fil118 {fill:url(#id51)}
    .fil1 {fill:url(#id52)}
    .fil73 {fill:url(#id53)}
    .fil41 {fill:url(#id54)}
    .fil113 {fill:url(#id55)}
    .fil101 {fill:url(#id56)}
    .fil109 {fill:url(#id57)}
    .fil22 {fill:url(#id58)}
    .fil6 {fill:url(#id59)}
    .fil67 {fill:url(#id60)}
    .fil3 {fill:url(#id61)}
    .fil75 {fill:url(#id62)}
    .fil71 {fill:url(#id63)}
    .fil78 {fill:url(#id64)}
    .fil16 {fill:url(#id65)}
    .fil65 {fill:url(#id66)}
    .fil72 {fill:url(#id67)}
    .fil52 {fill:url(#id68)}
    .fil93 {fill:url(#id69)}
    .fil89 {fill:url(#id70)}
    .fil23 {fill:url(#id71)}
    .fil120 {fill:url(#id72)}
    .fil26 {fill:url(#id73)}
    .fil117 {fill:url(#id74)}
    .fil15 {fill:url(#id75)}
    .fil87 {fill:url(#id76)}
    .fil40 {fill:url(#id77)}
    .fil5 {fill:url(#id78)}
    .fil7 {fill:url(#id79)}
    .fil102 {fill:url(#id80)}
    .fil46 {fill:url(#id81)}
    .fil103 {fill:url(#id82)}
    .fil97 {fill:url(#id83)}
    .fil45 {fill:url(#id84)}
    .fil30 {fill:url(#id85)}
    .fil99 {fill:url(#id86)}
    .fil44 {fill:url(#id87)}
    .fil2 {fill:url(#id88)}
    .fil11 {fill:url(#id89)}
    .fil25 {fill:url(#id90)}
    .fil119 {fill:url(#id91)}
    .fil4 {fill:url(#id92)}
    .fil95 {fill:url(#id93)}
    .fil107 {fill:url(#id94)}
    .fil47 {fill:url(#id95)}
    .fil81 {fill:url(#id96)}
    .fil94 {fill:url(#id97)}
    .fil53 {fill:url(#id98)}
    .fil43 {fill:url(#id99)}
    .fil66 {fill:url(#id100)}
    .fil29 {fill:url(#id101)}
    .fil68 {fill:url(#id102)}
    .fil9 {fill:url(#id103)}
    .fil42 {fill:url(#id104)}
    .fil86 {fill:url(#id105)}
    .fil126 {fill:url(#id106)}
    .fil84 {fill:url(#id107)}
    .fil27 {fill:url(#id108)}
    .fil21 {fill:url(#id109)}
    .fil13 {fill:url(#id110)}
    .fil88 {fill:url(#id111)}
    .fil92 {fill:url(#id112)}
    .fil12 {fill:url(#id113)}
    .fil55 {fill:url(#id114)}
    .fil0 {fill:url(#id115)}
    .fil28 {fill:url(#id116)}
    .fil51 {fill:url(#id117)}
    .fil123 {fill:url(#id118)}
    .fil129 {fill:url(#id119)}
    .fil125 {fill:url(#id120)}
    .fil124 {fill:url(#id121)}
    .fil122 {fill:url(#id122)}
    .fil130 {fill:url(#id123)}
    .fil121 {fill:url(#id124)}
    .fil128 {fill:url(#id125)}
    .fil127 {fill:url(#id126)}
    .fil31 {fill:url(#id127);fill-rule:nonzero}
    .fil34 {fill:url(#id128);fill-rule:nonzero}
    .fil32 {fill:url(#id129);fill-rule:nonzero}
    .fil33 {fill:url(#id130);fill-rule:nonzero}
   ]]>
  </style>
  <linearGradient id="id0" gradientUnits="userSpaceOnUse" x1="1806.73" y1="2098.62" x2="1822.58" y2="2098.62">
   <stop offset="0" style="stop-opacity:1; stop-color:#DECF2F"/>
   <stop offset="0.101961" style="stop-opacity:1; stop-color:#FFF01C"/>
   <stop offset="0.2" style="stop-opacity:1; stop-color:#DECF2F"/>
   <stop offset="0.309804" style="stop-opacity:1; stop-color:#FFF01C"/>
   <stop offset="0.419608" style="stop-opacity:1; stop-color:#DECF2F"/>
   <stop offset="0.521569" style="stop-opacity:1; stop-color:#FFF01C"/>
   <stop offset="0.619608" style="stop-opacity:1; stop-color:#DECF2F"/>
   <stop offset="0.721569" style="stop-opacity:1; stop-color:#FFF01C"/>
   <stop offset="0.776471" style="stop-opacity:1; stop-color:#EFE025"/>
   <stop offset="0.819608" style="stop-opacity:1; stop-color:#DECF2F"/>
   <stop offset="0.909804" style="stop-opacity:1; stop-color:#FFF01C"/>
   <stop offset="1" style="stop-opacity:1; stop-color:#DECF2F"/>
  </linearGradient>
  <linearGradient id="id1" gradientUnits="userSpaceOnUse" xlink:href="#id0" x1="1193.31" y1="1943.45" x2="1209.17" y2="1943.45">
  </linearGradient>
  <linearGradient id="id2" gradientUnits="userSpaceOnUse" xlink:href="#id0" x1="918.99" y1="1974.44" x2="934.84" y2="1974.44">
  </linearGradient>
  <linearGradient id="id3" gradientUnits="userSpaceOnUse" xlink:href="#id0" x1="1177.71" y1="2117.31" x2="1193.57" y2="2117.31">
  </linearGradient>
  <linearGradient id="id4" gradientUnits="userSpaceOnUse" xlink:href="#id0" x1="1740.91" y1="1945.86" x2="1756.76" y2="1945.86">
  </linearGradient>
  <linearGradient id="id5" gradientUnits="userSpaceOnUse" xlink:href="#id0" x1="2367.33" y1="388.01" x2="2486.66" y2="388.01">
  </linearGradient>
  <linearGradient id="id6" gradientUnits="userSpaceOnUse" xlink:href="#id0" x1="1723.49" y1="1979.45" x2="1739.34" y2="1979.45">
  </linearGradient>
  <linearGradient id="id7" gradientUnits="userSpaceOnUse" xlink:href="#id0" x1="1213" y1="2116.27" x2="1228.86" y2="2116.27">
  </linearGradient>
  <linearGradient id="id8" gradientUnits="userSpaceOnUse" xlink:href="#id0" x1="1518.66" y1="2105.45" x2="1534.52" y2="2105.45">
  </linearGradient>
  <linearGradient id="id9" gradientUnits="userSpaceOnUse" xlink:href="#id0" x1="1146.16" y1="2118.37" x2="1162.01" y2="2118.37">
  </linearGradient>
  <linearGradient id="id10" gradientUnits="userSpaceOnUse" xlink:href="#id0" x1="2611.78" y1="701.69" x2="2774.22" y2="701.69">
  </linearGradient>
  <linearGradient id="id11" gradientUnits="userSpaceOnUse" xlink:href="#id0" x1="1848.78" y1="685.04" x2="1963.49" y2="685.04">
  </linearGradient>
  <linearGradient id="id12" gradientUnits="userSpaceOnUse" xlink:href="#id0" x1="1163.77" y1="1893.53" x2="1179.63" y2="1893.53">
  </linearGradient>
  <linearGradient id="id13" gradientUnits="userSpaceOnUse" xlink:href="#id0" x1="1245.63" y1="2116.27" x2="1261.48" y2="2116.27">
  </linearGradient>
  <linearGradient id="id14" gradientUnits="userSpaceOnUse" xlink:href="#id0" x1="1627.34" y1="1892.62" x2="1643.19" y2="1892.62">
  </linearGradient>
  <linearGradient id="id15" gradientUnits="userSpaceOnUse" xlink:href="#id0" x1="920.59" y1="2054.28" x2="936.44" y2="2054.28">
  </linearGradient>
  <linearGradient id="id16" gradientUnits="userSpaceOnUse" xlink:href="#id0" x1="1791.24" y1="1748.09" x2="1807.1" y2="1748.09">
  </linearGradient>
  <linearGradient id="id17" gradientUnits="userSpaceOnUse" xlink:href="#id0" x1="1170.32" y1="2046.4" x2="1186.18" y2="2046.4">
  </linearGradient>
  <linearGradient id="id18" gradientUnits="userSpaceOnUse" xlink:href="#id0" x1="1569.6" y1="2020.39" x2="1585.46" y2="2020.39">
  </linearGradient>
  <linearGradient id="id19" gradientUnits="userSpaceOnUse" xlink:href="#id0" x1="1883.52" y1="2101.15" x2="1899.38" y2="2101.15">
  </linearGradient>
  <linearGradient id="id20" gradientUnits="userSpaceOnUse" xlink:href="#id0" x1="1911.09" y1="1997.2" x2="1926.94" y2="1997.2">
  </linearGradient>
  <linearGradient id="id21" gradientUnits="userSpaceOnUse" xlink:href="#id0" x1="911.7" y1="2124.35" x2="927.56" y2="2124.35">
  </linearGradient>
  <linearGradient id="id22" gradientUnits="userSpaceOnUse" xlink:href="#id0" x1="1800.28" y1="2021.92" x2="1816.13" y2="2021.92">
  </linearGradient>
  <linearGradient id="id23" gradientUnits="userSpaceOnUse" xlink:href="#id0" x1="919.52" y1="2076.87" x2="935.38" y2="2076.87">
  </linearGradient>
  <linearGradient id="id24" gradientUnits="userSpaceOnUse" xlink:href="#id0" x1="1002.69" y1="1770.34" x2="1018.55" y2="1770.34">
  </linearGradient>
  <linearGradient id="id25" gradientUnits="userSpaceOnUse" xlink:href="#id0" x1="1033.99" y1="1790.72" x2="1049.85" y2="1790.72">
  </linearGradient>
  <linearGradient id="id26" gradientUnits="userSpaceOnUse" xlink:href="#id0" x1="1189.36" y1="1779.43" x2="1205.21" y2="1779.43">
  </linearGradient>
  <linearGradient id="id27" gradientUnits="userSpaceOnUse" xlink:href="#id0" x1="2236.97" y1="800.07" x2="2395.31" y2="800.07">
  </linearGradient>
  <linearGradient id="id28" gradientUnits="userSpaceOnUse" xlink:href="#id0" x1="2066.29" y1="476.41" x2="2172.83" y2="476.41">
  </linearGradient>
  <linearGradient id="id29" gradientUnits="userSpaceOnUse" xlink:href="#id0" x1="1807.37" y1="2051.71" x2="1823.23" y2="2051.71">
  </linearGradient>
  <linearGradient id="id30" gradientUnits="userSpaceOnUse" xlink:href="#id0" x1="1163.43" y1="1791.32" x2="1179.29" y2="1791.32">
  </linearGradient>
  <linearGradient id="id31" gradientUnits="userSpaceOnUse" xlink:href="#id0" x1="1163.43" y1="1857.11" x2="1179.29" y2="1857.11">
  </linearGradient>
  <linearGradient id="id32" gradientUnits="userSpaceOnUse" xlink:href="#id0" x1="1919.01" y1="2065.02" x2="1934.87" y2="2065.02">
  </linearGradient>
  <linearGradient id="id33" gradientUnits="userSpaceOnUse" xlink:href="#id0" x1="1908.04" y1="2099.88" x2="1923.89" y2="2099.88">
  </linearGradient>
  <linearGradient id="id34" gradientUnits="userSpaceOnUse" xlink:href="#id0" x1="1908.04" y1="1931.28" x2="1923.89" y2="1931.28">
  </linearGradient>
  <linearGradient id="id35" gradientUnits="userSpaceOnUse" xlink:href="#id0" x1="1115.78" y1="2118.37" x2="1131.63" y2="2118.37">
  </linearGradient>
  <linearGradient id="id36" gradientUnits="userSpaceOnUse" xlink:href="#id0" x1="875.33" y1="2124.35" x2="891.18" y2="2124.35">
  </linearGradient>
  <linearGradient id="id37" gradientUnits="userSpaceOnUse" xlink:href="#id0" x1="1757.04" y1="2101.15" x2="1772.89" y2="2101.15">
  </linearGradient>
  <linearGradient id="id38" gradientUnits="userSpaceOnUse" xlink:href="#id0" x1="949.95" y1="2114.88" x2="965.81" y2="2114.88">
  </linearGradient>
  <linearGradient id="id39" gradientUnits="userSpaceOnUse" xlink:href="#id0" x1="1459.48" y1="474.85" x2="1601.75" y2="474.85">
  </linearGradient>
  <linearGradient id="id40" gradientUnits="userSpaceOnUse" xlink:href="#id0" x1="1911.91" y1="1964.24" x2="1927.77" y2="1964.24">
  </linearGradient>
  <linearGradient id="id41" gradientUnits="userSpaceOnUse" xlink:href="#id0" x1="1056.14" y1="1813.17" x2="1072" y2="1813.17">
  </linearGradient>
  <linearGradient id="id42" gradientUnits="userSpaceOnUse" xlink:href="#id0" x1="1556.26" y1="2105.21" x2="1572.11" y2="2105.21">
  </linearGradient>
  <linearGradient id="id43" gradientUnits="userSpaceOnUse" xlink:href="#id0" x1="915.24" y1="1900.9" x2="931.1" y2="1900.9">
  </linearGradient>
  <linearGradient id="id44" gradientUnits="userSpaceOnUse" xlink:href="#id0" x1="1837.15" y1="1021.98" x2="1952.36" y2="1021.98">
  </linearGradient>
  <linearGradient id="id45" gradientUnits="userSpaceOnUse" xlink:href="#id0" x1="917.92" y1="2016.99" x2="933.77" y2="2016.99">
  </linearGradient>
  <linearGradient id="id46" gradientUnits="userSpaceOnUse" xlink:href="#id0" x1="2535.19" y1="896.16" x2="2688.56" y2="896.16">
  </linearGradient>
  <linearGradient id="id47" gradientUnits="userSpaceOnUse" xlink:href="#id0" x1="1168.72" y1="2074.77" x2="1184.57" y2="2074.77">
  </linearGradient>
  <linearGradient id="id48" gradientUnits="userSpaceOnUse" xlink:href="#id0" x1="844.44" y1="2130.1" x2="860.3" y2="2130.1">
  </linearGradient>
  <linearGradient id="id49" gradientUnits="userSpaceOnUse" xlink:href="#id0" x1="1797.05" y1="1846.34" x2="1812.91" y2="1846.34">
  </linearGradient>
  <linearGradient id="id50" gradientUnits="userSpaceOnUse" xlink:href="#id0" x1="985.71" y1="2111.22" x2="1001.56" y2="2111.22">
  </linearGradient>
  <linearGradient id="id51" gradientUnits="userSpaceOnUse" xlink:href="#id0" x1="1906.75" y1="1868.52" x2="1922.61" y2="1868.52">
  </linearGradient>
  <linearGradient id="id52" gradientUnits="userSpaceOnUse" xlink:href="#id0" x1="1254.54" y1="1256.37" x2="2884.11" y2="1256.37">
  </linearGradient>
  <linearGradient id="id53" gradientUnits="userSpaceOnUse" xlink:href="#id0" x1="1163.37" y1="1942.4" x2="1179.22" y2="1942.4">
  </linearGradient>
  <linearGradient id="id54" gradientUnits="userSpaceOnUse" xlink:href="#id0" x1="1048.21" y1="2066.01" x2="1064.06" y2="2066.01">
  </linearGradient>
  <linearGradient id="id55" gradientUnits="userSpaceOnUse" xlink:href="#id0" x1="1913.67" y1="2034.6" x2="1929.52" y2="2034.6">
  </linearGradient>
  <linearGradient id="id56" gradientUnits="userSpaceOnUse" xlink:href="#id0" x1="1801.57" y1="1900.22" x2="1817.42" y2="1900.22">
  </linearGradient>
  <linearGradient id="id57" gradientUnits="userSpaceOnUse" xlink:href="#id0" x1="1855.77" y1="2099.25" x2="1871.63" y2="2099.25">
  </linearGradient>
  <linearGradient id="id58" gradientUnits="userSpaceOnUse" xlink:href="#id0" x1="1271.7" y1="706.16" x2="1403.11" y2="706.16">
  </linearGradient>
  <linearGradient id="id59" gradientUnits="userSpaceOnUse" xlink:href="#id0" x1="1733.85" y1="270.03" x2="1895.86" y2="270.03">
  </linearGradient>
  <linearGradient id="id60" gradientUnits="userSpaceOnUse" xlink:href="#id0" x1="1316.84" y1="2077.92" x2="1332.69" y2="2077.92">
  </linearGradient>
  <linearGradient id="id61" gradientUnits="userSpaceOnUse" xlink:href="#id0" x1="-0" y1="1380.72" x2="619.22" y2="1380.72">
  </linearGradient>
  <linearGradient id="id62" gradientUnits="userSpaceOnUse" xlink:href="#id0" x1="1222.23" y1="1779.09" x2="1238.08" y2="1779.09">
  </linearGradient>
  <linearGradient id="id63" gradientUnits="userSpaceOnUse" xlink:href="#id0" x1="1167.65" y1="2013.84" x2="1183.5" y2="2013.84">
  </linearGradient>
  <linearGradient id="id64" gradientUnits="userSpaceOnUse" xlink:href="#id0" x1="1161.7" y1="1821.2" x2="1177.56" y2="1821.2">
  </linearGradient>
  <linearGradient id="id65" gradientUnits="userSpaceOnUse" xlink:href="#id0" x1="2095.98" y1="643.55" x2="2223.07" y2="643.55">
  </linearGradient>
  <linearGradient id="id66" gradientUnits="userSpaceOnUse" xlink:href="#id0" x1="1285.73" y1="2116.79" x2="1301.58" y2="2116.79">
  </linearGradient>
  <linearGradient id="id67" gradientUnits="userSpaceOnUse" xlink:href="#id0" x1="1163.9" y1="1977.07" x2="1179.76" y2="1977.07">
  </linearGradient>
  <linearGradient id="id68" gradientUnits="userSpaceOnUse" xlink:href="#id0" x1="912.03" y1="1822.02" x2="927.89" y2="1822.02">
  </linearGradient>
  <linearGradient id="id69" gradientUnits="userSpaceOnUse" xlink:href="#id0" x1="1549.25" y1="1782.32" x2="1565.11" y2="1782.32">
  </linearGradient>
  <linearGradient id="id70" gradientUnits="userSpaceOnUse" xlink:href="#id0" x1="1701.54" y1="2009.88" x2="1717.4" y2="2009.88">
  </linearGradient>
  <linearGradient id="id71" gradientUnits="userSpaceOnUse" xlink:href="#id0" x1="1392.07" y1="864.11" x2="1507.49" y2="864.11">
  </linearGradient>
  <linearGradient id="id72" gradientUnits="userSpaceOnUse" xlink:href="#id0" x1="1904.81" y1="1793.09" x2="1920.67" y2="1793.09">
  </linearGradient>
  <linearGradient id="id73" gradientUnits="userSpaceOnUse" xlink:href="#id0" x1="2829.57" y1="787.89" x2="2955.8" y2="787.89">
  </linearGradient>
  <linearGradient id="id74" gradientUnits="userSpaceOnUse" xlink:href="#id0" x1="1909.33" y1="1895.15" x2="1925.19" y2="1895.15">
  </linearGradient>
  <linearGradient id="id75" gradientUnits="userSpaceOnUse" xlink:href="#id0" x1="1265.3" y1="518.74" x2="1417.72" y2="518.74">
  </linearGradient>
  <linearGradient id="id76" gradientUnits="userSpaceOnUse" xlink:href="#id0" x1="1567.97" y1="1936.73" x2="1583.83" y2="1936.73">
  </linearGradient>
  <linearGradient id="id77" gradientUnits="userSpaceOnUse" xlink:href="#id0" x1="1022.4" y1="2095.64" x2="1038.25" y2="2095.64">
  </linearGradient>
  <linearGradient id="id78" gradientUnits="userSpaceOnUse" xlink:href="#id0" x1="2118.95" y1="259.37" x2="2304.82" y2="259.37">
  </linearGradient>
  <linearGradient id="id79" gradientUnits="userSpaceOnUse" xlink:href="#id0" x1="2432.44" y1="583.5" x2="2583.94" y2="583.5">
  </linearGradient>
  <linearGradient id="id80" gradientUnits="userSpaceOnUse" xlink:href="#id0" x1="1799.63" y1="1940.79" x2="1815.48" y2="1940.79">
  </linearGradient>
  <linearGradient id="id81" gradientUnits="userSpaceOnUse" xlink:href="#id0" x1="1076.18" y1="1882.24" x2="1092.03" y2="1882.24">
  </linearGradient>
  <linearGradient id="id82" gradientUnits="userSpaceOnUse" xlink:href="#id0" x1="1802.86" y1="1979.45" x2="1818.71" y2="1979.45">
  </linearGradient>
  <linearGradient id="id83" gradientUnits="userSpaceOnUse" xlink:href="#id0" x1="1644.3" y1="1920.47" x2="1660.15" y2="1920.47">
  </linearGradient>
  <linearGradient id="id84" gradientUnits="userSpaceOnUse" xlink:href="#id0" x1="1085.17" y1="1919.54" x2="1101.03" y2="1919.54">
  </linearGradient>
  <linearGradient id="id85" gradientUnits="userSpaceOnUse" xlink:href="#id0" x1="1153.99" y1="725.28" x2="1231.48" y2="725.28">
  </linearGradient>
  <linearGradient id="id86" gradientUnits="userSpaceOnUse" xlink:href="#id0" x1="1796.4" y1="1788.03" x2="1812.26" y2="1788.03">
  </linearGradient>
  <linearGradient id="id87" gradientUnits="userSpaceOnUse" xlink:href="#id0" x1="1083.03" y1="1960.63" x2="1098.88" y2="1960.63">
  </linearGradient>
  <linearGradient id="id88" gradientUnits="userSpaceOnUse" xlink:href="#id0" x1="395.63" y1="1398.94" x2="1941.2" y2="1398.94">
  </linearGradient>
  <linearGradient id="id89" gradientUnits="userSpaceOnUse" xlink:href="#id0" x1="2591.28" y1="469.62" x2="2764.56" y2="469.62">
  </linearGradient>
  <linearGradient id="id90" gradientUnits="userSpaceOnUse" xlink:href="#id0" x1="1969.49" y1="294.37" x2="2071.58" y2="294.37">
  </linearGradient>
  <linearGradient id="id91" gradientUnits="userSpaceOnUse" xlink:href="#id0" x1="1905.46" y1="1827.33" x2="1921.31" y2="1827.33">
  </linearGradient>
  <linearGradient id="id92" gradientUnits="userSpaceOnUse" xlink:href="#id0" x1="2409.55" y1="1536.22" x2="2540.97" y2="1536.22">
  </linearGradient>
  <linearGradient id="id93" gradientUnits="userSpaceOnUse" xlink:href="#id0" x1="1606.04" y1="1860.29" x2="1621.89" y2="1860.29">
  </linearGradient>
  <linearGradient id="id94" gradientUnits="userSpaceOnUse" xlink:href="#id0" x1="1781.56" y1="2101.15" x2="1797.42" y2="2101.15">
  </linearGradient>
  <linearGradient id="id95" gradientUnits="userSpaceOnUse" xlink:href="#id0" x1="1068.8" y1="1850.12" x2="1084.65" y2="1850.12">
  </linearGradient>
  <linearGradient id="id96" gradientUnits="userSpaceOnUse" xlink:href="#id0" x1="1476.22" y1="2106.16" x2="1492.07" y2="2106.16">
  </linearGradient>
  <linearGradient id="id97" gradientUnits="userSpaceOnUse" xlink:href="#id0" x1="1579.58" y1="1822.25" x2="1595.44" y2="1822.25">
  </linearGradient>
  <linearGradient id="id98" gradientUnits="userSpaceOnUse" xlink:href="#id0" x1="915.78" y1="1859.94" x2="931.63" y2="1859.94">
  </linearGradient>
  <linearGradient id="id99" gradientUnits="userSpaceOnUse" xlink:href="#id0" x1="1077.74" y1="1998.81" x2="1093.6" y2="1998.81">
  </linearGradient>
  <linearGradient id="id100" gradientUnits="userSpaceOnUse" xlink:href="#id0" x1="1312.03" y1="2106.28" x2="1327.88" y2="2106.28">
  </linearGradient>
  <linearGradient id="id101" gradientUnits="userSpaceOnUse" xlink:href="#id0" x1="1872.58" y1="878.09" x2="1954.52" y2="878.09">
  </linearGradient>
  <linearGradient id="id102" gradientUnits="userSpaceOnUse" xlink:href="#id0" x1="1313.1" y1="2047.98" x2="1328.95" y2="2047.98">
  </linearGradient>
  <linearGradient id="id103" gradientUnits="userSpaceOnUse" xlink:href="#id0" x1="1437.36" y1="685.67" x2="1607.75" y2="685.67">
  </linearGradient>
  <linearGradient id="id104" gradientUnits="userSpaceOnUse" xlink:href="#id0" x1="1061.26" y1="2037" x2="1077.12" y2="2037">
  </linearGradient>
  <linearGradient id="id105" gradientUnits="userSpaceOnUse" xlink:href="#id0" x1="1571.3" y1="1979.31" x2="1587.15" y2="1979.31">
  </linearGradient>
  <linearGradient id="id106" gradientUnits="userSpaceOnUse" xlink:href="#id0" x1="1600.66" y1="910.19" x2="1681.22" y2="910.19">
  </linearGradient>
  <linearGradient id="id107" gradientUnits="userSpaceOnUse" xlink:href="#id0" x1="1575.18" y1="2060.18" x2="1591.04" y2="2060.18">
  </linearGradient>
  <linearGradient id="id108" gradientUnits="userSpaceOnUse" xlink:href="#id0" x1="2293.78" y1="997.68" x2="2384.11" y2="997.68">
  </linearGradient>
  <linearGradient id="id109" gradientUnits="userSpaceOnUse" xlink:href="#id0" x1="2133.3" y1="1017.35" x2="2238.86" y2="1017.35">
  </linearGradient>
  <linearGradient id="id110" gradientUnits="userSpaceOnUse" xlink:href="#id0" x1="1937.91" y1="94.05" x2="2080.8" y2="94.05">
  </linearGradient>
  <linearGradient id="id111" gradientUnits="userSpaceOnUse" xlink:href="#id0" x1="1567.24" y1="1898.31" x2="1583.09" y2="1898.31">
  </linearGradient>
  <linearGradient id="id112" gradientUnits="userSpaceOnUse" xlink:href="#id0" x1="1528.61" y1="1750.63" x2="1544.46" y2="1750.63">
  </linearGradient>
  <linearGradient id="id113" gradientUnits="userSpaceOnUse" xlink:href="#id0" x1="1651.18" y1="537.29" x2="1817.03" y2="537.29">
  </linearGradient>
  <linearGradient id="id114" gradientUnits="userSpaceOnUse" xlink:href="#id0" x1="916.85" y1="1940.3" x2="932.7" y2="1940.3">
  </linearGradient>
  <linearGradient id="id115" gradientUnits="userSpaceOnUse" xlink:href="#id0" x1="2167.79" y1="1842.51" x2="4001.97" y2="1842.51">
  </linearGradient>
  <linearGradient id="id116" gradientUnits="userSpaceOnUse" xlink:href="#id0" x1="2793.72" y1="586.57" x2="2892.84" y2="586.57">
  </linearGradient>
  <linearGradient id="id117" gradientUnits="userSpaceOnUse" xlink:href="#id0" x1="913.64" y1="1787.88" x2="929.49" y2="1787.88">
  </linearGradient>
  <linearGradient id="id118" gradientUnits="userSpaceOnUse" xlink:href="#id0" x1="1660.89" y1="814.75" x2="1830.96" y2="825.12">
  </linearGradient>
  <linearGradient id="id119" gradientUnits="userSpaceOnUse" xlink:href="#id0" x1="2802.09" y1="850.95" x2="2812.25" y2="915.36">
  </linearGradient>
  <linearGradient id="id120" gradientUnits="userSpaceOnUse" xlink:href="#id0" x1="1309.69" y1="903.05" x2="1274.76" y2="796.56">
  </linearGradient>
  <linearGradient id="id121" gradientUnits="userSpaceOnUse" xlink:href="#id0" x1="1732.89" y1="1062.65" x2="1765.33" y2="941.46">
  </linearGradient>
  <linearGradient id="id122" gradientUnits="userSpaceOnUse" xlink:href="#id0" x1="1992.33" y1="520.15" x2="1887.9" y2="480.54">
  </linearGradient>
  <linearGradient id="id123" gradientUnits="userSpaceOnUse" xlink:href="#id0" x1="1626.77" y1="347.91" x2="1682.7" y2="394.25">
  </linearGradient>
  <linearGradient id="id124" gradientUnits="userSpaceOnUse" xlink:href="#id0" x1="2260.03" y1="531.07" x2="2342.47" y2="521.56">
  </linearGradient>
  <linearGradient id="id125" gradientUnits="userSpaceOnUse" xlink:href="#id0" x1="2112.18" y1="836.52" x2="2163.83" y2="876.32">
  </linearGradient>
  <linearGradient id="id126" gradientUnits="userSpaceOnUse" xlink:href="#id0" x1="2455.79" y1="823.37" x2="2507.43" y2="891.18">
  </linearGradient>
  <linearGradient id="id127" gradientUnits="userSpaceOnUse" xlink:href="#id0" x1="833.88" y1="1934.54" x2="1080.39" y2="1934.54">
  </linearGradient>
  <linearGradient id="id128" gradientUnits="userSpaceOnUse" xlink:href="#id0" x1="1829.67" y1="1917.67" x2="1927.48" y2="1917.67">
  </linearGradient>
  <linearGradient id="id129" gradientUnits="userSpaceOnUse" xlink:href="#id0" x1="1113.55" y1="1927.26" x2="1308.18" y2="1927.26">
  </linearGradient>
  <linearGradient id="id130" gradientUnits="userSpaceOnUse" xlink:href="#id0" x1="1481.09" y1="1920.47" x2="1823.35" y2="1920.47">
  </linearGradient>
 </defs>
 <g id="Capa_x0020_1">
  <metadata id="CorelCorpID_0Corel-Layer"/>
  <g id="_2642419345440">
   <path class="fil0" d="M3141.73 1804.87c-36.02,116.06 -324.84,304.62 -282.88,199.82 33.64,-84.01 263.68,-250.44 261.24,-334.64 -64.56,-51.79 -37.16,-54.5 -123.37,-10.73 -228.13,115.83 -115.2,-18.14 -136.21,-53.67 -19.2,-15.41 -41.11,-18.79 -62.34,-1.52 -22.57,18.36 -39.37,97.87 -45.26,129.54 -7.89,42.47 -1.7,46.06 10.75,75.35 -16.29,33 -139.26,168.26 -181.51,187.54 -37.23,17 -69.63,5.43 -70.34,-38.12 33.44,-22.05 112.82,-26.06 204.12,-169.79 28.94,-45.55 35.18,-90.72 1.05,-138.44 -36.74,-51.38 -66.24,-58.94 -124.7,-21.79 -67.02,42.59 -123.78,133.48 -160.14,215.97 -6.74,15.31 -153.64,178.26 -209.49,166.33 -4.99,-64.41 222.3,-266.05 214.29,-346.98 -19.63,-17.65 -40.45,-38.72 -77.7,-34.74 -52.12,54.71 -166.83,233.98 -188.73,320.47 -16.96,67 48.42,154.14 112.5,107.87 49.49,-35.73 113.12,-122.86 128.9,-127.11 2.55,71.27 33.61,143.82 110.96,137.09 79.67,-6.94 210.94,-177.93 254.66,-238.7 27.73,-38.54 28.13,-29.36 73.53,-52.29 28.05,-14.17 50.7,-34.13 84.52,-42.31 -9.42,66.66 -205.9,259.27 -94.33,345 49.25,37.84 73.73,11.14 110.48,-20.29 65.78,-56.26 109.7,-108.73 167.68,-174.12l71.57 -99.6c12.97,-11.37 102.5,-56.74 114.94,-57.7 -17.7,66.3 -174.28,230.93 -120.56,318.43 11.12,18.12 41.61,49.07 71.55,46.7 48.99,-3.88 169.99,-157.55 193.05,-164.07 0.46,34.9 4.94,53.54 24.91,76 87.2,98.05 148.48,-6.34 189.16,-30.29l3.6 5.51c10.38,18.58 11.85,29.2 30.88,48.37 53.48,53.9 125.26,-29.31 163.07,-77.4 26.48,-33.68 54.21,-70.05 76.9,-107.12 10.24,-16.72 24.46,-35.71 36.55,-54.48l25.9 -40.87c4.21,-15.39 -3.96,-41.69 -32.86,4.84 -8.92,14.37 -15.93,25.52 -26.1,40.52 -29.61,43.72 -78.39,109.47 -112.14,146.45 -18.67,20.45 -44.48,57.97 -74.7,61.5 1.51,-61.4 133.55,-271.62 7.72,-289.61l-67.9 178.07c-15.01,35.84 -79.48,118.25 -133.04,107.27 -40.74,-46.84 30.26,-176.6 51.85,-208.89 20.23,-30.24 38.86,-54.95 63.87,-77.79 34.56,-31.56 47.32,-41.44 105.75,-28.59 -3.49,-78.27 -55.87,-125.69 -147.7,-58.64 -76.8,56.08 -143.22,144.19 -173.15,235.47 -11.65,35.52 -34.88,52.47 -61.49,76.18 -109.39,97.45 -309.92,181.15 -48.99,-85.84 26.49,-27.11 136.99,-132.04 135.82,-181.15 -9.23,-12.88 -35.44,-40.48 -50.69,-43.18 -32.05,-5.69 -153.38,82.63 -204.25,71.73 -40,-8.57 15.92,-68.04 -8.64,-99.98 -9.79,-12.73 -35.4,-9.88 -47.97,-4.74 -41.78,17.09 -72.51,171.89 -51.59,198.68 0.07,0.09 5.85,5.48 6.5,6.04 0.73,0.63 1.77,1.35 2.51,1.96l7.98 6.44zm-627.79 124.72c51.16,-7.72 217.27,-181.87 126.4,-245.84 -42.17,11.08 -128.28,200.63 -126.4,245.84z"/>
   <path class="fil1" d="M1254.54 935.92c121.14,110.99 565.19,286.81 727.32,382.04l-6.36 793.47 162.3 -0.54 -25.3 -803.69c292.33,-122.75 501.9,-236.83 771.61,-385.15 -103.78,6.44 -721.84,238.48 -773.67,241.96 -7.59,-50.32 -78.64,-747.3 -86.34,-762.72 -5.07,8.91 -43.58,677.1 -52.73,767.67 -112.22,-40.19 -315.18,-122.2 -716.84,-233.06z"/>
   <g>
    <path class="fil2" d="M1109.2 1177.84l-107.13 2.26c6.33,46.08 47,54.44 81.57,71.16 -2.9,25.96 -54.63,139.3 -66.78,167.29 -16.04,36.96 -63.7,131.42 -98.69,143.17 3.75,-59.01 33.51,-111.76 15.38,-182.72 -10.12,-39.58 -65.96,-95.12 -114.2,-88.52l-64.05 137.49c-20.5,42.79 -37.41,109.89 -93.61,111.51 -2.25,-40.24 6.76,-45.09 -18.03,-72.89 -36.35,-6.14 -52.36,12.48 -61.79,37.01 -14.39,37.37 6.42,50.51 25.93,65.75 -3.54,20.84 -59.03,84.19 -77.18,97.69 -15.78,11.74 -52.03,20.34 -62.52,-3.51 -8.75,-19.89 2.09,-59.3 6.49,-76.98 11.19,-44.93 30.97,-87.69 54.53,-122.13 11.81,-17.25 25.11,-33.49 41.58,-47.02 24.7,-20.29 37.06,-16.8 71.79,-16.62 -0.5,-58.69 -44.07,-99.02 -97.75,-59.2 -34.87,25.86 -62.91,64.35 -90.32,103.67 -43.52,62.44 -108.6,230.11 3.25,266.71 70.47,23.06 134.05,-61.58 167.17,-110.9 33.04,-49.2 11.58,-17.06 58.41,-38.53 60.47,-27.71 62.78,-73.68 84.04,-106.02 12.29,-18.7 24.96,-36.73 39.32,-57.21 21.18,-30.2 25.08,-48.21 44.79,-55.14 24.99,17.98 12.86,102.97 9.71,128.56 -4.6,37.43 -9.14,90.27 -30.9,114.1 -52.11,1.38 -93.09,-19.16 -129.55,17.76 -71.27,72.17 113.78,186.57 186.99,29.95 10.5,-22.46 19.66,-30.62 45.63,-36.97 -2.15,32.01 -7.59,55.2 7.28,80.93 10.24,17.72 27.58,37.06 54.28,24.63 50.1,-23.32 125.59,-158.41 153.68,-209.38 12.23,-22.19 91.31,-68.88 108.86,-70.25 -20.61,59.54 -134.31,209.38 -81.9,282.6 42.74,59.71 78.72,10.83 111.37,-24.71 23.45,-25.52 82.36,-103.69 94.33,-107.77 2.5,51.3 19.65,143.06 91.42,123.53 65.02,-17.71 203.47,-239.29 249.57,-306.71 26.52,-38.79 32.28,-59.14 55.77,-62.29 20.85,65.16 0.41,188.47 -22.67,242.04 -24.17,1.44 -160.79,-30.55 -146.49,66.16 7.64,51.63 135.07,113.59 199.65,-17.7 29.89,-60.75 25.59,12.41 104.08,-119.78 10.41,-17.52 39.71,-61.12 24.29,-79.84 -21.27,9.44 -55.45,111.51 -97.51,127.84 -7.69,-18.35 62.61,-176.24 -24.35,-242.65 -90.6,-69.18 -81.59,-8.99 -129.03,88.55 -42.38,87.13 -72.17,135.08 -137.87,207.16 -13.74,15.07 -25.52,31.52 -44.51,40.26 -29.65,13.64 -46.58,-3.78 -47.36,-33.09 14.73,-10.84 45.37,-15.38 90.86,-66.82 62.77,-70.98 105.78,-136.01 47.95,-215.8 -55.45,-76.51 -145.19,67.88 -167.74,110.2 -41.42,77.73 -41.3,120.32 -127.9,191.76 -11.69,9.64 -79.41,67.53 -98.23,50.08 -19.64,-18.87 27.73,-69.22 41.78,-88.91 37.71,-52.87 89.5,-103 127.89,-162.9 30.32,-47.31 25.44,-58.15 -14.84,-92.68 -36.06,-1.23 -96.37,70.46 -159.66,63.59 -7.41,-26.96 14.88,-65.33 -2.05,-85.7 -13.56,-16.82 -35.22,-7.71 -45.9,7.55 -11.47,16.38 -29.3,98.87 -30.38,121.78 -1.81,38.54 16.73,38.21 4.17,61.87 -9.81,18.48 -97.15,157.61 -119.81,163.31 -55.21,13.9 57.21,-192.21 62.29,-202.46 16.11,-32.43 33.76,-63.3 46.85,-96.35 11.18,-28.23 28.89,-75.61 45.22,-99.11 48.01,-5.66 93.4,13.35 152.22,0.7 42.86,-9.22 78.99,-37.24 74.59,-85.89 -44.96,1.5 -152.71,15.25 -193.18,-1.13 -0.62,-0.97 -1.24,-3.72 -1.38,-3.17l-1.59 -26.95c1.65,-24.54 -0.96,-42.05 -10.66,-65.73 -7.14,-17.43 -9.19,-16.1 -22.46,-20.6 -10.18,29.32 -28,89.9 -45.03,114.08zm-287.88 433.46c-32.85,-23.51 -139.58,-21.11 -100.68,37.25 29.01,43.52 90.09,-1.58 100.68,-37.25zm814.76 -12.86c-8.17,82.11 95.4,53.22 105.45,-3.92 -12.16,-9.71 -33.77,-13.2 -54.93,-13.74 -27.9,-0.71 -35.2,5.79 -50.52,17.66zm-179.63 -19.27c51.61,-8.69 159.3,-177.71 90.3,-208.11 -36.17,21.62 -89.83,167.14 -90.3,208.11z"/>
    <path class="fil3" d="M48.44 1467.45c25.9,-59.4 27.12,-325.97 156.25,-433.03 154.9,-128.42 377.08,-21.08 290.7,145.07 -36.66,70.53 -176.44,164.57 -227.82,165.97 0.29,-17.77 39.83,-85.7 48.27,-142.53 4.97,-33.5 -1.94,-56.71 -16.61,-77.07 -14.71,-20.41 -32.1,-42.32 -56.91,-46.02 -18.27,81.29 -7.85,97.29 -52.13,200.27 -25.15,58.49 -55.15,113.04 -83.92,168.8 -78.38,151.97 -72.28,195.46 1.7,360.46 8.39,18.72 1.91,14.06 20.45,17.08 9.69,-20.52 -13.92,-60.74 2.35,-147.93 6.59,-35.3 24.12,-90.3 35.53,-124.9 36.26,-109.94 41.74,-124.82 160.13,-163.97 144.65,-47.83 346.02,-161.16 279.77,-345.21 -60.18,-167.2 -308.06,-121.27 -440.05,-6.17 -59.38,51.78 -188.71,234.23 -162.76,313.9 7.35,22.59 15.37,31.25 21.24,57.95 4.45,20.27 6.76,50.84 23.8,57.33z"/>
   </g>
   <path class="fil4" d="M2473.43 1479.85c-89.22,45.26 -82.13,150.75 3.52,110.54 107.78,-50.61 60.48,-143 -3.52,-110.54z"/>
   <path class="fil5" d="M2217.93 240.59c-7.94,45.25 -46.53,125.42 11.29,138.06 70.92,14.62 97.78,-97.69 55.22,-180.61l-11.55 -59.24c-38.29,9.85 -117.3,58.49 -139.4,108.2 -46.01,56.91 29.78,172.52 53.02,47.26 2.89,-15.53 18.89,-32.14 31.41,-53.66z"/>
   <path class="fil6" d="M1808.2 382.9l-14.27 -113.73c4.29,3.4 49.6,134.11 84.67,91.03 37.35,-45.9 8.75,-108.35 -34.91,-144.73 -12.12,-10.1 -35.71,-24.21 -54.85,-59.62 -51.56,56.54 -100.26,245.79 19.37,227.05z"/>
   <path class="fil7" d="M2501.6 581.52c7.5,36.55 -10.75,130.47 38.47,104.6 49.65,-26.11 50.42,-95.94 35.11,-141.72 -6.44,-19.26 -6.48,-49.69 -13,-67.95 -54.99,4.08 -149.54,74.77 -126.05,161.21 3.54,13.03 21.99,24.62 26.73,19.78 13.57,-13.88 29.28,-76.44 38.74,-75.91z"/>
   <path class="fil8" d="M2323.33 902.72c60.85,9.57 81.26,-63.62 68.22,-123.09 -4.43,-27.68 -18.13,-55.38 -13.29,-83.06 -21.36,1.33 -53.79,17.61 -71.04,28.55 -41.72,26.47 -88.45,79.13 -63.02,136.2 37.19,42.06 66.32,-83.83 72.35,-75.64 3.93,5.32 -43.34,109.16 6.78,117.05z"/>
   <path class="fil9" d="M1499.65 684.97c18.46,5.12 70.91,90.73 96.42,55.44 29.11,-40.25 2.48,-105.79 -65.84,-123.12 -13.79,-3.5 -30.34,-5.52 -42.24,-9.5 -19.99,-6.67 -16.6,-12.89 -40.08,-16.59 -24.92,68.44 -7.61,195.58 72.79,188.67 63.35,-4.42 2.89,-55.55 -21.05,-94.89z"/>
   <path class="fil10" d="M2688.33 700.5c-0.09,31.65 -17.65,90.21 10.59,101.52 50.85,20.35 89.33,-36.78 70.4,-121.07 -3.39,-15.11 -13.4,-28.34 -17.25,-42.05 -3.36,-12 2.38,-32.6 -1.42,-41.66 -37.58,1.55 -105.87,48.97 -127.61,92.61 -36.81,70.51 27.07,109.32 42.88,80.27 -3.08,-23.87 -3.24,-58.54 22.41,-69.61z"/>
   <path class="fil11" d="M2682.66 447.14c-141.34,104.08 17.67,146.24 61.81,20.43 7.64,-21.8 21.11,-32.59 20.04,-58.12 -29.94,-21.92 -95.72,-18.63 -129.73,-0.78 -72.65,38.16 -52.69,133.87 47.88,38.47z"/>
   <path class="fil12" d="M1749.17 629.12c20.4,-42.62 -40.48,-39.24 -40.21,-94.88 33.53,25.04 55.75,68.75 83.71,64.06 32.63,-5.47 41.1,-76.2 -29.62,-117.87 -36.59,-21.55 -61.21,-8.62 -100.45,-39.08 -11.9,35.32 -16.93,90.4 -3.01,131.9 12.22,36.44 44.32,72.33 89.59,55.88z"/>
   <path class="fil13" d="M2007.47 0c-72.74,54.84 -103.54,199.66 -17.03,187.37 18.3,-6.91 -2.95,-71.4 5.32,-69.88 15.06,55.71 49.12,85.32 69.02,55.77 54.06,-64.93 -45.11,-118.21 -57.32,-173.27z"/>
   <path class="fil14" d="M2617.73 873.44c-115.64,107.16 15.9,121.84 46.32,49.46 4.48,-10.66 24.63,-85.14 24.52,-95.81 -33.35,-6 -91.19,-1.05 -116.19,16.31 -34.32,8.74 -79.93,147.59 45.36,30.04z"/>
   <path class="fil15" d="M1314.66 511.6c17.07,9.04 55.24,53.85 83.3,47.46 30.51,-6.95 34.33,-81.56 -51.97,-103.2 -27.56,-0.06 -76.75,-17.7 -79.88,-18.03 -10.71,170.15 89.46,177.81 102.66,148.81 11.9,-26.12 -42.85,-51.02 -54.11,-75.05z"/>
   <path class="fil16" d="M2128.06 710.39c8.1,-9.71 4.38,-63.85 24.96,-73.28 0.24,35.69 -14.11,86.58 17.09,91.83 17.22,2.89 27.88,-2.56 37.67,-14.49 27.27,-33.21 12.21,-75.16 -0.43,-111.43 -6.95,-19.93 -4.2,-48.48 -12.51,-45.39 -20.26,4.32 -67.53,41.88 -80.5,59.48 -20.57,27.92 -32.97,91.64 13.71,93.28z"/>
   <path class="fil17" d="M1509.48 468.45c45.22,70.5 87.11,57.95 91.6,31.26 4.19,-24.94 -12.4,-43.46 -23.64,-55.75 -23.04,-25.19 -51.62,-27.71 -89.52,-40.11 -30.07,-9.85 -28.58,3.97 -28.36,35.94 0.34,50.18 16.52,115.46 78.59,108.7 29.53,-3.22 -0.83,-45.88 -28.67,-80.04z"/>
   <path class="fil18" d="M2466.15 359.46c-14.8,-19.58 -45.24,-49.59 -76.71,-53.74 1.12,25.55 -28.95,97.33 -20.65,129.27 4.67,18.02 20.57,35.65 42.65,35.31 29.82,-0.46 26.12,-30.44 23.43,-74.8 -1.62,82.18 91.99,59.16 31.29,-36.03z"/>
   <path class="fil19" d="M1893.35 703.48c20.89,3.22 29.54,61.21 60.72,38.82 37.28,-65.82 -46.13,-105.16 -76.19,-136.45 -30.23,41.86 -33.65,88.22 -24.91,119.9 6.24,22.63 18.69,38.52 32.03,38.47 34.4,-0.11 6.57,-61.01 8.35,-60.74z"/>
   <path class="fil20" d="M1878.53 1025.98c79.28,101.73 84.85,-3.87 62.34,-25.9 -12.86,-12.58 -76.89,-45.03 -92.67,-46.25 -20.65,41.59 -16.5,140.18 48.63,136.18 17.61,-1.08 -12.22,-46.72 -18.3,-64.04z"/>
   <path class="fil21" d="M2178.78 1017.06c-8.75,50.77 1.88,81.94 34.24,69.16 58.05,-16.38 -1.97,-114.04 12.58,-140.62 -33.01,1.71 -70.72,37.83 -84.52,63.27 -21.67,39.95 5.55,116.84 37.71,8.19z"/>
   <path class="fil22" d="M1335 714.36c61.1,12.62 70.09,11.42 67.8,-10.95 -7.51,-73.46 -85.21,-39.75 -130.63,-50.76 -3.33,20.85 12.39,42.04 19.03,54.99 13.68,26.71 23.38,51.63 61.43,52.03 27.48,0.29 41.12,-33.19 -17.63,-45.31z"/>
   <path class="fil23" d="M1441.71 883.71c30.73,31.12 62.53,32.92 65.3,5.96 4.63,-44.95 -24.85,-59.29 -57.85,-72.41 -15.02,-5.97 -34.61,-7.99 -46.21,-20.64 -11.55,27.97 -20.68,80.36 9.75,124.63 39.46,27.59 69.25,-5.21 29.01,-37.55z"/>
   <path class="fil24" d="M2129.65 481.74c-25.05,29.45 -24.24,63.77 -3.55,60.99 62.04,-8.34 43.82,-114.19 45.43,-132.8 -8.82,1.72 -17.93,12.63 -25.99,13.72 -103.13,14.03 -102.57,154.65 -15.89,58.08z"/>
   <path class="fil25" d="M2012.34 318.3c13.42,10.82 27.4,53.95 46.22,34.16 24.96,-18.14 12.59,-68.11 -25.15,-96.71 -13.59,-10.3 -16.73,-28.54 -23.31,-30.06 -96.77,82.54 10.94,203.87 2.24,92.6z"/>
   <path class="fil26" d="M2955.8 745.76c-25.89,-2.72 -68.62,-21.56 -101.74,-4.93 -18.59,9.33 -30.02,38.33 -21.79,46.93 14.98,15.67 58.81,-25.36 57.54,-15.41 -1.51,11.76 -53.8,30.4 -35.44,58.44 25.18,38.46 89.33,-32.68 101.43,-85.02z"/>
   <path class="fil27" d="M2345.13 1056.32c60.05,0.8 32.41,-77.38 33.87,-117.3 -32.31,6.66 -64.89,28.64 -76.81,49.15 -6.55,11.26 -14.43,37.69 -1.39,50.11 12.46,11.86 28.67,-35.51 31.66,-36.45 -2.89,13.94 -8.62,54.2 12.66,54.49z"/>
   <path class="fil28" d="M2891.4 555.69c-130.26,-44.42 -115.43,72.95 -41.78,24.26 -110.07,72.57 60.35,60.75 41.78,-24.26z"/>
   <path class="fil29" d="M1911.8 929.79c16.73,-7.57 3.84,-35.41 -0.73,-44.47 3.56,6.3 29.71,28.38 40.2,24.13 16.6,-53.94 -34.61,-61.11 -61.24,-83.06 -20.27,0.22 -18.17,39.7 -16.38,58.78 2.24,23.95 14.04,42.34 38.14,44.61z"/>
   <path class="fil30" d="M1192.22 734.96c63.59,38.22 42.7,-28.68 -11.34,-50.49 -8.15,-3.29 -17.06,-5.55 -26.55,-6.28 -5.77,130.93 64.29,100.29 37.89,56.76z"/>
   <g>
    <path class="fil31" d="M854 1756.09c-6.88,0 -20.49,0.57 -20.11,10.24 0.36,8.98 17.03,7.16 24.64,10.48 14.17,6.18 8.43,282.48 8.59,315.43 0.13,3.5 -28.57,-3.4 -28.57,9.08 0,13.48 8.51,10.36 15.45,10.36 73.02,0 80.6,9.12 147.15,-20.55 66.38,-29.59 80.75,-114.12 79.12,-158.09 -3.6,-96.99 -70.92,-176.95 -135.16,-176.95l-91.11 0zm57.96 15.59c0.29,-14.06 114.63,2.78 114.63,167.85 0,77.4 -2.37,151.91 -93.04,156.55l-16.29 0.83c0,0 -5.95,-293.45 -5.3,-325.23z"/>
    <path class="fil32" d="M1160.1 1930.6l53.85 0c24.24,0 14.91,16.58 27.03,16.58 14.27,0 9.89,-16.68 9.89,-30.16 0,-12.48 -0.18,-25.39 -12.66,-25.39 -12.12,0 1.02,21.68 -24.25,21.68l-53.85 0 0 -104.61c0,-5.74 -1.11,-26.57 0.51,-38.07 0.83,-5.9 104.19,-1.2 120.75,0.26 -2.67,25.06 7.74,33.76 14.81,32.73 8.84,-1.29 5.21,-15.79 5.66,-23.35 0.48,-8.13 1.16,-16.53 -1.7,-21.51 -2.87,-4.98 -8.92,-5.99 -19.62,-5.99l-142.45 0c-10.71,2.05 -16.09,5.49 -19.68,12.51 -7.43,14.54 -4.21,37.6 -3.71,47.41l0.74 33.28 0 208.9 0.38 46.87 191.8 -2.02c0,0 3.43,-52.99 -6.29,-53.87 -12.43,-1.12 -15.49,17.64 -19.25,29.2 -0.12,0.39 -3.04,5.34 -14.41,8.96 -11.2,3.58 -30.89,5.67 -35.31,5.64l-60.97 -0.4c-19.93,-0.12 -11.28,-140.73 -11.28,-158.67z"/>
    <path class="fil33" d="M1804.97 2076.51c2.96,4.21 10.7,2.76 15.53,5.89 4.69,3.04 3.3,7.73 -1.9,7.89l-49.13 1.51c-4.9,0.14 -5.74,-3.4 -4.46,-7.19 2.95,-8.77 15.55,-0.99 16.49,-8.23 1.02,-7.8 0.23,-23.72 0.23,-37.25 0,-60.15 -2.49,-84.27 -5.57,-156.45 -40.3,63.47 -85.98,151.58 -102.84,127.03l-111.47 -162.23c-2.3,67.86 1.15,114.26 1.15,187.89 0,49.56 18.56,43.49 20.12,49.67 3.19,12.61 -3.42,11.44 -11.85,11.44l-72.93 0c-8.43,0 -17.24,2.8 -17.24,-10.2 0,-20.22 17.35,5.77 18.77,-50.92l5.75 -230.03 1.12 -55.98c13.51,-1.19 131.54,195.11 154.84,216.6 39.94,-73.92 79.87,-147.82 119.81,-221.74 25.53,12.57 5.24,306.18 23.57,332.3z"/>
    <path class="fil34" d="M1861.18 2031.47c0.5,16.61 -0.69,37.3 -7.78,42.76 -9.53,7.34 -10.5,17.71 -0.07,17.71l52.83 0c16,0 18.73,-7.05 4.73,-19.61 -5.83,-5.23 -5.84,-26.1 -5.84,-40.86l0 -227.59c0,-16.66 0.47,-30.11 9.18,-37.57 7.52,-6.43 29.51,-22.9 -8.07,-22.9l-52.83 0c-23.57,0 -36.33,11.08 -5.28,25.75 6.33,2.99 5.85,16.17 6.4,34.71l6.73 227.59z"/>
    <ellipse class="fil35" cx="852.37" cy="2130.1" rx="7.93" ry="7.79"/>
    <ellipse class="fil36" cx="883.25" cy="2124.35" rx="7.93" ry="7.79"/>
    <ellipse class="fil37" cx="919.63" cy="2124.35" rx="7.93" ry="7.79"/>
    <ellipse class="fil38" cx="957.88" cy="2114.88" rx="7.93" ry="7.79"/>
    <ellipse class="fil39" cx="993.63" cy="2111.22" rx="7.93" ry="7.79"/>
    <ellipse class="fil40" cx="1030.33" cy="2095.64" rx="7.93" ry="7.79"/>
    <ellipse class="fil41" cx="1056.13" cy="2066.01" rx="7.93" ry="7.79"/>
    <ellipse class="fil42" cx="1069.19" cy="2037" rx="7.93" ry="7.79"/>
    <ellipse class="fil43" cx="1085.67" cy="1998.81" rx="7.93" ry="7.79"/>
    <ellipse class="fil44" cx="1090.96" cy="1960.63" rx="7.93" ry="7.79"/>
    <ellipse class="fil45" cx="1093.1" cy="1919.54" rx="7.93" ry="7.79"/>
    <ellipse class="fil46" cx="1084.11" cy="1882.24" rx="7.93" ry="7.79"/>
    <ellipse class="fil47" cx="1076.73" cy="1850.12" rx="7.93" ry="7.79"/>
    <ellipse class="fil48" cx="1064.07" cy="1813.17" rx="7.93" ry="7.79"/>
    <ellipse class="fil49" cx="1041.92" cy="1790.72" rx="7.93" ry="7.79"/>
    <ellipse class="fil50" cx="1010.62" cy="1770.34" rx="7.93" ry="7.79"/>
    <ellipse class="fil51" cx="921.57" cy="1787.87" rx="7.93" ry="7.79"/>
    <ellipse class="fil52" cx="919.96" cy="1822.02" rx="7.93" ry="7.79"/>
    <ellipse class="fil53" cx="923.71" cy="1859.93" rx="7.93" ry="7.79"/>
    <ellipse class="fil54" cx="923.17" cy="1900.9" rx="7.93" ry="7.79"/>
    <ellipse class="fil55" cx="924.77" cy="1940.3" rx="7.93" ry="7.79"/>
    <ellipse class="fil56" cx="926.91" cy="1974.44" rx="7.93" ry="7.79"/>
    <ellipse class="fil57" cx="925.85" cy="2016.99" rx="7.93" ry="7.79"/>
    <ellipse class="fil58" cx="928.52" cy="2054.28" rx="7.93" ry="7.79"/>
    <ellipse class="fil59" cx="927.45" cy="2076.87" rx="7.93" ry="7.79"/>
    <ellipse class="fil60" cx="1123.7" cy="2118.37" rx="7.93" ry="7.79"/>
    <ellipse class="fil61" cx="1154.09" cy="2118.37" rx="7.93" ry="7.79"/>
    <ellipse class="fil62" cx="1185.64" cy="2117.32" rx="7.93" ry="7.79"/>
    <ellipse class="fil63" cx="1220.93" cy="2116.27" rx="7.93" ry="7.79"/>
    <ellipse class="fil64" cx="1253.55" cy="2116.27" rx="7.93" ry="7.79"/>
    <ellipse class="fil65" cx="1293.66" cy="2116.79" rx="7.93" ry="7.79"/>
    <ellipse class="fil66" cx="1319.96" cy="2106.29" rx="7.93" ry="7.79"/>
    <ellipse class="fil67" cx="1324.77" cy="2077.92" rx="7.93" ry="7.79"/>
    <ellipse class="fil68" cx="1321.03" cy="2047.98" rx="7.93" ry="7.79"/>
    <ellipse class="fil69" cx="1176.64" cy="2074.77" rx="7.93" ry="7.79"/>
    <ellipse class="fil70" cx="1178.25" cy="2046.41" rx="7.93" ry="7.79"/>
    <ellipse class="fil71" cx="1175.57" cy="2013.84" rx="7.93" ry="7.79"/>
    <ellipse class="fil72" cx="1171.83" cy="1977.07" rx="7.93" ry="7.79"/>
    <ellipse class="fil73" cx="1171.3" cy="1942.4" rx="7.93" ry="7.79"/>
    <ellipse class="fil74" cx="1201.24" cy="1943.45" rx="7.93" ry="7.79"/>
    <ellipse class="fil75" cx="1230.15" cy="1779.09" rx="7.93" ry="7.79"/>
    <ellipse class="fil76" cx="1197.29" cy="1779.44" rx="7.93" ry="7.79"/>
    <ellipse class="fil77" cx="1171.36" cy="1791.32" rx="7.93" ry="7.79"/>
    <ellipse class="fil78" cx="1169.63" cy="1821.2" rx="7.93" ry="7.79"/>
    <ellipse class="fil79" cx="1171.36" cy="1857.11" rx="7.93" ry="7.79"/>
    <ellipse class="fil80" cx="1171.7" cy="1893.53" rx="7.93" ry="7.79"/>
    <ellipse class="fil81" cx="1484.14" cy="2106.17" rx="7.93" ry="7.79"/>
    <ellipse class="fil82" cx="1526.59" cy="2105.45" rx="7.93" ry="7.79"/>
    <ellipse class="fil83" cx="1564.19" cy="2105.21" rx="7.93" ry="7.79"/>
    <ellipse class="fil84" cx="1583.11" cy="2060.18" rx="7.93" ry="7.79"/>
    <ellipse class="fil85" cx="1577.53" cy="2020.39" rx="7.93" ry="7.79"/>
    <ellipse class="fil86" cx="1579.22" cy="1979.31" rx="7.93" ry="7.79"/>
    <ellipse class="fil87" cx="1575.9" cy="1936.72" rx="7.93" ry="7.79"/>
    <ellipse class="fil88" cx="1575.16" cy="1898.31" rx="7.93" ry="7.79"/>
    <ellipse class="fil89" cx="1709.47" cy="2009.88" rx="7.93" ry="7.79"/>
    <ellipse class="fil90" cx="1731.41" cy="1979.45" rx="7.93" ry="7.79"/>
    <ellipse class="fil91" cx="1748.84" cy="1945.86" rx="7.93" ry="7.79"/>
    <ellipse class="fil92" cx="1536.53" cy="1750.63" rx="7.93" ry="7.79"/>
    <ellipse class="fil93" cx="1557.18" cy="1782.32" rx="7.93" ry="7.79"/>
    <ellipse class="fil94" cx="1587.51" cy="1822.25" rx="7.93" ry="7.79"/>
    <ellipse class="fil95" cx="1613.97" cy="1860.29" rx="7.93" ry="7.79"/>
    <ellipse class="fil96" cx="1635.26" cy="1892.61" rx="7.93" ry="7.79"/>
    <ellipse class="fil97" cx="1652.22" cy="1920.47" rx="7.93" ry="7.79"/>
    <ellipse class="fil98" cx="1799.17" cy="1748.09" rx="7.93" ry="7.79"/>
    <ellipse class="fil99" cx="1804.33" cy="1788.03" rx="7.93" ry="7.79"/>
    <ellipse class="fil100" cx="1804.98" cy="1846.34" rx="7.93" ry="7.79"/>
    <ellipse class="fil101" cx="1809.5" cy="1900.22" rx="7.93" ry="7.79"/>
    <ellipse class="fil102" cx="1807.56" cy="1940.79" rx="7.93" ry="7.79"/>
    <ellipse class="fil103" cx="1810.79" cy="1979.45" rx="7.93" ry="7.79"/>
    <ellipse class="fil104" cx="1808.2" cy="2021.92" rx="7.93" ry="7.79"/>
    <ellipse class="fil105" cx="1815.3" cy="2051.71" rx="7.93" ry="7.79"/>
    <ellipse class="fil106" cx="1764.97" cy="2101.15" rx="7.93" ry="7.79"/>
    <ellipse class="fil107" cx="1789.49" cy="2101.15" rx="7.93" ry="7.79"/>
    <ellipse class="fil108" cx="1814.66" cy="2098.62" rx="7.93" ry="7.79"/>
    <ellipse class="fil109" cx="1863.7" cy="2099.25" rx="7.93" ry="7.79"/>
    <ellipse class="fil110" cx="1891.45" cy="2101.15" rx="7.93" ry="7.79"/>
    <ellipse class="fil111" cx="1915.97" cy="2099.88" rx="7.93" ry="7.79"/>
    <ellipse class="fil112" cx="1926.94" cy="2065.02" rx="7.93" ry="7.79"/>
    <ellipse class="fil113" cx="1921.59" cy="2034.6" rx="7.93" ry="7.79"/>
    <ellipse class="fil114" cx="1919.01" cy="1997.2" rx="7.93" ry="7.79"/>
    <ellipse class="fil115" cx="1919.84" cy="1964.24" rx="7.93" ry="7.79"/>
    <ellipse class="fil116" cx="1915.97" cy="1931.28" rx="7.93" ry="7.79"/>
    <ellipse class="fil117" cx="1917.26" cy="1895.15" rx="7.93" ry="7.79"/>
    <ellipse class="fil118" cx="1914.68" cy="1868.53" rx="7.93" ry="7.79"/>
    <ellipse class="fil119" cx="1913.39" cy="1827.32" rx="7.93" ry="7.79"/>
    <ellipse class="fil120" cx="1912.74" cy="1793.1" rx="7.93" ry="7.79"/>
   </g>
   <path class="fil121" d="M2297.83 547.75c9.9,42.31 36.63,36.63 41.21,11.08 4.44,-24.71 4.4,-63.3 -7.83,-90.83 -86.23,38.32 -86.2,118.14 -33.38,79.75z"/>
   <path class="fil122" d="M1934.91 516.25c17.35,41.22 -6.57,51.51 -24.92,41.59 -55.04,-29.8 -3.45,-119.55 1.64,-137.52 7.64,4.74 12.66,17.56 19.43,22.05 85.83,56.91 61.52,157.71 3.84,73.89z"/>
   <path class="fil123" d="M1723.11 817.84c18.11,6.24 65.25,94.87 92.87,61.21 31.51,-38.4 8.92,-105.44 -58.23,-126.9 -13.55,-4.34 -29.94,-7.36 -41.59,-12.06 -19.54,-7.87 -15.79,-13.87 -38.99,-19 -29.04,66.8 -19.5,194.76 61.17,192.75 63.5,-0.57 6.27,-55.28 -15.23,-96z"/>
   <path class="fil124" d="M1732.4 932.64c-9.31,24.3 -40.31,59.83 -32.83,96.12 4.2,20.37 17.88,35.4 28.33,29.68 19,-10.41 3.5,-67.13 7.43,-62.62 1.97,2.27 4.96,68.98 36.78,58.52 43.66,-14.37 -3.92,-91.92 -39.71,-121.7z"/>
   <path class="fil125" d="M1277.44 851.41c92.47,65.9 86.34,-40.34 0.1,-42.12 -14.94,-0.3 -25.98,7.79 -39.77,-0.6 -7.44,22.83 7.84,62.6 25.68,79.91 38.11,36.98 92.92,5.41 14,-37.18z"/>
   <path class="fil126" d="M1633.19 961.04c16.73,-7.57 2.18,-36.2 5.04,-43.57 4.47,7.89 40.32,41.51 42.9,12.31 2.97,-33.62 -68.93,-75.49 -69.63,-69.92 -1.62,13.09 -12.27,40.39 -10.68,57.47 2.24,23.94 8.27,41.43 32.36,43.71z"/>
   <path class="fil127" d="M2431.72 884.97c19.25,7.59 28.93,-12.99 41.54,-24.93 -16.98,25.91 -5.33,57.68 21.9,40.37 31.35,-19.93 13.03,-101.6 7.68,-98.45 -12.57,7.42 -44.28,17.4 -57.85,29.86 -19.03,17.47 -29.6,33.54 -13.27,53.15z"/>
   <path class="fil128" d="M2106.67 886.81c15.73,1.77 12.41,-19 19.34,-30.33 -7.38,22.52 13.92,47.3 30.59,29.09 19.18,-20.96 -10.61,-77.64 -13.93,-74.24 -7.81,7.99 -29.24,21.68 -36.78,33.58 -10.57,16.69 -15.18,30.66 0.78,41.9z"/>
   <path class="fil129" d="M2763.52 883.69c10.21,12.1 22.08,-5.27 34.9,-8.73 -20.84,11.28 -22.41,43.92 2.22,42.16 28.34,-2.04 45.66,-63.68 40.91,-63.5 -11.15,0.44 -36.14,-4.36 -49.79,-0.9 -19.15,4.86 -32.1,11.84 -28.23,30.98z"/>
   <path class="fil130" d="M1652.98 377.03c21.39,61.32 48.74,-0.85 12.41,-37.18 -5.43,-5.43 -8.81,-14.64 -14.78,-20.43 -33.43,36.92 -30.46,61.42 -25.07,73.17 7,15.29 23.74,9.37 27.44,-15.56z"/>
  </g>
 </g>
</svg>
