<?xml version="1.0" encoding="UTF-8"?>
<!DOCTYPE svg PUBLIC "-//W3C//DTD SVG 1.1//EN" "http://www.w3.org/Graphics/SVG/1.1/DTD/svg11.dtd">
<!-- Creator: CorelDRAW -->
<svg xmlns="http://www.w3.org/2000/svg" xml:space="preserve" width="79.9048mm" height="42.6859mm" version="1.1" style="shape-rendering:geometricPrecision; text-rendering:geometricPrecision; image-rendering:optimizeQuality; fill-rule:evenodd; clip-rule:evenodd"
viewBox="0 0 3359.21 1794.52"
 xmlns:xlink="http://www.w3.org/1999/xlink"
 xmlns:xodm="http://www.corel.com/coreldraw/odm/2003">
 <defs>
  <style type="text/css">
   <![CDATA[
    .fil0 {fill:#3E1406}
    .fil1 {fill:#3E1406;fill-rule:nonzero}
   ]]>
  </style>
 </defs>
 <g id="Capa_x0020_1">
  <metadata id="CorelCorpID_0Corel-Layer"/>
  <g id="_2642422729664">
   <path class="fil0" d="M2637.14 1514.99c-30.24,97.42 -272.66,255.7 -237.44,167.72 28.23,-70.52 221.32,-210.22 219.28,-280.9 -54.19,-43.47 -31.19,-45.74 -103.55,-9 -191.49,97.23 -96.7,-15.23 -114.33,-45.05 -16.11,-12.93 -34.51,-15.77 -52.33,-1.27 -18.94,15.41 -33.05,82.15 -37.99,108.74 -6.62,35.65 -1.43,38.66 9.02,63.25 -13.67,27.7 -116.89,141.24 -152.35,157.42 -31.25,14.27 -58.45,4.56 -59.05,-32 28.07,-18.51 94.7,-21.88 171.34,-142.52 24.29,-38.24 29.52,-76.15 0.88,-116.2 -30.84,-43.12 -55.6,-49.48 -104.67,-18.29 -56.25,35.76 -103.91,112.05 -134.42,181.29 -5.66,12.85 -128.96,149.63 -175.85,139.62 -4.19,-54.06 186.6,-223.32 179.88,-291.25 -16.48,-14.82 -33.95,-32.51 -65.22,-29.16 -43.76,45.92 -140.04,196.4 -158.42,269 -14.23,56.24 40.64,129.39 94.43,90.55 41.54,-29.99 94.96,-103.13 108.2,-106.69 2.14,59.83 28.21,120.73 93.14,115.07 66.87,-5.83 177.06,-149.35 213.76,-200.36 23.27,-32.35 23.61,-24.64 61.72,-43.89 23.55,-11.89 42.56,-28.65 70.95,-35.52 -7.9,55.95 -172.84,217.63 -79.19,289.59 41.35,31.77 61.89,9.35 92.73,-17.03 55.21,-47.22 92.08,-91.26 140.75,-146.15l60.08 -83.61c10.89,-9.54 86.03,-47.63 96.47,-48.44 -14.86,55.65 -146.29,193.84 -101.2,267.29 9.34,15.21 34.92,41.19 60.06,39.2 41.12,-3.25 142.69,-132.25 162.05,-137.72 0.39,29.3 4.15,44.95 20.91,63.8 73.19,82.3 124.63,-5.32 158.77,-25.43l3.03 4.62c8.71,15.59 9.94,24.51 25.92,40.6 44.89,45.24 105.14,-24.6 136.88,-64.97 22.23,-28.27 45.5,-58.8 64.55,-89.92 8.59,-14.03 20.53,-29.97 30.69,-45.73l21.74 -34.3c3.54,-12.92 -3.32,-35 -27.58,4.06 -7.49,12.06 -13.37,21.42 -21.9,34.01 -24.85,36.7 -65.8,91.89 -94.13,122.93 -15.67,17.17 -37.34,48.66 -62.7,51.63 1.27,-51.54 112.1,-227.99 6.48,-243.09l-57 149.47c-12.6,30.08 -66.71,99.25 -111.68,90.05 -34.2,-39.32 25.4,-148.24 43.52,-175.34 16.98,-25.38 32.62,-46.12 53.61,-65.3 29.01,-26.49 39.72,-34.78 88.77,-24 -2.93,-65.69 -46.9,-105.5 -123.98,-49.22 -64.46,47.07 -120.21,121.03 -145.34,197.65 -9.78,29.82 -29.28,44.05 -51.62,63.95 -91.82,81.8 -260.14,152.05 -41.12,-72.05 22.24,-22.76 114.99,-110.84 114.01,-152.06 -7.74,-10.82 -29.75,-33.98 -42.54,-36.25 -26.91,-4.78 -128.74,69.36 -171.44,60.21 -33.58,-7.19 13.36,-57.12 -7.26,-83.92 -8.22,-10.69 -29.71,-8.29 -40.26,-3.98 -35.07,14.34 -60.87,144.28 -43.3,166.77 0.05,0.08 4.91,4.6 5.45,5.07 0.61,0.53 1.48,1.13 2.1,1.64l6.7 5.41zm-526.97 104.69c42.94,-6.47 182.37,-152.66 106.1,-206.36 -35.4,9.3 -107.68,168.41 -106.1,206.36z"/>
   <path class="fil0" d="M1053.05 785.6c101.69,93.17 474.42,240.75 610.51,320.68l-5.34 666.03 136.24 -0.45 -21.24 -674.61c245.38,-103.03 421.28,-198.8 647.68,-323.29 -87.11,5.4 -605.9,200.18 -649.41,203.1 -6.36,-42.24 -66.01,-627.28 -72.47,-640.22 -4.26,7.47 -36.58,568.35 -44.26,644.38 -94.2,-33.73 -264.56,-102.57 -601.7,-195.63z"/>
   <g>
    <path class="fil0" d="M931.05 988.67l-89.92 1.9c5.31,38.68 39.45,45.7 68.47,59.73 -2.43,21.79 -45.85,116.93 -56.05,140.43 -13.47,31.02 -53.47,110.31 -82.84,120.17 3.14,-49.54 28.13,-93.82 12.91,-153.38 -8.49,-33.22 -55.36,-79.84 -95.86,-74.31l-53.77 115.41c-17.21,35.92 -31.4,92.24 -78.57,93.6 -1.89,-33.78 5.67,-37.85 -15.14,-61.18 -30.51,-5.15 -43.94,10.48 -51.87,31.06 -12.08,31.37 5.39,42.41 21.76,55.19 -2.97,17.5 -49.54,70.67 -64.78,82.01 -13.24,9.85 -43.67,17.07 -52.47,-2.96 -7.34,-16.69 1.75,-49.78 5.45,-64.61 9.39,-37.71 25.99,-73.61 45.77,-102.51 9.91,-14.48 21.08,-28.11 34.91,-39.47 20.73,-17.03 31.11,-14.1 60.26,-13.95 -0.42,-49.27 -36.99,-83.12 -82.05,-49.7 -29.27,21.71 -52.81,54.02 -75.82,87.03 -36.53,52.41 -91.16,193.15 2.73,223.87 59.15,19.36 112.52,-51.69 140.33,-93.08 27.74,-41.3 9.72,-14.32 49.03,-32.35 50.75,-23.26 52.69,-61.85 70.54,-88.99 10.32,-15.7 20.95,-30.83 33.01,-48.03 17.77,-25.35 21.05,-40.47 37.6,-46.28 20.97,15.09 10.79,86.43 8.15,107.9 -3.86,31.42 -7.68,75.77 -25.94,95.77 -43.74,1.16 -78.14,-16.08 -108.74,14.91 -59.83,60.58 95.5,156.61 156.96,25.14 8.81,-18.85 16.5,-25.7 38.3,-31.03 -1.81,26.86 -6.37,46.33 6.11,67.93 8.59,14.87 23.15,31.11 45.56,20.68 42.06,-19.58 105.42,-132.97 129,-175.75 10.27,-18.63 76.65,-57.82 91.38,-58.97 -17.3,49.98 -112.74,175.75 -68.75,237.21 35.88,50.12 66.07,9.1 93.48,-20.74 19.68,-21.42 69.14,-87.04 79.18,-90.46 2.1,43.06 16.49,120.08 76.74,103.68 54.58,-14.86 170.79,-200.85 209.48,-257.44 22.26,-32.56 27.09,-49.64 46.82,-52.29 17.5,54.69 0.34,158.2 -19.03,203.17 -20.29,1.21 -134.97,-25.64 -122.96,55.54 6.42,43.34 113.37,95.35 167.59,-14.86 25.09,-50.99 21.48,10.42 87.36,-100.54 8.74,-14.71 33.33,-51.3 20.39,-67.02 -17.85,7.92 -46.54,93.6 -81.85,107.31 -6.45,-15.41 52.55,-147.94 -20.44,-203.68 -76.05,-58.07 -68.48,-7.55 -108.31,74.33 -35.57,73.14 -60.58,113.39 -115.72,173.89 -11.54,12.65 -21.42,26.46 -37.36,33.79 -24.89,11.45 -39.1,-3.17 -39.76,-27.78 12.37,-9.1 38.09,-12.91 76.27,-56.09 52.68,-59.58 88.79,-114.17 40.25,-181.14 -46.55,-64.22 -121.87,56.98 -140.81,92.51 -34.77,65.25 -34.67,101 -107.36,160.96 -9.81,8.09 -66.66,56.69 -82.45,42.04 -16.49,-15.84 23.28,-58.1 35.07,-74.63 31.66,-44.38 75.13,-86.46 107.35,-136.73 25.45,-39.71 21.35,-48.81 -12.46,-77.8 -30.27,-1.03 -80.89,59.15 -134.02,53.38 -6.22,-22.63 12.49,-54.84 -1.72,-71.93 -11.38,-14.12 -29.56,-6.47 -38.53,6.34 -9.63,13.75 -24.59,82.99 -25.5,102.22 -1.52,32.35 14.04,32.08 3.5,51.93 -8.24,15.51 -81.55,132.3 -100.57,137.08 -46.34,11.67 48.02,-161.34 52.29,-169.94 13.52,-27.22 28.34,-53.13 39.32,-80.87 9.39,-23.69 24.25,-63.47 37.95,-83.19 40.3,-4.75 78.4,11.21 127.78,0.58 35.97,-7.74 66.3,-31.26 62.61,-72.09 -37.74,1.26 -128.18,12.8 -162.16,-0.95 -0.53,-0.81 -1.04,-3.13 -1.16,-2.66l-1.34 -22.62c1.39,-20.6 -0.81,-35.3 -8.95,-55.18 -5.99,-14.63 -7.71,-13.52 -18.85,-17.29 -8.55,24.61 -23.51,75.46 -37.8,95.75zm-241.64 363.84c-27.58,-19.73 -117.17,-17.71 -84.51,31.27 24.35,36.53 75.62,-1.32 84.51,-31.27zm683.9 -10.79c-6.85,68.92 80.08,44.67 88.52,-3.3 -10.21,-8.15 -28.35,-11.07 -46.11,-11.53 -23.42,-0.6 -29.55,4.86 -42.41,14.82zm-150.78 -16.18c43.32,-7.29 133.71,-149.17 75.8,-174.68 -30.36,18.15 -75.4,140.3 -75.8,174.68z"/>
    <path class="fil0" d="M40.66 1231.77c21.74,-49.86 22.76,-273.62 131.15,-363.48 130.03,-107.8 316.52,-17.7 244.01,121.77 -30.77,59.2 -148.1,138.14 -191.22,139.31 0.25,-14.92 33.43,-71.94 40.52,-119.64 4.17,-28.12 -1.64,-47.61 -13.94,-64.69 -12.35,-17.13 -26.94,-35.52 -47.77,-38.63 -15.33,68.23 -6.59,81.67 -43.76,168.1 -21.11,49.09 -46.3,94.89 -70.44,141.69 -65.79,127.55 -60.67,164.07 1.43,302.57 7.05,15.71 1.61,11.8 17.17,14.34 8.14,-17.22 -11.68,-50.99 1.98,-124.17 5.53,-29.63 20.25,-75.8 29.82,-104.84 30.43,-92.29 35.04,-104.78 134.42,-137.64 121.42,-40.14 290.44,-135.27 234.84,-289.76 -50.52,-140.35 -258.58,-101.79 -369.38,-5.18 -49.84,43.46 -158.39,196.62 -136.62,263.48 6.18,18.96 12.9,26.23 17.83,48.64 3.73,17.01 5.68,42.67 19.98,48.12z"/>
   </g>
   <path class="fil0" d="M2076.18 1242.17c-74.89,37.99 -68.94,126.54 2.96,92.78 90.47,-42.48 50.77,-120.03 -2.96,-92.78z"/>
   <path class="fil0" d="M1861.71 201.95c-6.67,37.98 -39.06,105.27 9.48,115.88 59.53,12.27 82.08,-82 46.35,-151.61l-9.69 -49.73c-32.14,8.27 -98.46,49.1 -117.01,90.82 -38.62,47.77 24.99,144.82 44.51,39.67 2.42,-13.04 15.85,-26.98 26.37,-45.04z"/>
   <path class="fil0" d="M1517.79 321.4l-11.98 -95.46c3.6,2.85 41.64,112.57 71.07,76.41 31.35,-38.53 7.34,-90.95 -29.31,-121.48 -10.18,-8.48 -29.97,-20.33 -46.04,-50.04 -43.28,47.45 -84.16,206.31 16.26,190.59z"/>
   <path class="fil0" d="M2099.82 488.12c6.3,30.68 -9.03,109.52 32.29,87.8 41.68,-21.92 42.32,-80.53 29.47,-118.96 -5.4,-16.16 -5.44,-41.7 -10.91,-57.04 -46.16,3.42 -125.52,62.77 -105.81,135.32 2.97,10.94 18.46,20.66 22.44,16.6 11.39,-11.65 24.58,-64.16 32.52,-63.72z"/>
   <path class="fil0" d="M1950.18 757.73c51.08,8.03 68.21,-53.4 57.27,-103.32 -3.72,-23.24 -15.21,-46.48 -11.16,-69.72 -17.93,1.11 -45.15,14.78 -59.63,23.97 -35.02,22.21 -74.25,66.42 -52.9,114.32 31.21,35.31 55.67,-70.36 60.73,-63.49 3.3,4.47 -36.38,91.63 5.69,98.25z"/>
   <path class="fil0" d="M1258.8 574.96c15.49,4.3 59.52,76.16 80.94,46.53 24.43,-33.78 2.09,-88.8 -55.27,-103.35 -11.58,-2.94 -25.46,-4.64 -35.46,-7.98 -16.77,-5.6 -13.94,-10.82 -33.64,-13.92 -20.91,57.45 -6.39,164.17 61.1,158.37 53.17,-3.72 2.43,-46.63 -17.67,-79.65z"/>
   <path class="fil0" d="M2256.56 588c-0.08,26.57 -14.81,75.72 8.89,85.21 42.69,17.08 74.98,-30.87 59.09,-101.62 -2.85,-12.68 -11.25,-23.79 -14.48,-35.3 -2.83,-10.07 2,-27.36 -1.19,-34.97 -31.55,1.3 -88.87,41.1 -107.11,77.74 -30.9,59.19 22.72,91.76 35.99,67.37 -2.58,-20.04 -2.72,-49.14 18.81,-58.43z"/>
   <path class="fil0" d="M2251.8 375.33c-118.63,87.36 14.83,122.75 51.89,17.14 6.42,-18.3 17.72,-27.35 16.82,-48.79 -25.13,-18.4 -80.34,-15.64 -108.89,-0.65 -60.99,32.03 -44.23,112.37 40.19,32.3z"/>
   <path class="fil0" d="M1468.24 528.08c17.13,-35.77 -33.98,-32.94 -33.75,-79.65 28.15,21.02 46.79,57.71 70.26,53.77 27.39,-4.59 34.49,-63.96 -24.87,-98.94 -30.71,-18.09 -51.37,-7.23 -84.32,-32.8 -9.99,29.65 -14.21,75.88 -2.53,110.72 10.25,30.58 37.2,60.71 75.2,46.9z"/>
   <path class="fil0" d="M1685.06 0c-61.05,46.03 -86.91,167.6 -14.29,157.28 15.36,-5.8 -2.47,-59.93 4.46,-58.65 12.64,46.76 41.23,71.62 57.94,46.82 45.38,-54.5 -37.87,-99.23 -48.11,-145.44z"/>
   <path class="fil0" d="M2197.29 733.16c-97.06,89.95 13.35,102.28 38.88,41.51 3.76,-8.95 20.68,-71.47 20.57,-80.42 -27.99,-5.04 -76.54,-0.88 -97.53,13.68 -28.81,7.34 -67.1,123.88 38.07,25.22z"/>
   <path class="fil0" d="M1103.51 429.43c14.33,7.59 46.37,45.2 69.92,39.84 25.61,-5.83 28.82,-68.46 -43.63,-86.62 -23.13,-0.05 -64.43,-14.85 -67.05,-15.13 -8.99,142.82 75.09,149.25 86.17,124.91 9.98,-21.92 -35.97,-42.83 -45.42,-62.99z"/>
   <path class="fil0" d="M1786.28 596.29c6.8,-8.15 3.67,-53.6 20.95,-61.51 0.2,29.96 -11.84,72.67 14.34,77.08 14.45,2.43 23.4,-2.14 31.62,-12.16 22.89,-27.87 10.25,-63.09 -0.37,-93.53 -5.83,-16.73 -3.53,-40.69 -10.5,-38.1 -17.01,3.62 -56.69,35.15 -67.57,49.92 -17.27,23.44 -27.68,76.93 11.51,78.3z"/>
   <path class="fil0" d="M1267.05 393.21c37.95,59.17 73.12,48.64 76.89,26.24 3.52,-20.94 -10.41,-36.48 -19.85,-46.79 -19.34,-21.14 -43.33,-23.26 -75.14,-33.67 -25.25,-8.27 -23.99,3.33 -23.8,30.17 0.29,42.12 13.86,96.92 65.97,91.24 24.78,-2.7 -0.7,-38.51 -24.06,-67.19z"/>
   <path class="fil0" d="M2070.07 301.73c-12.42,-16.43 -37.97,-41.63 -64.39,-45.11 0.94,21.45 -24.3,81.7 -17.34,108.51 3.93,15.13 17.27,29.92 35.8,29.63 25.03,-0.39 21.93,-25.55 19.67,-62.79 -1.36,68.98 77.22,49.66 26.26,-30.24z"/>
   <path class="fil0" d="M1589.26 590.49c17.53,2.7 24.8,51.38 50.97,32.58 31.29,-55.25 -38.72,-88.27 -63.95,-114.53 -25.37,35.14 -28.24,74.05 -20.91,100.64 5.24,19 15.69,32.33 26.88,32.3 28.88,-0.09 5.52,-51.21 7.01,-50.99z"/>
   <path class="fil0" d="M1576.82 861.19c66.55,85.39 71.22,-3.25 52.33,-21.73 -10.79,-10.56 -64.54,-37.8 -77.79,-38.82 -17.33,34.91 -13.85,117.67 40.82,114.31 14.78,-0.91 -10.25,-39.22 -15.36,-53.75z"/>
   <path class="fil0" d="M1828.85 853.71c-7.35,42.62 1.58,68.78 28.74,58.05 48.72,-13.75 -1.65,-95.72 10.56,-118.03 -27.71,1.44 -59.36,31.75 -70.95,53.11 -18.19,33.53 4.66,98.07 31.65,6.87z"/>
   <path class="fil0" d="M1120.59 599.62c51.28,10.59 58.83,9.59 56.91,-9.19 -6.3,-61.66 -71.52,-33.36 -109.65,-42.6 -2.8,17.5 10.4,35.28 15.98,46.16 11.49,22.42 19.62,43.34 51.56,43.67 23.07,0.24 34.52,-27.86 -14.8,-38.03z"/>
   <path class="fil0" d="M1210.16 741.78c25.8,26.12 52.48,27.63 54.81,5 3.88,-37.73 -20.86,-49.76 -48.56,-60.78 -12.6,-5.01 -29.05,-6.71 -38.79,-17.32 -9.7,23.48 -17.36,67.45 8.18,104.62 33.12,23.16 58.13,-4.38 24.35,-31.52z"/>
   <path class="fil0" d="M1787.61 404.36c-21.03,24.72 -20.34,53.53 -2.98,51.2 52.07,-7 36.78,-95.85 38.13,-111.47 -7.41,1.45 -15.05,10.6 -21.81,11.52 -86.57,11.78 -86.1,129.81 -13.34,48.75z"/>
   <path class="fil0" d="M1689.14 267.18c11.27,9.09 23,45.29 38.8,28.68 20.95,-15.23 10.56,-57.17 -21.11,-81.18 -11.41,-8.65 -14.05,-23.95 -19.57,-25.23 -81.22,69.28 9.19,171.12 1.88,77.73z"/>
   <path class="fil0" d="M2481.07 625.98c-21.73,-2.28 -57.6,-18.09 -85.4,-4.14 -15.6,7.83 -25.19,32.17 -18.29,39.4 12.57,13.15 49.37,-21.28 48.3,-12.94 -1.27,9.87 -45.16,25.52 -29.75,49.05 21.13,32.28 74.98,-27.43 85.14,-71.37z"/>
   <path class="fil0" d="M1968.49 886.67c50.41,0.68 27.2,-64.95 28.43,-98.45 -27.12,5.59 -54.47,24.04 -64.47,41.25 -5.49,9.45 -12.12,31.64 -1.16,42.06 10.46,9.96 24.07,-29.81 26.58,-30.6 -2.43,11.7 -7.24,45.5 10.62,45.74z"/>
   <path class="fil0" d="M2427.02 466.44c-109.33,-37.29 -96.89,61.23 -35.07,20.36 -92.39,60.92 50.66,50.99 35.07,-20.36z"/>
   <path class="fil0" d="M1604.75 780.46c14.05,-6.36 3.22,-29.73 -0.61,-37.33 2.99,5.29 24.94,23.82 33.75,20.25 13.93,-45.28 -29.05,-51.29 -51.4,-69.72 -17.01,0.18 -15.25,33.32 -13.75,49.34 1.88,20.1 11.79,35.54 32.01,37.45z"/>
   <path class="fil0" d="M1000.74 616.91c53.37,32.09 35.84,-24.07 -9.52,-42.38 -6.84,-2.76 -14.32,-4.66 -22.28,-5.27 -4.84,109.9 53.96,84.18 31.8,47.64z"/>
   <g>
    <path class="fil1" d="M716.84 1474.04c-5.78,0 -17.2,0.48 -16.88,8.59 0.3,7.54 14.29,6.01 20.68,8.79 11.89,5.19 7.08,237.11 7.21,264.77 0.11,2.94 -23.98,-2.85 -23.98,7.62 0,11.32 7.15,8.7 12.97,8.7 61.29,0 67.66,7.65 123.51,-17.25 55.72,-24.84 67.78,-95.79 66.42,-132.7 -3.02,-81.41 -59.53,-148.53 -113.45,-148.53l-76.48 0zm48.65 13.09c0.24,-11.8 96.22,2.33 96.22,140.89 0,64.97 -1.98,127.51 -78.1,131.41l-13.67 0.7c0,0 -4.99,-246.32 -4.45,-273z"/>
    <path class="fil1" d="M973.78 1620.53l45.2 0c20.35,0 12.52,13.91 22.69,13.91 11.97,0 8.3,-14 8.3,-25.31 0,-10.48 -0.15,-21.31 -10.63,-21.31 -10.17,0 0.86,18.2 -20.36,18.2l-45.2 0 0 -87.81c0,-4.82 -0.93,-22.3 0.43,-31.95 0.69,-4.95 87.46,-1 101.35,0.22 -2.24,21.03 6.5,28.34 12.43,27.47 7.42,-1.08 4.37,-13.26 4.75,-19.6 0.4,-6.82 0.98,-13.88 -1.43,-18.06 -2.4,-4.17 -7.49,-5.03 -16.46,-5.03l-119.57 0c-8.99,1.73 -13.51,4.61 -16.52,10.51 -6.24,12.2 -3.54,31.56 -3.12,39.8l0.63 27.93 0 175.35 0.32 39.34 160.99 -1.69c0,0 2.88,-44.48 -5.28,-45.22 -10.44,-0.94 -13,14.81 -16.16,24.52 -0.11,0.33 -2.55,4.48 -12.1,7.53 -9.4,3 -25.93,4.76 -29.63,4.73l-51.18 -0.33c-16.72,-0.11 -9.46,-118.13 -9.46,-133.19z"/>
    <path class="fil1" d="M1515.07 1743c2.48,3.54 8.98,2.31 13.03,4.94 3.93,2.55 2.77,6.49 -1.6,6.62l-41.24 1.27c-4.11,0.12 -4.81,-2.85 -3.74,-6.04 2.48,-7.36 13.05,-0.83 13.84,-6.91 0.85,-6.55 0.19,-19.91 0.19,-31.26 0,-50.49 -2.09,-70.74 -4.67,-131.33 -33.83,53.27 -72.17,127.23 -86.33,106.63l-93.57 -136.18c-1.93,56.96 0.96,95.91 0.96,157.71 0,41.6 15.58,36.5 16.89,41.7 2.68,10.58 -2.87,9.6 -9.95,9.6l-61.22 0c-7.08,0 -14.47,2.35 -14.47,-8.56 0,-16.97 14.57,4.85 15.76,-42.74l4.83 -193.09 0.94 -46.98c11.34,-1 110.41,163.77 129.97,181.81 33.52,-62.04 67.05,-124.09 100.57,-186.13 21.44,10.55 4.4,257 19.79,278.93z"/>
    <path class="fil1" d="M1562.26 1705.19c0.42,13.95 -0.58,31.31 -6.53,35.89 -8,6.16 -8.82,14.87 -0.05,14.87l44.34 0c13.43,0 15.72,-5.92 3.97,-16.46 -4.9,-4.39 -4.9,-21.9 -4.9,-34.3l0 -191.03c0,-13.99 0.4,-25.27 7.71,-31.53 6.31,-5.4 24.77,-19.22 -6.77,-19.22l-44.34 0c-19.78,0 -30.5,9.31 -4.43,21.62 5.31,2.51 4.91,13.57 5.36,29.13l5.65 191.03z"/>
    <ellipse class="fil0" cx="715.47" cy="1787.99" rx="6.65" ry="6.54"/>
    <ellipse class="fil0" cx="741.4" cy="1783.16" rx="6.65" ry="6.54"/>
    <ellipse class="fil0" cx="771.93" cy="1783.16" rx="6.65" ry="6.54"/>
    <ellipse class="fil0" cx="804.04" cy="1775.21" rx="6.65" ry="6.54"/>
    <ellipse class="fil0" cx="834.05" cy="1772.13" rx="6.65" ry="6.54"/>
    <ellipse class="fil0" cx="864.85" cy="1759.06" rx="6.65" ry="6.54"/>
    <ellipse class="fil0" cx="886.51" cy="1734.19" rx="6.65" ry="6.54"/>
    <ellipse class="fil0" cx="897.47" cy="1709.84" rx="6.65" ry="6.54"/>
    <ellipse class="fil0" cx="911.31" cy="1677.79" rx="6.65" ry="6.54"/>
    <ellipse class="fil0" cx="915.74" cy="1645.74" rx="6.65" ry="6.54"/>
    <ellipse class="fil0" cx="917.54" cy="1611.24" rx="6.65" ry="6.54"/>
    <ellipse class="fil0" cx="909.99" cy="1579.93" rx="6.65" ry="6.54"/>
    <ellipse class="fil0" cx="903.8" cy="1552.98" rx="6.65" ry="6.54"/>
    <ellipse class="fil0" cx="893.17" cy="1521.96" rx="6.65" ry="6.54"/>
    <ellipse class="fil0" cx="874.58" cy="1503.11" rx="6.65" ry="6.54"/>
    <ellipse class="fil0" cx="848.31" cy="1486.01" rx="6.65" ry="6.54"/>
    <ellipse class="fil0" cx="773.56" cy="1500.72" rx="6.65" ry="6.54"/>
    <ellipse class="fil0" cx="772.21" cy="1529.39" rx="6.65" ry="6.54"/>
    <ellipse class="fil0" cx="775.35" cy="1561.21" rx="6.65" ry="6.54"/>
    <ellipse class="fil0" cx="774.9" cy="1595.6" rx="6.65" ry="6.54"/>
    <ellipse class="fil0" cx="776.25" cy="1628.67" rx="6.65" ry="6.54"/>
    <ellipse class="fil0" cx="778.04" cy="1657.33" rx="6.65" ry="6.54"/>
    <ellipse class="fil0" cx="777.15" cy="1693.04" rx="6.65" ry="6.54"/>
    <ellipse class="fil0" cx="779.39" cy="1724.35" rx="6.65" ry="6.54"/>
    <ellipse class="fil0" cx="778.49" cy="1743.31" rx="6.65" ry="6.54"/>
    <ellipse class="fil0" cx="943.23" cy="1778.14" rx="6.65" ry="6.54"/>
    <ellipse class="fil0" cx="968.73" cy="1778.14" rx="6.65" ry="6.54"/>
    <ellipse class="fil0" cx="995.21" cy="1777.25" rx="6.65" ry="6.54"/>
    <ellipse class="fil0" cx="1024.84" cy="1776.37" rx="6.65" ry="6.54"/>
    <ellipse class="fil0" cx="1052.22" cy="1776.37" rx="6.65" ry="6.54"/>
    <ellipse class="fil0" cx="1085.89" cy="1776.82" rx="6.65" ry="6.54"/>
    <ellipse class="fil0" cx="1107.96" cy="1768" rx="6.65" ry="6.54"/>
    <ellipse class="fil0" cx="1112" cy="1744.19" rx="6.65" ry="6.54"/>
    <ellipse class="fil0" cx="1108.86" cy="1719.06" rx="6.65" ry="6.54"/>
    <ellipse class="fil0" cx="987.66" cy="1741.54" rx="6.65" ry="6.54"/>
    <ellipse class="fil0" cx="989.01" cy="1717.73" rx="6.65" ry="6.54"/>
    <ellipse class="fil0" cx="986.77" cy="1690.4" rx="6.65" ry="6.54"/>
    <ellipse class="fil0" cx="983.63" cy="1659.53" rx="6.65" ry="6.54"/>
    <ellipse class="fil0" cx="983.18" cy="1630.43" rx="6.65" ry="6.54"/>
    <ellipse class="fil0" cx="1008.31" cy="1631.32" rx="6.65" ry="6.54"/>
    <ellipse class="fil0" cx="1032.58" cy="1493.35" rx="6.65" ry="6.54"/>
    <ellipse class="fil0" cx="1004.99" cy="1493.64" rx="6.65" ry="6.54"/>
    <ellipse class="fil0" cx="983.23" cy="1503.62" rx="6.65" ry="6.54"/>
    <ellipse class="fil0" cx="981.78" cy="1528.7" rx="6.65" ry="6.54"/>
    <ellipse class="fil0" cx="983.23" cy="1558.84" rx="6.65" ry="6.54"/>
    <ellipse class="fil0" cx="983.52" cy="1589.41" rx="6.65" ry="6.54"/>
    <ellipse class="fil0" cx="1245.78" cy="1767.9" rx="6.65" ry="6.54"/>
    <ellipse class="fil0" cx="1281.41" cy="1767.3" rx="6.65" ry="6.54"/>
    <ellipse class="fil0" cx="1312.97" cy="1767.1" rx="6.65" ry="6.54"/>
    <ellipse class="fil0" cx="1328.85" cy="1729.3" rx="6.65" ry="6.54"/>
    <ellipse class="fil0" cx="1324.16" cy="1695.89" rx="6.65" ry="6.54"/>
    <ellipse class="fil0" cx="1325.59" cy="1661.42" rx="6.65" ry="6.54"/>
    <ellipse class="fil0" cx="1322.8" cy="1625.67" rx="6.65" ry="6.54"/>
    <ellipse class="fil0" cx="1322.18" cy="1593.42" rx="6.65" ry="6.54"/>
    <ellipse class="fil0" cx="1434.92" cy="1687.07" rx="6.65" ry="6.54"/>
    <ellipse class="fil0" cx="1453.33" cy="1661.53" rx="6.65" ry="6.54"/>
    <ellipse class="fil0" cx="1467.96" cy="1633.34" rx="6.65" ry="6.54"/>
    <ellipse class="fil0" cx="1289.75" cy="1469.46" rx="6.65" ry="6.54"/>
    <ellipse class="fil0" cx="1307.09" cy="1496.06" rx="6.65" ry="6.54"/>
    <ellipse class="fil0" cx="1332.54" cy="1529.58" rx="6.65" ry="6.54"/>
    <ellipse class="fil0" cx="1354.75" cy="1561.51" rx="6.65" ry="6.54"/>
    <ellipse class="fil0" cx="1372.63" cy="1588.64" rx="6.65" ry="6.54"/>
    <ellipse class="fil0" cx="1386.86" cy="1612.03" rx="6.65" ry="6.54"/>
    <ellipse class="fil0" cx="1510.21" cy="1467.33" rx="6.65" ry="6.54"/>
    <ellipse class="fil0" cx="1514.54" cy="1500.85" rx="6.65" ry="6.54"/>
    <ellipse class="fil0" cx="1515.08" cy="1549.8" rx="6.65" ry="6.54"/>
    <ellipse class="fil0" cx="1518.88" cy="1595.03" rx="6.65" ry="6.54"/>
    <ellipse class="fil0" cx="1517.25" cy="1629.08" rx="6.65" ry="6.54"/>
    <ellipse class="fil0" cx="1519.96" cy="1661.53" rx="6.65" ry="6.54"/>
    <ellipse class="fil0" cx="1517.79" cy="1697.18" rx="6.65" ry="6.54"/>
    <ellipse class="fil0" cx="1523.75" cy="1722.19" rx="6.65" ry="6.54"/>
    <ellipse class="fil0" cx="1481.5" cy="1763.69" rx="6.65" ry="6.54"/>
    <ellipse class="fil0" cx="1502.08" cy="1763.69" rx="6.65" ry="6.54"/>
    <ellipse class="fil0" cx="1523.21" cy="1761.56" rx="6.65" ry="6.54"/>
    <ellipse class="fil0" cx="1564.37" cy="1762.09" rx="6.65" ry="6.54"/>
    <ellipse class="fil0" cx="1587.67" cy="1763.69" rx="6.65" ry="6.54"/>
    <ellipse class="fil0" cx="1608.25" cy="1762.62" rx="6.65" ry="6.54"/>
    <ellipse class="fil0" cx="1617.46" cy="1733.36" rx="6.65" ry="6.54"/>
    <ellipse class="fil0" cx="1612.97" cy="1707.82" rx="6.65" ry="6.54"/>
    <ellipse class="fil0" cx="1610.8" cy="1676.43" rx="6.65" ry="6.54"/>
    <ellipse class="fil0" cx="1611.5" cy="1648.76" rx="6.65" ry="6.54"/>
    <ellipse class="fil0" cx="1608.25" cy="1621.1" rx="6.65" ry="6.54"/>
    <ellipse class="fil0" cx="1609.33" cy="1590.77" rx="6.65" ry="6.54"/>
    <ellipse class="fil0" cx="1607.16" cy="1568.42" rx="6.65" ry="6.54"/>
    <ellipse class="fil0" cx="1606.08" cy="1533.84" rx="6.65" ry="6.54"/>
    <ellipse class="fil0" cx="1605.54" cy="1505.11" rx="6.65" ry="6.54"/>
   </g>
   <path class="fil0" d="M1928.78 459.77c8.31,35.52 30.74,30.74 34.59,9.3 3.72,-20.74 3.69,-53.13 -6.58,-76.24 -72.38,32.16 -72.36,99.17 -28.02,66.94z"/>
   <path class="fil0" d="M1624.14 433.34c14.57,34.6 -5.51,43.24 -20.91,34.91 -46.2,-25.01 -2.9,-100.35 1.38,-115.43 6.41,3.98 10.63,14.74 16.31,18.51 72.04,47.77 51.64,132.38 3.22,62.02z"/>
   <path class="fil0" d="M1446.36 686.49c15.2,5.23 54.77,79.64 77.96,51.37 26.44,-32.23 7.48,-88.51 -48.88,-106.52 -11.38,-3.64 -25.13,-6.18 -34.91,-10.12 -16.4,-6.61 -13.25,-11.65 -32.73,-15.95 -24.37,56.07 -16.37,163.48 51.34,161.79 53.3,-0.48 5.26,-46.4 -12.78,-80.58z"/>
   <path class="fil0" d="M1454.16 782.85c-7.82,20.4 -33.84,50.22 -27.56,80.68 3.53,17.1 15.01,29.72 23.78,24.91 15.95,-8.73 2.93,-56.35 6.23,-52.56 1.66,1.9 4.17,57.9 30.87,49.12 36.64,-12.06 -3.3,-77.16 -33.33,-102.15z"/>
   <path class="fil0" d="M1072.28 714.66c77.62,55.32 72.47,-33.86 0.08,-35.35 -12.54,-0.26 -21.8,6.54 -33.38,-0.5 -6.25,19.16 6.58,52.54 21.55,67.07 31.99,31.04 78,4.54 11.75,-31.21z"/>
   <path class="fil0" d="M1370.89 806.68c14.05,-6.36 1.82,-30.39 4.23,-36.57 3.75,6.63 33.84,34.84 36.01,10.33 2.49,-28.22 -57.86,-63.37 -58.44,-58.69 -1.36,10.99 -10.3,33.91 -8.96,48.24 1.88,20.1 6.94,34.78 27.17,36.69z"/>
   <path class="fil0" d="M2041.17 742.83c16.16,6.37 24.29,-10.91 34.86,-20.92 -14.24,21.75 -4.47,48.42 18.39,33.88 26.31,-16.73 10.94,-85.28 6.44,-82.64 -10.55,6.23 -37.17,14.61 -48.56,25.06 -15.97,14.66 -24.84,28.15 -11.14,44.61z"/>
   <path class="fil0" d="M1768.32 744.38c13.2,1.49 10.42,-15.95 16.24,-25.46 -6.19,18.9 11.68,39.7 25.67,24.42 16.1,-17.59 -8.9,-65.17 -11.7,-62.32 -6.55,6.7 -24.55,18.19 -30.87,28.18 -8.87,14.01 -12.74,25.74 0.66,35.17z"/>
   <path class="fil0" d="M2319.68 741.76c8.57,10.16 18.53,-4.42 29.29,-7.33 -17.49,9.47 -18.81,36.87 1.86,35.39 23.79,-1.71 38.33,-53.45 34.34,-53.3 -9.37,0.36 -30.33,-3.66 -41.8,-0.76 -16.08,4.08 -26.94,9.94 -23.7,26z"/>
   <path class="fil0" d="M1387.5 316.48c17.95,51.47 40.91,-0.71 10.42,-31.21 -4.56,-4.56 -7.39,-12.28 -12.41,-17.15 -28.06,30.99 -25.56,51.55 -21.05,61.42 5.88,12.83 19.92,7.86 23.03,-13.06z"/>
  </g>
 </g>
</svg>
