<?xml version="1.0" encoding="UTF-8"?>
<!DOCTYPE svg PUBLIC "-//W3C//DTD SVG 1.1//EN" "http://www.w3.org/Graphics/SVG/1.1/DTD/svg11.dtd">
<!-- Creator: CorelDRAW 2020 (64-Bit) -->
<svg xmlns="http://www.w3.org/2000/svg" xml:space="preserve" width="35.0258mm" height="34.1179mm" version="1.1" style="shape-rendering:geometricPrecision; text-rendering:geometricPrecision; image-rendering:optimizeQuality; fill-rule:evenodd; clip-rule:evenodd"
viewBox="0 0 820.66 799.39"
 xmlns:xlink="http://www.w3.org/1999/xlink"
 xmlns:xodm="http://www.corel.com/coreldraw/odm/2003">
 <defs>
  <style type="text/css">
   <![CDATA[
    .fil2 {fill:#002F65;fill-rule:nonzero}
    .fil0 {fill:url(#id0)}
    .fil1 {fill:url(#id1)}
   ]]>
  </style>
  <linearGradient id="id0" gradientUnits="userSpaceOnUse" x1="642.87" y1="75.87" x2="192.55" y2="564.77">
   <stop offset="0" style="stop-opacity:1; stop-color:#002F65"/>
   <stop offset="1" style="stop-opacity:1; stop-color:#008BBF"/>
  </linearGradient>
  <linearGradient id="id1" gradientUnits="userSpaceOnUse" x1="355.77" y1="306.37" x2="102.47" y2="539.52">
   <stop offset="0" style="stop-opacity:1; stop-color:#002F65"/>
   <stop offset="0.219608" style="stop-opacity:1; stop-color:#005D92"/>
   <stop offset="1" style="stop-opacity:1; stop-color:#008BBF"/>
  </linearGradient>
 </defs>
 <g id="Capa_x0020_1">
  <metadata id="CorelCorpID_0Corel-Layer"/>
  <g id="_1999805503728">
   <g>
    <path class="fil0" d="M71.75 204.09c0,14 1.46,26.99 3.44,40.82 1.86,12.9 6.13,26.2 6.39,37.87l61.48 0c0,-64.19 -21.64,-119.96 35.01,-176.46 65.59,-65.42 153.8,-52.22 213.94,16.03 4.68,5.31 7.41,9.22 12.24,14.81 5.67,6.55 7.1,10.54 14.21,15.3 16,-10.71 89.94,-130.09 198.39,-75.44 58.92,29.68 81.93,70.34 81.93,136.91 0,99.56 -213.8,432.46 -319.3,329.74 -5.06,-4.93 -22.85,-7.61 -47.09,-7.61 0,24.78 -0.27,38.07 0.13,47.04 0.32,7.18 81.99,58.74 86.79,57.52 138.78,-35.45 414.47,-335.65 327.84,-521.78 -11.2,-24.08 -22.86,-40.38 -40.37,-57.99 -27.69,-27.85 -81.61,-60.85 -135.87,-60.85l-1.75 0c-36.64,0.05 -59.57,1.78 -95.02,18.8 -21.93,10.53 -37.11,22.86 -55.69,35.3 -8.73,-5.85 -15.82,-12.21 -25.54,-18.72 -10.75,-7.2 -18.32,-10.55 -30.18,-16.54 -21.24,-10.74 -43.91,-16.89 -66.89,-18.84l-32.31 0c-48.43,4.01 -95.94,25.87 -132.17,62.09 -9.83,9.83 -14.79,14.74 -23.14,26.04 -6.6,8.94 -14.88,22.51 -18.98,32.66 -9.7,24.02 -17.51,49.92 -17.51,83.31z"/>
    <polygon class="fil1" points="167.65,361.47 56.99,361.47 56.99,484.42 167.65,484.42 167.65,595.08 290.6,595.08 290.6,484.42 401.25,484.42 401.25,361.47 290.6,361.47 290.6,250.82 167.65,250.82 "/>
   </g>
   <path class="fil2" d="M112.81 759.43c0,7.61 -2.21,14.46 -6.64,20.54 -4.4,6.08 -10.88,10.84 -19.41,14.28 -8.53,3.44 -18.65,5.14 -30.32,5.14 -14.02,0 -25.59,-2.35 -34.68,-7.02 -6.45,-3.38 -11.67,-7.91 -15.71,-13.55 -4.03,-5.64 -6.05,-11.14 -6.05,-16.49 0,-3.08 1.22,-5.73 3.63,-7.96 2.42,-2.2 5.49,-3.29 9.22,-3.29 3.04,0 5.59,0.85 7.67,2.59 2.11,1.7 3.9,4.26 5.39,7.67 1.78,3.99 3.77,7.38 5.85,10.05 2.12,2.7 5.06,4.94 8.86,6.7 3.84,1.73 8.83,2.61 15.04,2.61 8.5,0 15.44,-1.76 20.76,-5.29 5.32,-3.53 8,-7.93 8,-13.22 0,-4.2 -1.42,-7.61 -4.3,-10.2 -2.88,-2.61 -6.61,-4.61 -11.18,-5.99 -4.53,-1.38 -10.64,-2.85 -18.25,-4.41 -10.18,-2.12 -18.74,-4.61 -25.59,-7.43 -6.88,-2.85 -12.33,-6.73 -16.37,-11.64 -4.03,-4.91 -6.05,-10.99 -6.05,-18.31 0,-6.93 2.12,-13.1 6.38,-18.51 4.26,-5.38 10.45,-9.52 18.51,-12.43 8.07,-2.91 17.56,-4.35 28.47,-4.35 8.69,0 16.23,0.97 22.61,2.88 6.35,1.94 11.64,4.5 15.84,7.67 4.17,3.17 7.24,6.52 9.19,10.02 1.92,3.5 2.91,6.94 2.91,10.26 0,3.03 -1.22,5.79 -3.64,8.23 -2.42,2.44 -5.46,3.64 -9.06,3.64 -3.31,0 -5.79,-0.73 -7.51,-2.17 -1.72,-1.47 -3.57,-3.88 -5.55,-7.2 -2.61,-4.76 -5.69,-8.49 -9.32,-11.16 -3.6,-2.68 -9.42,-4 -17.46,-4 -7.41,0 -13.42,1.44 -17.95,4.35 -4.56,2.91 -6.84,6.38 -6.84,10.46 0,2.53 0.76,4.7 2.31,6.55 1.55,1.82 3.7,3.41 6.41,4.73 2.71,1.32 5.46,2.35 8.23,3.11 2.78,0.74 7.38,1.82 13.76,3.26 8,1.68 15.27,3.5 21.76,5.52 6.48,2 12,4.44 16.56,7.32 4.56,2.85 8.1,6.49 10.64,10.87 2.55,4.41 3.84,9.78 3.84,16.16zm25.59 24.39l0 -99.4c0,-5.17 1.32,-9.02 3.97,-11.61 2.65,-2.58 6.08,-3.88 10.28,-3.88 4.3,0 7.8,1.26 10.48,3.82 2.68,2.56 4.03,6.44 4.03,11.67l0 99.4c0,5.23 -1.36,9.11 -4.03,11.7 -2.68,2.58 -6.18,3.88 -10.48,3.88 -4.13,0 -7.54,-1.29 -10.22,-3.91 -2.68,-2.61 -4.03,-6.49 -4.03,-11.67zm108.87 -5.58l-22.78 -80.39 0 87.09c0,4.82 -1.22,8.43 -3.64,10.84 -2.41,2.41 -5.62,3.62 -9.59,3.62 -3.87,0 -7.05,-1.2 -9.49,-3.58 -2.45,-2.38 -3.67,-5.99 -3.67,-10.87l0 -99.84c0,-5.52 1.62,-9.22 4.83,-11.16 3.24,-1.91 7.61,-2.88 13.06,-2.88l8.93 0c5.35,0 9.22,0.44 11.64,1.29 2.42,0.85 4.23,2.41 5.39,4.64 1.16,2.23 2.48,5.88 3.97,10.93l20.63 69.17 20.63 -69.17c1.49,-5.05 2.81,-8.7 3.96,-10.93 1.16,-2.23 2.95,-3.79 5.36,-4.64 2.41,-0.85 6.31,-1.29 11.67,-1.29l8.89 0c5.49,0 9.85,0.97 13.09,2.88 3.21,1.94 4.83,5.64 4.83,11.16l0 99.84c0,4.82 -1.22,8.43 -3.64,10.84 -2.41,2.41 -5.65,3.62 -9.69,3.62 -3.8,0 -6.94,-1.2 -9.39,-3.62 -2.45,-2.41 -3.67,-6.02 -3.67,-10.84l0 -87.09 -22.78 80.39c-1.49,5.2 -2.68,9.05 -3.64,11.49 -0.93,2.41 -2.64,4.64 -5.16,6.64 -2.55,2.03 -6.02,3.03 -10.48,3.03 -3.37,0 -6.22,-0.65 -8.53,-1.94 -2.31,-1.29 -4.13,-2.94 -5.42,-4.94 -1.29,-2.03 -2.31,-4.23 -3.04,-6.67 -0.76,-2.44 -1.52,-5 -2.28,-7.61zm150.24 -16.4l-30.62 0c-4.66,0 -8.2,-0.97 -10.61,-2.88 -2.41,-1.94 -3.64,-4.44 -3.64,-7.49 0,-3.08 1.19,-5.61 3.54,-7.55 2.35,-1.91 5.92,-2.88 10.71,-2.88l30.62 0c4.79,0 8.36,0.97 10.71,2.88 2.35,1.94 3.54,4.47 3.54,7.55 0,3.06 -1.16,5.56 -3.51,7.49 -2.31,1.91 -5.89,2.88 -10.74,2.88zm70.65 -77.57l55.28 74.4 0 -75.1c0,-4.88 1.19,-8.52 3.54,-10.96 2.35,-2.44 5.52,-3.67 9.52,-3.67 4.1,0 7.38,1.2 9.76,3.64 2.38,2.44 3.57,6.11 3.57,10.99l0 99.23c0,11.08 -5.16,16.6 -15.47,16.6 -2.58,0 -4.89,-0.32 -6.98,-1 -2.05,-0.65 -4,-1.71 -5.79,-3.12 -1.82,-1.44 -3.47,-3.11 -5.03,-5.05 -1.55,-1.91 -3.11,-3.88 -4.66,-5.88l-53.92 -73.46 0 73.87c0,4.82 -1.26,8.46 -3.77,10.93 -2.55,2.47 -5.79,3.7 -9.72,3.7 -4.07,0 -7.34,-1.23 -9.79,-3.73 -2.48,-2.5 -3.7,-6.14 -3.7,-10.9l0 -97.32c0,-4.14 0.53,-7.38 1.56,-9.73 1.22,-2.59 3.27,-4.7 6.12,-6.35 2.84,-1.62 5.92,-2.44 9.19,-2.44 2.61,0 4.83,0.38 6.65,1.12 1.85,0.76 3.47,1.76 4.86,3.02 1.39,1.27 2.81,2.88 4.26,4.91 1.46,2 2.98,4.08 4.53,6.29zm206.74 6.52l-64.8 0 0 31.03 59.68 0c4.4,0 7.67,0.88 9.82,2.61 2.18,1.73 3.24,4.06 3.24,6.9 0,2.85 -1.06,5.2 -3.17,6.99 -2.15,1.79 -5.42,2.7 -9.89,2.7l-59.68 0 0 35.97 67.02 0c4.53,0 7.94,0.94 10.22,2.79 2.31,1.85 3.47,4.35 3.47,7.43 0,2.97 -1.16,5.41 -3.47,7.26 -2.28,1.85 -5.69,2.79 -10.22,2.79l-78.16 0c-6.25,0 -10.75,-1.23 -13.49,-3.7 -2.74,-2.47 -4.13,-6.46 -4.13,-11.96l0 -94.91c0,-3.67 0.63,-6.67 1.85,-8.99 1.22,-2.32 3.14,-4.03 5.75,-5.08 2.61,-1.06 5.95,-1.59 10.02,-1.59l75.94 0c4.59,0 8,0.91 10.22,2.7 2.21,1.82 3.34,4.2 3.34,7.11 0,3 -1.12,5.41 -3.34,7.23 -2.22,1.79 -5.62,2.7 -10.22,2.7zm131.02 1.41l-31.37 0 0 91.61c0,5.29 -1.32,9.2 -4,11.75 -2.65,2.56 -6.08,3.82 -10.28,3.82 -4.26,0 -7.77,-1.29 -10.45,-3.88 -2.68,-2.59 -4.03,-6.46 -4.03,-11.7l0 -91.61 -31.38 0c-4.93,0 -8.56,-0.97 -10.94,-2.88 -2.38,-1.94 -3.6,-4.49 -3.6,-7.67 0,-3.26 1.26,-5.85 3.74,-7.76 2.48,-1.91 6.08,-2.85 10.81,-2.85l91.52 0c4.99,0 8.66,0.97 11.11,2.94 2.41,1.97 3.64,4.52 3.64,7.67 0,3.17 -1.26,5.73 -3.7,7.67 -2.45,1.91 -6.12,2.88 -11.05,2.88z"/>
  </g>
 </g>
</svg>
