<?xml version="1.0" encoding="UTF-8"?>
<!DOCTYPE svg PUBLIC "-//W3C//DTD SVG 1.1//EN" "http://www.w3.org/Graphics/SVG/1.1/DTD/svg11.dtd">
<!-- Creator: CorelDRAW 2020 (64-Bit) -->
<svg xmlns="http://www.w3.org/2000/svg" xml:space="preserve" width="83.7961mm" height="80.3711mm" version="1.1" style="shape-rendering:geometricPrecision; text-rendering:geometricPrecision; image-rendering:optimizeQuality; fill-rule:evenodd; clip-rule:evenodd"
viewBox="0 0 1753.73 1682.05"
 xmlns:xlink="http://www.w3.org/1999/xlink"
 xmlns:xodm="http://www.corel.com/coreldraw/odm/2003">
 <defs>
  <style type="text/css">
   <![CDATA[
    .str2 {stroke:#FEFEFE;stroke-width:4.19;stroke-miterlimit:22.9256}
    .str0 {stroke:#002F65;stroke-width:4.19;stroke-miterlimit:22.9256}
    .str1 {stroke:#02394E;stroke-width:4.19;stroke-miterlimit:22.9256}
    .str3 {stroke:#9CD5ED;stroke-width:4.19;stroke-miterlimit:22.9256}
    .fil1 {fill:#FEFEFE}
    .fil9 {fill:#FCD3C2}
    .fil0 {fill:#002F65}
    .fil7 {fill:#008BBF}
    .fil12 {fill:#02394E}
    .fil5 {fill:#152746}
    .fil10 {fill:#263238}
    .fil2 {fill:#9CD5ED}
    .fil4 {fill:#9CD5ED}
    .fil8 {fill:#D7E9EF}
    .fil3 {fill:#F4F4F4}
    .fil18 {fill:white}
    .fil14 {fill:#9CD5ED;fill-rule:nonzero}
    .fil19 {fill:white;fill-rule:nonzero}
    .fil16 {fill:url(#id0)}
    .fil15 {fill:url(#id1)}
    .fil17 {fill:url(#id2)}
    .fil11 {fill:url(#id3)}
    .fil6 {fill:url(#id4)}
    .fil13 {fill:url(#id5)}
   ]]>
  </style>
  <linearGradient id="id0" gradientUnits="userSpaceOnUse" x1="1290.59" y1="27.87" x2="1392.77" y2="27.87">
   <stop offset="0" style="stop-opacity:1; stop-color:#002F65"/>
   <stop offset="1" style="stop-opacity:1; stop-color:#008BBF"/>
  </linearGradient>
  <linearGradient id="id1" gradientUnits="userSpaceOnUse" xlink:href="#id0" x1="1248.79" y1="190.06" x2="1592.47" y2="190.06">
  </linearGradient>
  <linearGradient id="id2" gradientUnits="userSpaceOnUse" xlink:href="#id0" x1="1241.69" y1="99.85" x2="1271.73" y2="99.85">
  </linearGradient>
  <linearGradient id="id3" gradientUnits="userSpaceOnUse" x1="1021.98" y1="320.48" x2="1119.16" y2="320.48">
   <stop offset="0" style="stop-opacity:1; stop-color:#D7E9EF"/>
   <stop offset="0.470588" style="stop-opacity:1; stop-color:white"/>
   <stop offset="0.741176" style="stop-opacity:1; stop-color:#D7E9EF"/>
   <stop offset="1" style="stop-opacity:1; stop-color:white"/>
  </linearGradient>
  <linearGradient id="id4" gradientUnits="userSpaceOnUse" x1="994.86" y1="1049.15" x2="1187.18" y2="1049.15">
   <stop offset="0" style="stop-opacity:1; stop-color:#D7E9EF"/>
   <stop offset="0.309804" style="stop-opacity:1; stop-color:white"/>
   <stop offset="0.760784" style="stop-opacity:1; stop-color:#D7E9EF"/>
   <stop offset="1" style="stop-opacity:1; stop-color:white"/>
  </linearGradient>
  <linearGradient id="id5" gradientUnits="userSpaceOnUse" x1="530.83" y1="848.23" x2="1000.54" y2="848.23">
   <stop offset="0" style="stop-opacity:1; stop-color:#D7E9EF"/>
   <stop offset="0.266667" style="stop-opacity:1; stop-color:#EAF3F6"/>
   <stop offset="0.368627" style="stop-opacity:1; stop-color:#FEFEFE"/>
   <stop offset="0.47451" style="stop-opacity:1; stop-color:#EBF4F7"/>
   <stop offset="0.741176" style="stop-opacity:1; stop-color:#D7E9EF"/>
   <stop offset="1" style="stop-opacity:1; stop-color:white"/>
  </linearGradient>
 </defs>
 <g id="Capa_x0020_1">
  <metadata id="CorelCorpID_0Corel-Layer"/>
  <g id="_3146640029728">
   <g>
    <g>
     <path class="fil0" d="M484.04 1030.58c-84.43,0 -152.88,68.45 -152.88,152.88 0,84.43 68.45,152.88 152.88,152.88 39.45,0 75.41,-14.95 102.53,-39.48l0 -226.79c-27.12,-24.53 -63.08,-39.48 -102.53,-39.48z"/>
     <path class="fil1" d="M484.04 1056.53c-70.1,0 -126.92,56.83 -126.92,126.92 0,70.1 56.83,126.92 126.92,126.92 42.12,0 79.44,-20.52 102.53,-52.11l0 -149.63c-23.09,-31.59 -60.41,-52.11 -102.53,-52.11z"/>
     <g>
      <polygon class="fil0 str0" points="506.34,1098.13 460.66,1098.13 460.66,1260.22 506.34,1260.22 "/>
      <polygon class="fil0 str0" points="564.65,1156.15 403.44,1156.15 403.44,1201.64 564.65,1201.64 "/>
     </g>
    </g>
    <path class="fil2" d="M959.77 329.05c-13.84,26.51 -1.01,12.71 8.49,32.6 -8.01,-1.23 -17.69,-4.62 -24.54,-2.32 -6.06,2.04 -7.22,7.21 -13.54,9.13l44.75 -0.53c0.48,0.06 1.64,0.21 2.39,0.51l10.88 30.49c5.79,35.56 30.82,74.74 -13.14,91.38 6.45,-22.06 9.7,-14.14 14.25,-25.7 8.13,-20.63 -14.53,-54.09 -17.66,-86.61l-44.03 0.75c-8.02,44.53 -23.23,72.09 -4.59,98.92 7.27,10.46 4.59,-0.11 8.22,16.03 -38.67,-8.39 -25.6,-52.32 -21.01,-76.72 7.49,-39.78 4.91,-61.29 34.34,-68.82 2.25,-13.9 2.63,-16.28 4.49,-27.8 -11.64,-4.75 -36.17,-3.75 -50.28,2.38 -16.23,7.05 -13.25,19.62 -23.92,36.87 -61.53,99.52 -110.93,179.43 9.24,224.36 -1.45,101.91 -63.62,294.04 -61.14,360.02l11.36 3.52c-3.37,24.42 -15.54,109.82 -24.1,126.03 -24.94,47.23 -27.95,46.8 -50.56,102.05 -25.79,63.02 -63.15,157.78 -78.31,223.91l-81.1 0.46c-6.88,-109.07 -32.62,-476.99 -41.26,-636.73 43.31,-2.33 89.15,-0.2 131.72,-0.53 49.91,-0.39 55.16,19.98 94.75,36.86 -2.04,-43.37 -5.4,-87.38 -8.37,-130.6 -3.12,-45.54 -16.93,-65.51 -59.81,-72.13 -35.67,-4.49 -146.55,1.78 -170.35,-6.17l-4.63 -56.51c63.62,-0.11 80.02,-30.19 76.17,-91.31 -3.34,-52.86 -28.99,-76.92 -83.22,-77.61l-4.45 -68.7 441.61 -0.02c-2.49,16.27 -6.06,19.52 -12.67,32.55z"/>
    <path class="fil3" d="M887.54 1577.09l-2 18.47c77.34,16.17 102.09,52.84 120.83,25.54 -4.01,-12.22 4.6,-3.52 -12.88,-11.68 -15.65,-7.31 -23.48,-13.02 -32.23,-32.33 66.79,5.4 138.5,3.63 206.77,3.38l303.77 11.09c28.83,3.95 66.46,4.22 99.11,5.84 28.65,1.43 66.91,6.62 95.08,9.87 55.18,6.38 42.44,6.67 87.73,17.22 -1.36,16.35 -7.91,16.77 -35.77,21.79 -59.33,10.68 -101.01,12.15 -157.71,18.34 -35.43,3.87 -76.73,1.95 -108.77,6.34l-114.19 4.31c-65.49,-0.12 -160.57,6.81 -226.83,6.77l-748.39 -9.98c-18.72,-1.55 -37.98,1.43 -56.45,-1.1 -32.93,-4.51 -75.81,-2.38 -112.15,-6.34 -31.74,-3.47 -149.2,-12.43 -179.85,-23.29 -10.12,-3.58 -12.52,-3.51 -13.63,-16.84 88.34,-20.58 107.8,-22.15 206.53,-27.08 34.64,-1.73 70.56,-6.94 108.41,-6.7l341.87 -10.23c81.05,0 150.55,-3.39 230.74,-3.39z"/>
    <path class="fil4" d="M988.2 398.93l45.1 111.52 -13.16 57.74 -1.08 4.94c-8.69,-0.14 -13.86,-0.09 -22.61,0.02l-11.09 38.9c5.72,3.84 12.16,6.88 20.77,8.13l-15.23 76.47 117.92 0.63c4.44,19.55 -18.78,237.71 -22.28,277.21l-17.64 -0.23c-83.09,-5.91 -154.83,-16.06 -234.55,-26.76l-11.36 -3.52c-2.48,-65.98 59.69,-258.11 61.14,-360.02 -120.17,-44.93 -70.78,-124.84 -9.24,-224.36 10.67,-17.26 7.69,-29.82 23.92,-36.87 14.11,-6.13 38.64,-7.14 50.28,-2.38 -1.73,12.6 -2.17,13.76 -4.49,27.8 -29.44,7.53 -26.86,29.04 -34.34,68.82 -4.59,24.41 -17.66,68.34 21.01,76.72 -1.77,-7.91 -2.04,-8.91 -2.7,-9.6 -0.69,-0.73 -2.58,-1 -6.29,-6.34 -18.64,-26.83 -2.65,-54.47 5.37,-99.01l44.03 -0.75c9.22,23.89 25.79,65.98 17.66,86.61 -4.56,11.57 -5.77,6.5 -14.25,25.7 43.96,-16.64 18.93,-55.82 13.14,-91.38z"/>
    <path class="fil5" d="M1068.91 974.27c-5.8,68.17 -20.1,144.3 -32.62,210.55 -12.71,67.24 -17.44,141.29 -26.7,207.79l-31.66 79.53c-1.3,8.06 -2.29,9.28 -3.91,19.46 -2.39,14.96 0.05,8.76 0.09,21.25 0.09,29.9 -5.05,20.05 -26.13,20.36l-40.63 -3.24c-25.38,-0.79 -24.13,-6.31 -12.44,-32.99l2.1 -4.67c2.72,-7.31 3.28,-10.38 4.05,-20.17l-1.57 -72.28c7.5,-70.22 21.36,-140.06 31.65,-208.95 20.99,-140.56 22.87,-37.7 18.33,-208.42 -8.53,8.56 -10.52,18.01 -15,29.29l-31.76 79.91c-43.01,97.66 -95.41,216.03 -141.16,307.74l-80.15 0.06c15.17,-66.13 52.53,-160.89 78.31,-223.91 22.61,-55.26 25.62,-54.82 50.56,-102.05 8.56,-16.21 20.73,-101.6 24.1,-126.03 79.72,10.7 151.46,20.85 234.55,26.76z"/>
    <path class="fil6" d="M994.86 1392.61c9.26,-66.5 28.72,-140.55 41.43,-207.79 12.52,-66.26 26.83,-142.39 32.62,-210.55l17.64 0.23c3.5,-39.5 26.72,-257.67 22.28,-277.21l32.47 0.54 45.88 701.77 -151.19 0.48c-39.31,0.23 -41.1,4.55 -41.12,-7.46z"/>
    <path class="fil7" d="M1149.1 697.9c-4.79,22.81 1.87,104.49 4.48,128.32 4.42,40.4 9.11,94.15 9.42,137.6 0.12,17.35 2.71,18.37 3.46,33.3l16.51 244.12c1.99,25.42 2.83,44.88 3.44,70.07l4.84 68.67c8.04,52.74 -11.23,81.88 -61.43,81.73 -50.33,-0.15 -100.66,-0.13 -150.99,-0.13l16.71 -78.49c0.03,11.85 1.8,7.58 40.59,7.36l149.22 -0.47 -44.6 -691.19 -0.05 -0.98c2.92,-0.12 8.39,0.08 8.39,0.08z"/>
    <path class="fil8" d="M907.08 1399.89l-145.56 -0.45c45.75,-91.72 98.16,-210.08 141.16,-307.74l31.76 -79.91c4.48,-11.28 6.47,-20.73 15,-29.29 4.55,170.72 2.67,67.85 -18.33,208.42 -10.29,68.89 -16.54,138.75 -24.04,208.97z"/>
    <path class="fil7" d="M681.38 1399.5l80.15 -0.06 145.56 0.45 -6.04 72.25 -250.42 0c-10.99,-1.25 -35.13,-6.81 -44.73,-22.79 -31.99,-53.28 -8.26,-48.93 0.84,-49.75l74.64 -0.1z"/>
    <path class="fil9" d="M1063.07 190.58c0.99,14.53 3.39,15.76 3.39,33.87 -5.85,11.1 -4.71,24.22 -13.4,35.85 -8.87,11.86 -17.41,11.73 -30.38,19.74l-0.7 16.47c1.32,21.28 9.1,29.34 27.35,33.99 1.07,15.97 -5.86,34.54 -22.79,38.15 -20.29,3.34 -65.27,-39.09 -66.89,-39.63 6.61,-13.03 10.3,-16.24 12.79,-32.51 10.41,-62.97 -28.08,-40.04 -37.78,-77.03 0.69,-12.59 -1.62,-4.73 3.15,-12.37 29.18,-8.73 18.67,5.8 35.45,4.12 0.66,-14.55 -3.79,-13.3 -4.98,-25.74 -1,-10.41 1.64,-17.91 0.96,-29.86 30.21,1 30.71,-8.79 53.21,-15.63 34.02,12.88 25.83,22.11 40.63,50.58z"/>
    <path class="fil4" d="M1119.16 344.46c0.08,0.32 1.58,1.21 4.85,3.6 7.55,14.45 13.84,39.82 20.79,57.15 3.24,8.08 6.45,17.22 10.79,26.45 4.89,10.42 9.58,16.45 12.43,27.54l-117.71 0.59c-1.15,-14.4 -3.71,-31.57 -6.03,-45.94 -4.92,-30.43 -5.04,-14 2.78,-39.69l-15.27 -6.63c4.58,0.53 19.36,-9.88 17.54,-37.04 24.41,7.05 2.76,-0.03 22.76,-0.55 10.86,-0.28 38.37,11.1 47.07,14.52z"/>
    <path class="fil4" d="M1299.37 412.45c8.32,11.18 26.5,21.9 41.32,27.38 -4.64,16.62 -50.82,72.1 -63.81,88.24 -8.63,10.72 -26.75,28.59 -38.29,36.19 -23.3,15.32 -38.28,15.72 -66.22,6.18 2.52,-20.26 8.79,-47.73 12.54,-67.56l19.7 11.82c29.33,-19.88 64.95,-75.24 85.3,-105.64 4.35,2.45 3.58,1.82 9.47,3.39z"/>
    <path class="fil10" d="M1063.07 190.58c-14.79,-28.47 -6.61,-37.7 -40.63,-50.58 -22.5,6.84 -23,16.63 -53.21,15.63 0.69,11.95 -1.95,19.46 -0.96,29.86 1.19,12.44 5.64,11.19 4.98,25.74 -16.78,1.68 -6.27,-12.85 -35.45,-4.12 -35.68,-51.39 -13.77,-51.24 -13.49,-61.58 0.16,-6.04 -8.58,-6.47 -0.05,-24.24 4.96,-4.46 -3.11,-2.95 10.16,6.77 6.6,-24.71 5.92,4.68 49.67,-21.42 41.87,-24.97 94.74,1.29 91.06,30.65 -2.35,18.76 -9.63,8.43 -11.72,25.03 -2.21,17.55 9.06,14.67 -0.36,28.26z"/>
    <path class="fil7" d="M1124.01 348.06c-1.48,-0.63 -4.85,-3.6 -4.85,-3.6l-5.31 -47.92 -91.87 -0.04 0.7 -16.47c12.97,-8 21.51,-7.88 30.38,-19.74 8.7,-11.63 7.56,-24.75 13.4,-35.85 21.94,-2.51 42.89,22.27 48.73,41.09 6.23,20.09 6.13,36.14 7.62,56.14 0.68,9.13 0.36,16.35 1.21,26.37z"/>
    <path class="fil5" d="M944.58 1564.44l16.69 12.65c8.75,19.31 16.58,25.02 32.23,32.33 17.48,8.17 8.87,-0.53 12.88,11.68 -18.74,27.29 -43.49,-9.37 -120.83,-25.54l2 -18.47c6.93,-11.69 4.94,-18.98 16.74,-27.08 6.64,5.63 8.05,5.19 18.24,8.39 8.51,2.68 13.48,4.22 22.05,6.04z"/>
    <path class="fil11" d="M1119.16 344.46c-8.7,-3.42 -36.21,-14.8 -47.07,-14.52 -20,0.52 1.65,7.61 -22.76,0.55 -18.25,-4.65 -26.03,-12.71 -27.35,-33.99l91.87 0.04 5.31 47.92z"/>
    <path class="fil9" d="M1340.69 439.84c-14.81,-5.48 -33,-16.2 -41.32,-27.38 7.78,-8.94 40.19,-29.25 54.86,-30.47 9.48,6.35 20.37,14.6 23.7,27.08 -3.85,14.43 -22.38,26.68 -37.24,30.77z"/>
    <path class="fil9" d="M1008.54 618.95c-8.32,-2.34 -14.76,-5.22 -21.66,-8.04l10.77 -36.68 23.25 -0.31c8.03,-0.11 19.92,3.62 26.78,7.71 15.22,9.06 13.45,42.91 -12.99,41.57 -8.2,-0.41 -14.52,-2.05 -26.16,-4.25z"/>
    <path class="fil9" d="M947.96 1533.21c0,17.04 -3.06,15.25 -3.39,31.23 -8.57,-1.82 -13.54,-3.37 -22.05,-6.04 -10.19,-3.2 -11.6,-2.76 -18.24,-8.39 -0.18,-10.31 1.14,-12.18 3.05,-20.04l40.63 3.24z"/>
    <path class="fil12 str1" d="M1063.09 334.46c18.71,-1.02 32.39,42.48 37.33,57.39 -0.67,0.03 -3.25,0.62 -4.05,-0.39 -6.41,-8.13 -15.24,-47.3 -33.28,-57z"/>
    <path class="fil1 str2" d="M1094 388.05c3.47,-1.07 7.59,2.32 9.2,7.56 1.61,5.24 0.09,10.35 -3.38,11.42 -3.47,1.07 -7.59,-2.32 -9.2,-7.56 -1.61,-5.24 -0.1,-10.35 3.38,-11.42z"/>
    <path class="fil13" d="M959.64 329.01c-7.07,22.95 -17.88,4.61 15.28,38.92 0.48,0.06 1.64,0.21 2.39,0.51l10.88 30.49c5.79,35.56 30.82,74.74 -13.14,91.38 9.43,-19.84 11.29,-13.76 15.84,-25.32 8.13,-20.63 -13.83,-72.8 -19.24,-86.99l-44.03 0.75c-8.02,44.53 -24.88,72.66 -6.25,99.49 7.27,10.46 6.25,-0.68 9.87,15.46 -38.67,-8.39 -25.6,-52.32 -21.01,-76.72 7.49,-39.78 4.91,-61.29 34.34,-68.82 1.64,-9.32 2.99,-18.49 4.49,-27.8 -11.64,-4.75 -36.17,-3.75 -50.28,2.38 -16.23,7.05 -13.25,19.62 -23.92,36.87 -61.53,99.52 -110.93,179.43 9.24,224.36 -1.45,101.91 -63.62,294.04 -61.14,360.02l11.36 3.52c-3.37,24.42 -15.54,109.82 -24.1,126.03 -24.94,47.23 -27.95,46.8 -50.56,102.05 -25.79,63.02 -63.15,157.78 -78.31,223.91l-81.1 0.46c-6.88,-109.07 -32.62,-476.99 -41.26,-636.73 43.31,-2.33 89.15,-0.2 131.72,-0.53 49.91,-0.39 55.16,19.98 94.75,36.86 -2.04,-43.37 -5.4,-87.38 -8.37,-130.6 -3.12,-45.54 -16.93,-65.51 -59.81,-72.13 -35.67,-4.49 -142.71,1.78 -166.52,-6.17l-4.63 -56.51c63.62,-0.11 76.19,-30.19 72.33,-91.31 -3.34,-52.86 -28.99,-76.92 -83.22,-77.61l-4.45 -68.7 441.61 -0.02c-2.49,16.27 -6.19,19.48 -12.79,32.51z"/>
    <path class="fil1 str2" d="M1062.06 334c-3.46,-0.9 -12.58,-3.45 -12.65,-2.22 -3.77,66.17 -67.15,34.31 -85.29,-2.85 -3.87,-7.92 -5.41,-0.39 -5.41,-0.39l4.58 10.87 -31.67 17.58 -10.28 14.48 56.76 3.1 54.99 132.85c2.57,-12.38 5.08,-46.65 23.29,-48.51 0.88,-42.38 4.8,-82.53 5.68,-124.91z"/>
    <path class="fil12" d="M977.05 368.3c-0.5,0.02 -6.57,0.11 -6.57,0.11 -2.33,-12.01 -8.72,-12.81 -17.94,-13.3 -12.91,-0.69 -23.84,1.79 -22.36,13.35 6.01,-0.1 36.8,0.05 44.23,-0.09 0.82,-0.01 2.48,-0.05 2.63,-0.07l10.88 31.45c5.79,35.56 30.82,74.74 -13.14,91.38 6.45,-22.06 9.7,-14.14 14.25,-25.7 7.11,-11.74 -8.3,-51.23 -17.38,-87.43l-44.03 0.75c-8.02,44.53 -23.51,72.91 -4.87,99.73 7.27,10.46 4.87,-0.93 8.49,15.22 -29.53,-6.72 -31.88,-31.35 -20.04,-82.06 6.98,-29.92 2.58,-55.86 33.38,-63.49l4.49 -27.8 13 4.01c-11.1,22.37 -9.74,21 -5.11,24.74 2.54,2.05 17.3,0.93 20.08,19.2z"/>
    <path class="fil1 str2" d="M978.07 477.15c-2.8,0 -5.06,3.19 -5.06,7.12 0,3.93 2.26,7.12 5.06,7.12 2.8,0 5.06,-3.19 5.06,-7.12 0,-3.93 -2.26,-7.12 -5.06,-7.12z"/>
    <path class="fil1 str2" d="M928.48 480.91c-2.68,0.78 -3.96,4.48 -2.86,8.26 1.1,3.78 4.17,6.2 6.85,5.42 2.68,-0.78 3.96,-4.48 2.86,-8.26 -1.11,-3.78 -4.17,-6.2 -6.86,-5.42z"/>
    <path class="fil12" d="M1048.56 460.73l-12.58 49.2 -9.72 -27.5c1.53,-17.98 1.93,-37.32 2.52,-56.15 0.85,-27.44 5.22,-32.85 -15.98,-41.77l11.14 -15.19 5.14 -1.59 15.74 5.68c-5.79,27.46 -6.95,10.29 0.32,41.67l3.42 45.66z"/>
    <polygon class="fil1" points="999.11,695.96 995.23,695.95 951.42,959.92 957.02,960.58 "/>
    <polygon class="fil14 str3" points="882.83,458.72 866.88,496.56 883.84,509.51 "/>
    <path class="fil7" d="M972.44 296.5l-439.11 -0.18 73.12 1103.42 -9.51 0.78 -82.15 -1099.97c-2.45,-28.74 -1.06,-43.04 12.44,-58.3 16.36,-18.49 34.94,-23.23 58.46,-23.93 113.59,-3.37 234.47,1.16 348.98,1.16 9.7,36.99 48.19,14.06 37.78,77.03z"/>
    <path class="fil1" d="M816.39 265.51c-45.96,0 -60.01,0.39 -60.22,-10.35 -0.18,-9.18 33.75,-9.15 52.19,-8.59 6.83,0.21 13.34,0.49 20.2,0.42 19.75,-0.22 53.41,-0.96 56.25,9.15 3.43,12.19 -41.69,9.37 -68.42,9.37z"/>
    <path class="fil12" d="M575.87 218.59c-47.26,-0.64 -71.63,34.92 -65.25,77.96l2.09 69.05 18.73 -0.38 -5.07 -69.66c-2.98,-53.32 -1.64,-61.53 49.5,-76.97z"/>
    <path class="fil0" d="M712.74 591.24c42.88,6.62 61.26,32.18 64.38,77.72 2.96,43.22 6.33,87.23 8.37,130.6 -39.59,-16.88 -44.84,-37.25 -94.75,-36.86 -42.57,0.33 -88.42,-1.8 -131.72,0.53l4.1 75.72c5.66,112.93 15.14,225.92 22.71,338.68 3.77,56.08 7.45,112.13 11.33,168.37 1.43,20.68 1.96,62.53 7.21,80.31 9.3,31.48 25.51,31.48 46.26,45.82 -36.97,-0.77 -60.09,-34.23 -61.59,-71.04 -1.8,-44.18 -5.48,-81.31 -7.02,-125.32l-3.08 -32.87 0.19 -4.37 -10.16 -148.96 0.63 -3.39 -4.18 -37.24c-0.07,-37.43 -6.3,-81.68 -6.85,-104.89 -0.38,-16.07 -0.84,-23.42 -2.4,-34.85l-7.7 -144.65c-103.46,0 -215.25,25.7 -220.1,-77.83 -2.07,-44.15 -3.93,-87.03 52.05,-97 30.74,-5.47 117.22,0.87 153.4,0.87l-3.7 -56.41 10.13 0 4.09 56.88 168.41 0.15z"/>
    <path class="fil0 str1" d="M1186.99 463.44c-43.47,-0.68 -83.1,-1.39 -126.56,-2.08 -2.82,-0.04 -9.15,0.25 -9.92,3.12l-25.39 106.78c10.74,2.48 22.01,5.61 27.72,11.55 13.24,13.75 8.05,45.06 -19.4,42.62l-23.8 -3.33 -13.2 67.97c-0.54,2.12 0.09,2.79 2.22,2.79 51.02,0 97.25,1.92 148.27,1.92 1.93,0 2.48,-0.7 2.84,-2.63l41.51 -223.56c0.67,-3.66 -0.67,-5.08 -4.28,-5.13z"/>
    <g>
     <polygon class="fil1" points="717.52,638.62 384.34,638.62 384.34,658.93 717.52,658.93 "/>
     <polygon class="fil1" points="717.52,687.94 586.48,687.94 586.48,708.25 717.52,708.25 "/>
     <polygon class="fil1" points="541.78,687.94 442.23,687.94 442.23,708.25 541.78,708.25 "/>
    </g>
    <g>
     <path class="fil7" d="M236.99 354.9c-17.88,1.49 -40.62,10.45 -50,21.09 -14.51,16.47 -17.71,30.65 -17.71,53.39l-6.77 0c0,-45.73 29.64,-80.26 74.48,-81.25l0 6.77z"/>
     <path class="fil7" d="M172.66 490.32l-6.77 0c0,-19.79 -3.38,-23.66 -3.38,-40.63l6.77 0c0.33,14.76 3.39,21.19 3.39,40.63z"/>
     <path class="fil7" d="M536.18 365.28c54.23,0.69 79.88,24.75 83.22,77.61 3.86,61.12 -7.91,91.52 -71.54,91.63l-4.63 -0.32 -17.57 -0.01c-32.38,0.73 -260.81,-4.47 -278.3,2.9 -18.27,7.69 -42.01,30.29 -60.25,34.54 0,-26.03 -3.27,-42.87 -3.44,-64.27 -0.58,-71.08 -20.48,-108.03 27.09,-135.53 10.37,-6 13.52,-6.84 30.34,-6.9l281.19 0.18 13.9 0.17z"/>
    </g>
    <polygon class="fil1" points="563.12,406.78 229.93,406.78 229.93,427.1 563.12,427.1 "/>
    <polygon class="fil1" points="463.57,456.1 229.93,456.1 229.93,476.42 463.57,476.42 "/>
   </g>
   <path class="fil15" d="M1248.79 181.13c0,248.65 343.67,229.34 343.67,9.29 0,-148.26 -180.71,-229.18 -291.6,-124.4 -24.69,23.33 -52.08,68.46 -52.08,115.12z"/>
   <g>
    <path class="fil16" d="M1290.59 55.73c25.79,-17.27 61.26,-45.53 102.17,-46.44l0 -9.29c-21.88,0.49 -45.61,10.9 -60.48,18.47 -17.64,8.98 -36.36,17.29 -41.69,37.26z"/>
    <path class="fil17" d="M1248.79 125.4c12.06,-51.79 35.98,-35.16 13.93,-51.09 -8.26,30.94 -33.13,37.23 -13.93,51.09z"/>
   </g>
   <g>
    <path class="fil18" d="M1337.89 142.17c0,3.42 0.35,6.59 0.84,9.97 0.45,3.15 1.5,6.4 1.56,9.25l15.02 0c0,-15.69 -5.29,-29.31 8.56,-43.12 16.03,-15.99 37.59,-12.76 52.28,3.92 1.14,1.3 1.81,2.25 2.99,3.62 1.39,1.6 1.73,2.57 3.47,3.74 3.91,-2.62 21.98,-31.79 48.48,-18.44 14.4,7.26 20.02,17.19 20.02,33.46 0,24.33 -52.25,105.68 -78.03,80.58 -1.24,-1.2 -5.59,-1.86 -11.51,-1.86 0,6.05 -0.06,9.3 0.03,11.49 0.08,1.76 20.03,14.35 21.21,14.06 33.91,-8.66 101.28,-82.02 80.12,-127.51 -2.74,-5.88 -5.59,-9.87 -9.87,-14.17 -6.77,-6.81 -19.94,-14.87 -33.2,-14.87l-0.43 0c-8.95,0.01 -14.56,0.44 -23.22,4.59 -5.36,2.57 -9.07,5.59 -13.61,8.62 -2.13,-1.43 -3.87,-2.98 -6.24,-4.57 -2.63,-1.76 -4.48,-2.58 -7.37,-4.04 -5.19,-2.62 -10.73,-4.13 -16.35,-4.6l-7.89 0c-11.84,0.98 -23.45,6.32 -32.3,15.17 -2.4,2.4 -3.61,3.6 -5.65,6.36 -1.61,2.18 -3.64,5.5 -4.64,7.98 -2.37,5.87 -4.28,12.2 -4.28,20.36z"/>
    <polygon class="fil18" points="1361.33,180.63 1334.29,180.63 1334.29,210.67 1361.33,210.67 1361.33,237.71 1391.37,237.71 1391.37,210.67 1418.41,210.67 1418.41,180.63 1391.37,180.63 1391.37,153.59 1361.33,153.59 "/>
   </g>
   <path class="fil19" d="M1347.92 277.88c0,1.86 -0.54,3.53 -1.62,5.02 -1.08,1.49 -2.66,2.65 -4.74,3.49 -2.08,0.84 -4.56,1.26 -7.41,1.26 -3.43,0 -6.25,-0.57 -8.47,-1.72 -1.58,-0.82 -2.85,-1.93 -3.84,-3.31 -0.98,-1.38 -1.48,-2.72 -1.48,-4.03 0,-0.75 0.3,-1.4 0.89,-1.94 0.59,-0.54 1.34,-0.8 2.25,-0.8 0.75,0 1.37,0.21 1.88,0.63 0.51,0.42 0.95,1.04 1.32,1.88 0.44,0.98 0.92,1.8 1.43,2.45 0.52,0.66 1.24,1.21 2.17,1.64 0.94,0.42 2.16,0.64 3.68,0.64 2.08,0 3.77,-0.43 5.07,-1.29 1.3,-0.86 1.95,-1.94 1.95,-3.23 0,-1.03 -0.35,-1.86 -1.05,-2.49 -0.71,-0.64 -1.62,-1.13 -2.73,-1.46 -1.11,-0.34 -2.6,-0.7 -4.46,-1.08 -2.49,-0.52 -4.58,-1.13 -6.25,-1.82 -1.68,-0.7 -3.01,-1.64 -4,-2.84 -0.99,-1.2 -1.48,-2.69 -1.48,-4.47 0,-1.69 0.52,-3.2 1.56,-4.52 1.04,-1.31 2.55,-2.33 4.52,-3.04 1.97,-0.71 4.29,-1.06 6.96,-1.06 2.12,0 3.97,0.24 5.53,0.7 1.55,0.48 2.84,1.1 3.87,1.88 1.02,0.77 1.77,1.59 2.25,2.45 0.47,0.85 0.71,1.69 0.71,2.51 0,0.74 -0.3,1.41 -0.89,2.01 -0.59,0.6 -1.33,0.89 -2.21,0.89 -0.81,0 -1.41,-0.18 -1.83,-0.53 -0.42,-0.36 -0.87,-0.95 -1.36,-1.76 -0.64,-1.16 -1.39,-2.07 -2.28,-2.73 -0.88,-0.65 -2.3,-0.98 -4.27,-0.98 -1.81,0 -3.28,0.35 -4.39,1.06 -1.11,0.71 -1.67,1.56 -1.67,2.56 0,0.62 0.19,1.15 0.57,1.6 0.38,0.45 0.9,0.83 1.57,1.16 0.66,0.32 1.33,0.58 2.01,0.76 0.68,0.18 1.8,0.45 3.36,0.8 1.95,0.41 3.73,0.85 5.32,1.35 1.58,0.49 2.93,1.08 4.05,1.79 1.11,0.7 1.98,1.59 2.6,2.66 0.62,1.08 0.94,2.39 0.94,3.95zm6.25 5.96l0 -24.29c0,-1.26 0.32,-2.2 0.97,-2.84 0.64,-0.63 1.49,-0.95 2.51,-0.95 1.05,0 1.91,0.31 2.56,0.93 0.66,0.63 0.98,1.57 0.98,2.85l0 24.29c0,1.28 -0.33,2.22 -0.98,2.86 -0.66,0.63 -1.51,0.95 -2.56,0.95 -1.01,0 -1.84,-0.32 -2.49,-0.95 -0.65,-0.64 -0.99,-1.59 -0.99,-2.85zm26.6 -1.36l-5.57 -19.64 0 21.28c0,1.18 -0.3,2.06 -0.89,2.65 -0.59,0.59 -1.37,0.88 -2.34,0.88 -0.94,0 -1.72,-0.3 -2.32,-0.88 -0.6,-0.58 -0.9,-1.46 -0.9,-2.66l0 -24.39c0,-1.35 0.4,-2.25 1.18,-2.73 0.79,-0.47 1.86,-0.7 3.19,-0.7l2.18 0c1.31,0 2.25,0.11 2.84,0.32 0.59,0.21 1.03,0.59 1.32,1.13 0.28,0.55 0.6,1.44 0.97,2.67l5.04 16.9 5.04 -16.9c0.37,-1.23 0.69,-2.12 0.97,-2.67 0.28,-0.54 0.72,-0.93 1.31,-1.13 0.59,-0.21 1.54,-0.32 2.85,-0.32l2.17 0c1.34,0 2.41,0.24 3.2,0.7 0.78,0.48 1.18,1.38 1.18,2.73l0 24.39c0,1.18 -0.3,2.06 -0.89,2.65 -0.59,0.59 -1.38,0.88 -2.37,0.88 -0.93,0 -1.7,-0.3 -2.29,-0.88 -0.6,-0.59 -0.9,-1.47 -0.9,-2.65l0 -21.28 -5.56 19.64c-0.37,1.27 -0.66,2.21 -0.89,2.81 -0.23,0.59 -0.64,1.13 -1.26,1.62 -0.62,0.49 -1.47,0.74 -2.56,0.74 -0.82,0 -1.52,-0.16 -2.08,-0.47 -0.57,-0.32 -1.01,-0.72 -1.33,-1.21 -0.32,-0.49 -0.57,-1.03 -0.74,-1.63 -0.19,-0.6 -0.37,-1.22 -0.56,-1.86zm36.71 -4.01l-7.48 0c-1.14,0 -2,-0.24 -2.59,-0.7 -0.59,-0.48 -0.89,-1.08 -0.89,-1.83 0,-0.75 0.29,-1.37 0.87,-1.84 0.57,-0.47 1.45,-0.71 2.62,-0.71l7.48 0c1.17,0 2.04,0.24 2.62,0.71 0.57,0.47 0.86,1.09 0.86,1.84 0,0.75 -0.28,1.36 -0.86,1.83 -0.57,0.47 -1.44,0.7 -2.62,0.7zm17.26 -18.95l13.51 18.18 0 -18.35c0,-1.19 0.29,-2.08 0.86,-2.68 0.57,-0.6 1.35,-0.9 2.33,-0.9 1,0 1.8,0.3 2.38,0.89 0.58,0.59 0.87,1.49 0.87,2.69l0 24.24c0,2.71 -1.26,4.06 -3.78,4.06 -0.63,0 -1.2,-0.08 -1.71,-0.24 -0.5,-0.16 -0.98,-0.42 -1.41,-0.76 -0.45,-0.35 -0.85,-0.76 -1.23,-1.23 -0.38,-0.47 -0.76,-0.95 -1.14,-1.44l-13.17 -17.95 0 18.05c0,1.18 -0.31,2.07 -0.92,2.67 -0.62,0.6 -1.42,0.9 -2.38,0.9 -0.99,0 -1.79,-0.3 -2.39,-0.91 -0.61,-0.61 -0.9,-1.5 -0.9,-2.66l0 -23.78c0,-1.01 0.13,-1.8 0.38,-2.38 0.3,-0.63 0.8,-1.15 1.49,-1.55 0.69,-0.4 1.44,-0.6 2.25,-0.6 0.64,0 1.18,0.09 1.62,0.27 0.45,0.19 0.85,0.43 1.19,0.74 0.34,0.31 0.68,0.7 1.04,1.2 0.36,0.49 0.73,1 1.11,1.54zm50.51 1.59l-15.83 0 0 7.58 14.58 0c1.07,0 1.87,0.22 2.4,0.64 0.53,0.42 0.79,0.99 0.79,1.69 0,0.7 -0.26,1.27 -0.78,1.71 -0.53,0.44 -1.32,0.66 -2.42,0.66l-14.58 0 0 8.79 16.37 0c1.11,0 1.94,0.23 2.49,0.68 0.57,0.45 0.85,1.06 0.85,1.82 0,0.72 -0.28,1.32 -0.85,1.77 -0.56,0.45 -1.39,0.68 -2.49,0.68l-19.1 0c-1.53,0 -2.63,-0.3 -3.3,-0.9 -0.67,-0.6 -1.01,-1.58 -1.01,-2.92l0 -23.19c0,-0.9 0.15,-1.63 0.45,-2.2 0.3,-0.57 0.77,-0.98 1.41,-1.24 0.64,-0.26 1.45,-0.39 2.45,-0.39l18.56 0c1.12,0 1.95,0.22 2.49,0.66 0.54,0.45 0.82,1.03 0.82,1.74 0,0.73 -0.28,1.32 -0.82,1.77 -0.54,0.44 -1.37,0.66 -2.49,0.66zm32.01 0.35l-7.67 0 0 22.39c0,1.29 -0.32,2.25 -0.98,2.87 -0.64,0.62 -1.49,0.93 -2.51,0.93 -1.04,0 -1.9,-0.32 -2.55,-0.95 -0.66,-0.63 -0.98,-1.58 -0.98,-2.86l0 -22.39 -7.67 0c-1.2,0 -2.09,-0.24 -2.67,-0.7 -0.58,-0.47 -0.88,-1.1 -0.88,-1.87 0,-0.8 0.31,-1.43 0.91,-1.9 0.6,-0.47 1.49,-0.7 2.64,-0.7l22.36 0c1.22,0 2.12,0.24 2.71,0.72 0.59,0.48 0.89,1.11 0.89,1.88 0,0.77 -0.31,1.4 -0.9,1.87 -0.6,0.47 -1.49,0.7 -2.7,0.7z"/>
  </g>
 </g>
</svg>
