<?xml version="1.0" encoding="utf-8"?>
<!-- Generator: Adobe Illustrator 26.2.1, SVG Export Plug-In . SVG Version: 6.00 Build 0)  -->
<svg version="1.1" id="Capa_1" xmlns="http://www.w3.org/2000/svg" xmlns:xlink="http://www.w3.org/1999/xlink" x="0px" y="0px"
	 viewBox="0 0 888.7 84.5" style="enable-background:new 0 0 888.7 84.5;" xml:space="preserve">
<style type="text/css">
	.st0{fill:url(#SVGID_1_);}
	.st1{fill:url(#SVGID_00000088847183743520694010000013686886217818813856_);}
	.st2{fill:url(#SVGID_00000031207540696367307810000000443860085156103826_);}
	.st3{fill:url(#SVGID_00000101787260427006880160000017952955677721475468_);}
	.st4{fill:url(#SVGID_00000092442529350463962940000000839218181519016589_);}
	.st5{fill:url(#SVGID_00000073682946906532147170000001706161991803501184_);}
	.st6{fill:url(#SVGID_00000126298560186605181170000005026420336537991553_);}
	.st7{fill:url(#SVGID_00000108269940862127247590000004390878496786084234_);}
	.st8{fill:url(#SVGID_00000174596274672998396910000015236952824671615139_);}
	.st9{fill:url(#SVGID_00000084511516656872226570000011246889267577282727_);}
	.st10{fill:#293281;}
</style>
<g>
	
		<linearGradient id="SVGID_1_" gradientUnits="userSpaceOnUse" x1="650.368" y1="209.9578" x2="-219.9021" y2="-22.451" gradientTransform="matrix(1 0 0 -1 0 86)">
		<stop  offset="0" style="stop-color:#078FCA"/>
		<stop  offset="0.1296" style="stop-color:#0A86C3"/>
		<stop  offset="0.3383" style="stop-color:#136FB1"/>
		<stop  offset="0.5985" style="stop-color:#214893"/>
		<stop  offset="0.7315" style="stop-color:#293281"/>
	</linearGradient>
	<path class="st0" d="M48.7,74.2c-5.3,6.5-13.3,10.3-21.3,10.3C12.3,84.6,0,71,0,54.4c0-2.7,0.4-5.3,1-7.9h9.1
		c-0.9,2.5-1.3,5.1-1.3,7.9c0,11.8,8.4,21.4,18.6,21.4c5.4,0,11-2.7,14.6-7.1c3.2-3.9,4.5-8.7,3.5-13.4C43.2,44,35.4,40.1,27.2,35.9
		c-7.7-3.9-16.4-8.2-16.4-19.4C10.7,7.4,18.2,0,27.4,0s16.7,7.4,16.7,16.5c0,0.5,0,0.9-0.1,1.4h-8.8c0.1-0.4,0.1-0.9,0.1-1.4
		c0-4.3-3.6-7.8-7.9-7.8s-7.9,3.5-7.9,7.8c0,5.5,4,7.8,11.6,11.6c8.8,4.4,19.9,9.9,23,25.4C55.5,60.9,53.7,68.2,48.7,74.2z"/>
	
		<linearGradient id="SVGID_00000156561451579715342170000000656684841054013598_" gradientUnits="userSpaceOnUse" x1="655.2485" y1="191.6844" x2="-215.0219" y2="-40.7245" gradientTransform="matrix(1 0 0 -1 0 86)">
		<stop  offset="0" style="stop-color:#078FCA"/>
		<stop  offset="0.1296" style="stop-color:#0A86C3"/>
		<stop  offset="0.3383" style="stop-color:#136FB1"/>
		<stop  offset="0.5985" style="stop-color:#214893"/>
		<stop  offset="0.7315" style="stop-color:#293281"/>
	</linearGradient>
	<path style="fill:url(#SVGID_00000156561451579715342170000000656684841054013598_);" d="M139.2,2.8v51.8
		c0,16.1-13.1,29.3-29.3,29.3c-16.1,0-29.3-13.1-29.3-29.3V2.8h8.8v51.8c0,11.3,9.2,20.5,20.5,20.5s20.5-9.2,20.5-20.5V2.8H139.2z"
		/>
	
		<linearGradient id="SVGID_00000041253312852604729160000002770866197313419930_" gradientUnits="userSpaceOnUse" x1="656.5818" y1="173.7394" x2="-213.6887" y2="-58.6695" gradientTransform="matrix(1 0 0 -1 0 86)">
		<stop  offset="0" style="stop-color:#078FCA"/>
		<stop  offset="0.1296" style="stop-color:#0A86C3"/>
		<stop  offset="0.3383" style="stop-color:#136FB1"/>
		<stop  offset="0.5985" style="stop-color:#214893"/>
		<stop  offset="0.7315" style="stop-color:#293281"/>
	</linearGradient>
	<path style="fill:url(#SVGID_00000041253312852604729160000002770866197313419930_);" d="M223.8,31.3c0,15.7-12.8,28.5-28.5,28.5
		H174v22h-8.8v-79h8.8l0,0h21.3C211,2.8,223.8,15.6,223.8,31.3z M215,31.3c0-10.9-8.9-19.8-19.8-19.8h-21.3V51h21.3
		C206.1,51,215,42.2,215,31.3z"/>
	
		<linearGradient id="SVGID_00000042719383672992183780000005986237380180094391_" gradientUnits="userSpaceOnUse" x1="663.7652" y1="146.9921" x2="-206.5044" y2="-85.4166" gradientTransform="matrix(1 0 0 -1 0 86)">
		<stop  offset="0" style="stop-color:#078FCA"/>
		<stop  offset="0.1296" style="stop-color:#0A86C3"/>
		<stop  offset="0.3383" style="stop-color:#136FB1"/>
		<stop  offset="0.5985" style="stop-color:#214893"/>
		<stop  offset="0.7315" style="stop-color:#293281"/>
	</linearGradient>
	<path style="fill:url(#SVGID_00000042719383672992183780000005986237380180094391_);" d="M258.7,11.5v26.3h26.6v8.8h-26.6V73h45.4
		v8.8h-54.2v-79h54.2v8.8h-45.4V11.5z"/>
	
		<linearGradient id="SVGID_00000169515524326488351400000013954342564218388646_" gradientUnits="userSpaceOnUse" x1="664.3906" y1="136.193" x2="-205.8805" y2="-96.2161" gradientTransform="matrix(1 0 0 -1 0 86)">
		<stop  offset="0" style="stop-color:#078FCA"/>
		<stop  offset="0.1296" style="stop-color:#0A86C3"/>
		<stop  offset="0.3383" style="stop-color:#136FB1"/>
		<stop  offset="0.5985" style="stop-color:#214893"/>
		<stop  offset="0.7315" style="stop-color:#293281"/>
	</linearGradient>
	<path style="fill:url(#SVGID_00000169515524326488351400000013954342564218388646_);" d="M388.7,51.1v8.8c-12.7,0-24-8.2-27.9-19.9
		h-21.9v19.9h-8.8V2.6h39.8c10.3,0,18.7,8.4,18.7,18.7c0,10.2-8.2,18.5-18.4,18.7C373.7,46.7,380.8,51.1,388.7,51.1z M338.9,31.3
		H370c5.5,0,9.9-4.5,9.9-9.9c0-5.5-4.5-9.9-9.9-9.9h-31.1V31.3z"/>
	
		<linearGradient id="SVGID_00000000919933229635131300000003454430584978350509_" gradientUnits="userSpaceOnUse" x1="669.3147" y1="106.2983" x2="-200.9556" y2="-126.1106" gradientTransform="matrix(1 0 0 -1 0 86)">
		<stop  offset="0" style="stop-color:#078FCA"/>
		<stop  offset="0.1296" style="stop-color:#0A86C3"/>
		<stop  offset="0.3383" style="stop-color:#136FB1"/>
		<stop  offset="0.5985" style="stop-color:#214893"/>
		<stop  offset="0.7315" style="stop-color:#293281"/>
	</linearGradient>
	<path style="fill:url(#SVGID_00000000919933229635131300000003454430584978350509_);" d="M473.7,59.9c0,12.1-9.8,21.9-21.9,21.9
		h-36.6v-79h36.6c12.1,0,21.9,9.8,21.9,21.9c0,7.2-3.5,13.6-8.8,17.6C470.2,46.3,473.7,52.7,473.7,59.9z M465,59.9
		c0-7.3-5.9-13.2-13.2-13.2l0,0c-6.8,0-11.6-2.1-15.8-3.9c-4.1-1.8-7.4-3.2-12-2.7V73h27.9C459.1,73,465,67.1,465,59.9z M424,11.5
		v19.8c6.5-0.5,11.2,1.6,15.5,3.4c3.8,1.6,7.4,3.2,12.3,3.2l0,0c7.3,0,13.2-6,13.2-13.3s-5.9-13.2-13.2-13.2L424,11.5L424,11.5z"/>
	
		<linearGradient id="SVGID_00000001659535723413690810000015471073076451735461_" gradientUnits="userSpaceOnUse" x1="671.7175" y1="88.4621" x2="-198.5466" y2="-143.9452" gradientTransform="matrix(1 0 0 -1 0 86)">
		<stop  offset="0" style="stop-color:#078FCA"/>
		<stop  offset="0.1296" style="stop-color:#0A86C3"/>
		<stop  offset="0.3383" style="stop-color:#136FB1"/>
		<stop  offset="0.5985" style="stop-color:#214893"/>
		<stop  offset="0.7315" style="stop-color:#293281"/>
	</linearGradient>
	<path style="fill:url(#SVGID_00000001659535723413690810000015471073076451735461_);" d="M499.7,81.8v-79h8.8v79H499.7z"/>
	
		<linearGradient id="SVGID_00000147936948459464458560000017120836803776940188_" gradientUnits="userSpaceOnUse" x1="672.4135" y1="73.2815" x2="-197.856" y2="-159.1272" gradientTransform="matrix(1 0 0 -1 0 86)">
		<stop  offset="0" style="stop-color:#078FCA"/>
		<stop  offset="0.1296" style="stop-color:#0A86C3"/>
		<stop  offset="0.3383" style="stop-color:#136FB1"/>
		<stop  offset="0.5985" style="stop-color:#214893"/>
		<stop  offset="0.7315" style="stop-color:#293281"/>
	</linearGradient>
	<path style="fill:url(#SVGID_00000147936948459464458560000017120836803776940188_);" d="M543.3,11.5v26.3h26.6v8.8h-26.6V73h45.4
		v8.8h-54.2v-79h54.2v8.8h-45.4V11.5z"/>
	
		<linearGradient id="SVGID_00000111871083805267648600000015059518833098250939_" gradientUnits="userSpaceOnUse" x1="676.9006" y1="52.5137" x2="-193.3692" y2="-179.895" gradientTransform="matrix(1 0 0 -1 0 86)">
		<stop  offset="0" style="stop-color:#078FCA"/>
		<stop  offset="0.1296" style="stop-color:#0A86C3"/>
		<stop  offset="0.3383" style="stop-color:#136FB1"/>
		<stop  offset="0.5985" style="stop-color:#214893"/>
		<stop  offset="0.7315" style="stop-color:#293281"/>
	</linearGradient>
	<path style="fill:url(#SVGID_00000111871083805267648600000015059518833098250939_);" d="M673.4,2.8v79h-8.8V52.9
		c-5-11.5-13.7-16.6-23-22c-6.3-3.6-12.7-7.4-18-13.1v63.9h-8.8v-79h9.2c4.8,10.5,13.2,15.4,22,20.6c6.2,3.6,12.9,7.5,18.6,13.6V2.8
		H673.4z"/>
	
		<linearGradient id="SVGID_00000129186776146324116950000000469784575649398170_" gradientUnits="userSpaceOnUse" x1="675.9021" y1="93.0905" x2="-194.3708" y2="-139.3191" gradientTransform="matrix(1 0 0 -1 0 86)">
		<stop  offset="0" style="stop-color:#078FCA"/>
		<stop  offset="0.1296" style="stop-color:#0A86C3"/>
		<stop  offset="0.3383" style="stop-color:#136FB1"/>
		<stop  offset="0.5985" style="stop-color:#214893"/>
		<stop  offset="0.7315" style="stop-color:#293281"/>
	</linearGradient>
	
		<rect x="330.2" y="73" style="fill:url(#SVGID_00000129186776146324116950000000469784575649398170_);" width="58.6" height="8.8"/>
	<path class="st10" d="M882.8,74.2c-5.3,6.5-13.3,10.3-21.3,10.3c-15.1,0-27.4-13.5-27.4-30.1c0-2.7,0.4-5.3,1-7.9h9.1
		c-0.9,2.5-1.3,5.1-1.3,7.9c0,11.8,8.4,21.4,18.6,21.4c5.4,0,11-2.7,14.6-7.1c3.2-3.9,4.5-8.7,3.5-13.4
		c-2.3-11.3-10.1-15.2-18.4-19.4c-7.7-3.9-16.4-8.2-16.4-19.4c0-9.1,7.5-16.5,16.7-16.5s16.7,7.4,16.7,16.5c0,0.5,0,0.9-0.1,1.4
		h-8.8c0.1-0.4,0.1-0.9,0.1-1.4c0-4.3-3.6-7.8-7.9-7.8c-4.4,0-7.9,3.5-7.9,7.8c0,5.5,4,7.8,11.6,11.6c8.8,4.4,19.9,9.9,23,25.4
		C889.6,60.9,887.7,68.2,882.8,74.2z"/>
	<path class="st10" d="M818.9,31.3c0,15.7-12.8,28.5-28.5,28.5h-21.3v22h-8.8v-79h8.8l0,0h21.3C806.1,2.8,818.9,15.6,818.9,31.3z
		 M810.1,31.3c0-10.9-8.9-19.8-19.8-19.8H769V51h21.4C801.2,51,810.1,42.2,810.1,31.3z"/>
	<path class="st10" d="M725.5,81.8v-79h8.8v79H725.5z"/>
</g>
</svg>
