<?xml version="1.0" encoding="UTF-8"?>
<!DOCTYPE svg PUBLIC "-//W3C//DTD SVG 1.1//EN" "http://www.w3.org/Graphics/SVG/1.1/DTD/svg11.dtd">
<!-- Creator: CorelDRAW 2020 (64-Bit) -->
<svg xmlns="http://www.w3.org/2000/svg" xml:space="preserve" width="35.0258mm" height="34.1179mm" version="1.1" style="shape-rendering:geometricPrecision; text-rendering:geometricPrecision; image-rendering:optimizeQuality; fill-rule:evenodd; clip-rule:evenodd"
viewBox="0 0 810.69 789.67"
 xmlns:xlink="http://www.w3.org/1999/xlink"
 xmlns:xodm="http://www.corel.com/coreldraw/odm/2003">
 <defs>
  <style type="text/css">
   <![CDATA[
    .fil0 {fill:white}
    .fil1 {fill:white;fill-rule:nonzero}
   ]]>
  </style>
 </defs>
 <g id="Capa_x0020_1">
  <metadata id="CorelCorpID_0Corel-Layer"/>
  <g id="_1999807482416">
   <g>
    <path class="fil0" d="M70.87 201.61c0,13.83 1.44,26.67 3.4,40.32 1.83,12.74 6.06,25.89 6.31,37.41l60.73 0c0,-63.41 -21.37,-118.5 34.59,-174.31 64.8,-64.63 151.93,-51.58 211.34,15.83 4.62,5.25 7.32,9.11 12.1,14.63 5.61,6.47 7.02,10.41 14.04,15.11 15.81,-10.58 88.85,-128.51 195.98,-74.52 58.21,29.32 80.94,69.48 80.94,135.25 0,98.35 -211.2,427.2 -315.42,325.73 -5,-4.87 -22.58,-7.52 -46.52,-7.52 0,24.48 -0.26,37.6 0.13,46.46 0.32,7.09 80.99,58.03 85.73,56.82 137.09,-35.02 409.43,-331.57 323.86,-515.44 -11.07,-23.78 -22.58,-39.89 -39.87,-57.28 -27.35,-27.51 -80.62,-60.11 -134.22,-60.11l-1.73 0c-36.19,0.05 -58.85,1.76 -93.86,18.57 -21.67,10.4 -36.66,22.58 -55.01,34.87 -8.63,-5.78 -15.63,-12.07 -25.23,-18.49 -10.62,-7.12 -18.1,-10.42 -29.81,-16.34 -20.98,-10.61 -43.37,-16.69 -66.08,-18.61l-31.92 0c-47.84,3.96 -94.78,25.55 -130.56,61.33 -9.71,9.71 -14.61,14.56 -22.86,25.72 -6.52,8.83 -14.7,22.24 -18.75,32.26 -9.59,23.72 -17.29,49.31 -17.29,82.3z"/>
    <polygon class="fil0" points="165.61,357.08 56.3,357.08 56.3,478.53 165.61,478.53 165.61,587.84 287.06,587.84 287.06,478.53 396.37,478.53 396.37,357.08 287.06,357.08 287.06,247.77 165.61,247.77 "/>
   </g>
   <path class="fil1" d="M111.43 750.2c0,7.52 -2.19,14.28 -6.56,20.29 -4.34,6.01 -10.75,10.71 -19.17,14.1 -8.42,3.4 -18.42,5.08 -29.95,5.08 -13.85,0 -25.28,-2.32 -34.26,-6.94 -6.37,-3.34 -11.53,-7.81 -15.51,-13.38 -3.99,-5.57 -5.98,-11 -5.98,-16.29 0,-3.05 1.21,-5.66 3.59,-7.86 2.39,-2.18 5.42,-3.25 9.11,-3.25 3.01,0 5.52,0.84 7.58,2.56 2.09,1.68 3.85,4.21 5.32,7.58 1.76,3.95 3.72,7.29 5.78,9.93 2.09,2.67 5,4.88 8.75,6.62 3.79,1.71 8.72,2.58 14.86,2.58 8.39,0 15.25,-1.74 20.51,-5.22 5.26,-3.48 7.9,-7.84 7.9,-13.06 0,-4.15 -1.4,-7.52 -4.24,-10.07 -2.84,-2.58 -6.53,-4.56 -11.04,-5.92 -4.47,-1.37 -10.51,-2.82 -18.03,-4.35 -10.06,-2.09 -18.52,-4.56 -25.28,-7.34 -6.8,-2.81 -12.18,-6.65 -16.17,-11.49 -3.99,-4.85 -5.98,-10.86 -5.98,-18.08 0,-6.85 2.09,-12.95 6.3,-18.28 4.21,-5.31 10.32,-9.4 18.29,-12.28 7.97,-2.87 17.34,-4.3 28.12,-4.3 8.59,0 16.04,0.96 22.34,2.84 6.27,1.92 11.5,4.44 15.64,7.58 4.12,3.14 7.15,6.44 9.08,9.9 1.89,3.46 2.87,6.85 2.87,10.13 0,2.99 -1.21,5.72 -3.59,8.13 -2.39,2.41 -5.39,3.6 -8.95,3.6 -3.27,0 -5.72,-0.72 -7.42,-2.15 -1.7,-1.45 -3.53,-3.83 -5.49,-7.11 -2.58,-4.7 -5.62,-8.39 -9.21,-11.03 -3.56,-2.64 -9.31,-3.95 -17.25,-3.95 -7.32,0 -13.26,1.42 -17.73,4.3 -4.51,2.87 -6.76,6.3 -6.76,10.33 0,2.5 0.75,4.64 2.29,6.47 1.53,1.8 3.66,3.37 6.33,4.67 2.68,1.31 5.39,2.32 8.13,3.08 2.75,0.73 7.29,1.8 13.59,3.22 7.9,1.65 15.09,3.46 21.49,5.46 6.4,1.97 11.86,4.38 16.36,7.23 4.51,2.81 8,6.41 10.51,10.74 2.52,4.35 3.79,9.67 3.79,15.96zm25.28 24.09l0 -98.19c0,-5.11 1.31,-8.91 3.92,-11.47 2.62,-2.55 6.01,-3.83 10.16,-3.83 4.25,0 7.71,1.25 10.36,3.77 2.64,2.53 3.98,6.36 3.98,11.52l0 98.19c0,5.17 -1.34,9 -3.98,11.55 -2.65,2.55 -6.11,3.83 -10.36,3.83 -4.08,0 -7.45,-1.28 -10.09,-3.86 -2.64,-2.58 -3.98,-6.41 -3.98,-11.52zm107.55 -5.51l-22.5 -79.41 0 86.03c0,4.76 -1.21,8.33 -3.59,10.71 -2.38,2.38 -5.55,3.57 -9.47,3.57 -3.82,0 -6.96,-1.19 -9.38,-3.54 -2.42,-2.35 -3.62,-5.92 -3.62,-10.74l0 -98.63c0,-5.46 1.6,-9.11 4.77,-11.03 3.2,-1.89 7.51,-2.84 12.9,-2.84l8.82 0c5.29,0 9.11,0.44 11.49,1.28 2.39,0.84 4.18,2.38 5.32,4.59 1.14,2.21 2.45,5.8 3.92,10.8l20.38 68.33 20.38 -68.33c1.47,-4.99 2.78,-8.59 3.92,-10.8 1.14,-2.21 2.91,-3.74 5.29,-4.59 2.38,-0.84 6.24,-1.28 11.53,-1.28l8.78 0c5.42,0 9.73,0.96 12.93,2.84 3.17,1.92 4.77,5.57 4.77,11.03l0 98.63c0,4.76 -1.21,8.33 -3.59,10.71 -2.38,2.38 -5.58,3.57 -9.57,3.57 -3.75,0 -6.86,-1.19 -9.27,-3.57 -2.42,-2.38 -3.62,-5.95 -3.62,-10.71l0 -86.03 -22.5 79.41c-1.47,5.14 -2.64,8.94 -3.59,11.35 -0.91,2.38 -2.61,4.59 -5.09,6.56 -2.52,2 -5.94,2.99 -10.35,2.99 -3.33,0 -6.14,-0.64 -8.43,-1.92 -2.29,-1.28 -4.08,-2.9 -5.36,-4.88 -1.27,-2 -2.29,-4.18 -3,-6.59 -0.75,-2.41 -1.5,-4.93 -2.25,-7.52zm148.41 -16.2l-30.25 0c-4.6,0 -8.1,-0.96 -10.48,-2.84 -2.38,-1.91 -3.59,-4.38 -3.59,-7.4 0,-3.05 1.18,-5.54 3.49,-7.46 2.32,-1.89 5.85,-2.84 10.58,-2.84l30.25 0c4.73,0 8.26,0.96 10.58,2.84 2.32,1.92 3.49,4.41 3.49,7.46 0,3.02 -1.14,5.49 -3.46,7.4 -2.28,1.89 -5.81,2.84 -10.61,2.84zm69.79 -76.63l54.61 73.49 0 -74.19c0,-4.82 1.18,-8.42 3.49,-10.83 2.32,-2.41 5.45,-3.63 9.4,-3.63 4.05,0 7.29,1.19 9.64,3.6 2.35,2.41 3.53,6.04 3.53,10.86l0 98.02c0,10.94 -5.09,16.4 -15.29,16.4 -2.55,0 -4.83,-0.32 -6.89,-0.99 -2.03,-0.64 -3.95,-1.68 -5.72,-3.08 -1.79,-1.42 -3.43,-3.08 -4.96,-4.99 -1.53,-1.89 -3.07,-3.83 -4.6,-5.8l-53.27 -72.56 0 72.97c0,4.76 -1.24,8.36 -3.72,10.8 -2.52,2.44 -5.72,3.66 -9.6,3.66 -4.02,0 -7.25,-1.22 -9.67,-3.69 -2.45,-2.47 -3.66,-6.07 -3.66,-10.77l0 -96.13c0,-4.09 0.53,-7.29 1.54,-9.61 1.21,-2.56 3.23,-4.65 6.04,-6.27 2.81,-1.6 5.85,-2.41 9.08,-2.41 2.58,0 4.77,0.38 6.57,1.1 1.83,0.75 3.43,1.74 4.8,2.99 1.37,1.25 2.78,2.84 4.21,4.85 1.44,1.97 2.94,4.03 4.47,6.21zm204.23 6.44l-64.02 0 0 30.65 58.95 0c4.34,0 7.58,0.87 9.7,2.58 2.15,1.71 3.2,4.01 3.2,6.82 0,2.82 -1.05,5.14 -3.14,6.91 -2.12,1.77 -5.36,2.67 -9.77,2.67l-58.95 0 0 35.53 66.2 0c4.47,0 7.84,0.93 10.09,2.76 2.29,1.83 3.43,4.3 3.43,7.34 0,2.93 -1.14,5.34 -3.43,7.17 -2.25,1.83 -5.62,2.76 -10.09,2.76l-77.21 0c-6.17,0 -10.62,-1.22 -13.32,-3.66 -2.71,-2.44 -4.08,-6.39 -4.08,-11.81l0 -93.75c0,-3.63 0.62,-6.59 1.83,-8.88 1.21,-2.29 3.1,-3.98 5.68,-5.02 2.58,-1.04 5.88,-1.57 9.9,-1.57l75.02 0c4.54,0 7.9,0.9 10.09,2.67 2.19,1.8 3.3,4.15 3.3,7.02 0,2.96 -1.11,5.34 -3.3,7.14 -2.19,1.77 -5.55,2.67 -10.09,2.67zm129.43 1.39l-30.99 0 0 90.5c0,5.23 -1.31,9.09 -3.95,11.61 -2.61,2.53 -6.01,3.77 -10.16,3.77 -4.21,0 -7.68,-1.28 -10.32,-3.83 -2.65,-2.56 -3.98,-6.39 -3.98,-11.55l0 -90.5 -31 0c-4.87,0 -8.46,-0.96 -10.81,-2.84 -2.35,-1.91 -3.56,-4.44 -3.56,-7.58 0,-3.22 1.24,-5.77 3.69,-7.66 2.45,-1.89 6.01,-2.81 10.68,-2.81l90.4 0c4.93,0 8.56,0.96 10.98,2.9 2.38,1.94 3.59,4.47 3.59,7.58 0,3.14 -1.24,5.66 -3.66,7.58 -2.42,1.89 -6.04,2.84 -10.91,2.84z"/>
  </g>
 </g>
</svg>
